<svg id="Layer_1" data-name="Layer 1" xmlns="http://www.w3.org/2000/svg" viewBox="0 0 406.96 106.66"><defs><style>.cls-1{fill:#056281;}.cls-2{fill:#007da4;}.cls-3{fill:#fff;}.cls-4{fill:#1b485b;}.cls-5{fill:none;stroke:#fff;stroke-linecap:round;stroke-linejoin:round;stroke-width:4px;}</style></defs><title>viz logos [Recovered]</title><path class="cls-1" d="M154.47,82.4V32.23a1.62,1.62,0,0,1,1.61-1.62h15.39a1.62,1.62,0,0,1,1.61,1.62V80.17a6.49,6.49,0,0,0,.87,3.71,3.18,3.18,0,0,0,2.93,1.2,9.74,9.74,0,0,0,4.45-1.5,1.64,1.64,0,0,0,.84-1.42V32.23a1.63,1.63,0,0,1,1.62-1.62h15.38a1.62,1.62,0,0,1,1.62,1.62V95a1.61,1.61,0,0,1-1.62,1.62H183.79A1.62,1.62,0,0,1,182.17,95v-1a1.61,1.61,0,0,0-2.6-1.27q-6.39,4.95-13,5a10.42,10.42,0,0,1-9-4.3C155.5,90.58,154.47,86.9,154.47,82.4Z"/><path class="cls-1" d="M204.07,95V5.81a1.61,1.61,0,0,1,1.62-1.62h15.38a1.62,1.62,0,0,1,1.62,1.62V32.1a1.62,1.62,0,0,0,2.57,1.3,19,19,0,0,1,11.18-3.9h.62q7.11.22,10.58,5.69T251.12,49V77.16q0,9.44-3.75,15a12.14,12.14,0,0,1-10.71,5.6,19.52,19.52,0,0,1-11.41-4.1A1.62,1.62,0,0,0,222.69,95h0a1.62,1.62,0,0,1-1.62,1.62H205.69A1.61,1.61,0,0,1,204.07,95Zm18.62-11.94a1.65,1.65,0,0,0,.92,1.47,9.56,9.56,0,0,0,4.26,1.11H228a3.82,3.82,0,0,0,3.46-2.06,10.9,10.9,0,0,0,1.06-5.08V47.62a9.64,9.64,0,0,0-1.17-5,3.52,3.52,0,0,0-3.24-1.78h-.39a9.26,9.26,0,0,0-4.32,1.68,1.62,1.62,0,0,0-.69,1.34Z"/><path class="cls-1" d="M254.37,75.44V51.8q0-10.65,6-16.47t17-5.83q11.64,0,17.46,5.66t5.82,16.64V63.17A1.63,1.63,0,0,1,299,64.79H274.61A1.61,1.61,0,0,0,273,66.41V76.52a14.63,14.63,0,0,0,1,6.11,3.49,3.49,0,0,0,3.38,2.06q4.67,0,4.66-6.54V75.27a1.62,1.62,0,0,1,1.62-1.62H299a1.63,1.63,0,0,1,1.62,1.62V77.5q0,9.87-6.11,15.08t-17.17,5.21q-11,0-17-5.85T254.37,75.44Zm20.24-19.35h5.79A1.62,1.62,0,0,0,282,54.47v-5q0-3.72-1.22-5.28a4.19,4.19,0,0,0-3.49-1.55,3.53,3.53,0,0,0-3.24,1.81Q273,46.21,273,50.56v3.91A1.61,1.61,0,0,0,274.61,56.09Z"/><path class="cls-2" d="M302.48,30.61h14.44A1.64,1.64,0,0,1,318.53,32l3.56,27.82a1.62,1.62,0,0,0,3.21,0L328.6,32a1.63,1.63,0,0,1,1.61-1.43h14.36a1.62,1.62,0,0,1,1.59,2L333.38,95.32a1.62,1.62,0,0,1-1.59,1.3H315a1.62,1.62,0,0,1-1.59-1.3L300.89,32.55A1.63,1.63,0,0,1,302.48,30.61Z"/><path class="cls-2" d="M344.3,25.9V16a1.61,1.61,0,0,1,1.62-1.62h15.49A1.62,1.62,0,0,1,363,16V25.9a1.62,1.62,0,0,1-1.62,1.62H345.92A1.61,1.61,0,0,1,344.3,25.9Zm.11,69.1V32.23A1.62,1.62,0,0,1,346,30.61h15.38A1.63,1.63,0,0,1,363,32.23V95a1.62,1.62,0,0,1-1.62,1.62H346A1.61,1.61,0,0,1,344.41,95Z"/><path class="cls-2" d="M361.19,95V84.78c0-.23,4.05-.46,4.14-.67l17-37.38a1.62,1.62,0,0,0-1.47-2.29H368.2a1.62,1.62,0,0,1-1.62-1.62V32.23a1.63,1.63,0,0,1,1.62-1.62H401a1.62,1.62,0,0,1,1.62,1.62v9.54a1.66,1.66,0,0,1-.14.66l-17,38.09A1.61,1.61,0,0,0,387,82.79h14.28a1.63,1.63,0,0,1,1.62,1.62V95a1.62,1.62,0,0,1-1.62,1.62h-38.5A1.61,1.61,0,0,1,361.19,95Z"/><circle class="cls-1" cx="49.49" cy="56.47" r="46.38"/><polygon class="cls-3" points="52.58 60.16 27.47 71.82 27.47 41.81 51.58 29.15 52.58 60.16"/><ellipse class="cls-4" cx="34.09" cy="49.72" rx="2.49" ry="0.69" transform="translate(-25.95 55.13) rotate(-60.71)"/><ellipse class="cls-4" cx="34.09" cy="49.72" rx="0.72" ry="2.19" transform="translate(-25.95 55.13) rotate(-60.71)"/><ellipse class="cls-4" cx="45.05" cy="51.86" rx="3.84" ry="1.23" transform="translate(-10.13 10.95) rotate(-12.46)"/><ellipse class="cls-4" cx="45.05" cy="51.86" rx="1.27" ry="3.89" transform="translate(-10.13 10.95) rotate(-12.46)"/><ellipse class="cls-4" cx="33.09" cy="62.69" rx="0.41" ry="1.63" transform="translate(-37.7 66.34) rotate(-65.13)"/><ellipse class="cls-4" cx="33.07" cy="62.73" rx="1.31" ry="0.43" transform="translate(-37.75 66.35) rotate(-65.13)"/><ellipse class="cls-4" cx="45.05" cy="41.64" rx="0.49" ry="1.54" transform="translate(-16.09 36.57) rotate(-38.01)"/><ellipse class="cls-4" cx="45.05" cy="41.64" rx="1.91" ry="0.51" transform="translate(-16.09 36.57) rotate(-38.01)"/><ellipse class="cls-4" cx="38.62" cy="41.64" rx="0.35" ry="1.09" transform="translate(-17.45 32.61) rotate(-38.01)"/><ellipse class="cls-4" cx="38.62" cy="41.64" rx="1.1" ry="0.36" transform="translate(-17.45 32.61) rotate(-38.01)"/><ellipse class="cls-4" cx="37.38" cy="56.8" rx="0.41" ry="1.3" transform="translate(-27.05 35.06) rotate(-38.01)"/><ellipse class="cls-4" cx="37.38" cy="56.8" rx="1.31" ry="0.43" transform="translate(-27.05 35.06) rotate(-38.01)"/><polyline class="cls-5" points="38.09 75.79 61.04 65.69 60.33 37.32"/><polyline class="cls-5" points="52.06 81.15 71.52 71.68 70.89 46.14"/><path class="cls-1" d="M100,70.34V39.75a49.84,49.84,0,0,1,1.3-12.14,24.68,24.68,0,0,1,4.24-9,17.75,17.75,0,0,1,8-5.79,34.54,34.54,0,0,1,12.35-1.94,36,36,0,0,1,12,1.76,17.24,17.24,0,0,1,7.78,5.17,21.4,21.4,0,0,1,4,7.77,37.16,37.16,0,0,1,1.23,10.09V40a3.19,3.19,0,0,1-3.2,3.19H135.19A3.19,3.19,0,0,1,132,40V34.57c0-1.34,0-2.36-.05-3.05a22.73,22.73,0,0,0-.36-2.67,6.37,6.37,0,0,0-.91-2.46,5,5,0,0,0-1.83-1.47,7.2,7.2,0,0,0-6,0A5.27,5.27,0,0,0,121,26.47,7.29,7.29,0,0,0,120,29a16.1,16.1,0,0,0-.46,2.88c0,.86-.08,1.93-.08,3.21v40a18.41,18.41,0,0,0,1.34,7.89c.89,1.81,2.6,2.72,5.1,2.72a6.14,6.14,0,0,0,2.92-.65,5.23,5.23,0,0,0,1.83-1.53,6.65,6.65,0,0,0,1-2.48,18.8,18.8,0,0,0,.39-2.8c0-.79.05-1.84.05-3.15V69.24a3.2,3.2,0,0,1,3.2-3.2h12.54a3.2,3.2,0,0,1,3.2,3.2v4.2a43.19,43.19,0,0,1-.73,8.33,25.43,25.43,0,0,1-2.5,7,17.43,17.43,0,0,1-4.58,5.51A20.68,20.68,0,0,1,136,97.79a36.15,36.15,0,0,1-10.1,1.27,33.81,33.81,0,0,1-12.32-2,18,18,0,0,1-8-5.88,24.87,24.87,0,0,1-4.24-9A48.13,48.13,0,0,1,100,70.34Z"/></svg>