<svg id="Layer_1" data-name="Layer 1" xmlns="http://www.w3.org/2000/svg" viewBox="0 0 406.96 106.66"><defs><style>.cls-1{fill:#215a6f;}.cls-2{fill:#fff;}.cls-3{fill:none;stroke:#fff;stroke-linecap:round;stroke-linejoin:round;stroke-width:4px;}</style></defs><path class="cls-1" d="M106.28,75.49V51.63q0-10.49,6-16.3t16.81-5.83q11,0,17,5t6,14.86V54.7a1.61,1.61,0,0,1-1.62,1.61H135a1.62,1.62,0,0,1-1.62-1.61V48.78q0-3.81-1-5.22a3.74,3.74,0,0,0-3.22-1.41,3.44,3.44,0,0,0-3.2,1.73c-.68,1.15-1,3.14-1,6V77.17c0,2.86.34,4.83,1,5.91a3.52,3.52,0,0,0,3.17,1.61,3.69,3.69,0,0,0,3.22-1.46c.69-1,1-2.6,1-4.88v-7A1.62,1.62,0,0,1,135,69.75h15.38A1.61,1.61,0,0,1,152,71.37v6.35q0,9.81-6,14.94t-16.93,5.13q-10.86,0-16.81-5.88T106.28,75.49Z"/><path class="cls-1" d="M155.47,82.4V32.23a1.62,1.62,0,0,1,1.61-1.62h15.39a1.62,1.62,0,0,1,1.61,1.62V80.17a6.49,6.49,0,0,0,.87,3.71,3.18,3.18,0,0,0,2.93,1.2,9.74,9.74,0,0,0,4.45-1.5,1.64,1.64,0,0,0,.84-1.42V32.23a1.63,1.63,0,0,1,1.62-1.62h15.38a1.62,1.62,0,0,1,1.62,1.62V95a1.61,1.61,0,0,1-1.62,1.62H184.79A1.62,1.62,0,0,1,183.17,95v-1a1.61,1.61,0,0,0-2.6-1.27q-6.39,4.95-13,5a10.42,10.42,0,0,1-9-4.3C156.5,90.58,155.47,86.9,155.47,82.4Z"/><path class="cls-1" d="M205.07,95V5.81a1.61,1.61,0,0,1,1.62-1.62h15.38a1.62,1.62,0,0,1,1.62,1.62V32.1a1.62,1.62,0,0,0,2.57,1.3,19,19,0,0,1,11.18-3.9h.62q7.11.22,10.58,5.69T252.12,49V77.16q0,9.44-3.75,15a12.14,12.14,0,0,1-10.71,5.6,19.52,19.52,0,0,1-11.41-4.1A1.62,1.62,0,0,0,223.69,95h0a1.62,1.62,0,0,1-1.62,1.62H206.69A1.61,1.61,0,0,1,205.07,95Zm18.62-11.94a1.65,1.65,0,0,0,.92,1.47,9.56,9.56,0,0,0,4.26,1.11H229a3.82,3.82,0,0,0,3.46-2.06,10.9,10.9,0,0,0,1.06-5.08V47.62a9.64,9.64,0,0,0-1.17-5,3.52,3.52,0,0,0-3.24-1.78h-.39a9.26,9.26,0,0,0-4.32,1.68,1.62,1.62,0,0,0-.69,1.34Z"/><path class="cls-1" d="M255.37,75.44V51.8q0-10.65,6-16.47t17-5.83q11.64,0,17.46,5.66t5.82,16.64V63.17A1.63,1.63,0,0,1,300,64.79H275.61A1.61,1.61,0,0,0,274,66.41V76.52a14.63,14.63,0,0,0,1,6.11,3.49,3.49,0,0,0,3.38,2.06q4.67,0,4.66-6.54V75.27a1.62,1.62,0,0,1,1.62-1.62H300a1.63,1.63,0,0,1,1.62,1.62V77.5q0,9.87-6.11,15.08t-17.17,5.21q-11,0-17-5.85T255.37,75.44Zm20.24-19.35h5.79A1.62,1.62,0,0,0,283,54.47v-5q0-3.72-1.22-5.28a4.19,4.19,0,0,0-3.49-1.55,3.53,3.53,0,0,0-3.24,1.81Q274,46.21,274,50.56v3.91A1.61,1.61,0,0,0,275.61,56.09Z"/><path class="cls-1" d="M303.48,30.61h14.44A1.64,1.64,0,0,1,319.53,32l3.56,27.82a1.62,1.62,0,0,0,3.21,0L329.6,32a1.63,1.63,0,0,1,1.61-1.43h14.36a1.62,1.62,0,0,1,1.59,2L334.38,95.32a1.62,1.62,0,0,1-1.59,1.3H316a1.62,1.62,0,0,1-1.59-1.3L301.89,32.55A1.63,1.63,0,0,1,303.48,30.61Z"/><path class="cls-1" d="M345.3,25.9V16a1.61,1.61,0,0,1,1.62-1.62h15.49A1.62,1.62,0,0,1,364,16V25.9a1.62,1.62,0,0,1-1.62,1.62H346.92A1.61,1.61,0,0,1,345.3,25.9Zm.11,69.1V32.23A1.62,1.62,0,0,1,347,30.61h15.38A1.63,1.63,0,0,1,364,32.23V95a1.62,1.62,0,0,1-1.62,1.62H347A1.61,1.61,0,0,1,345.41,95Z"/><path class="cls-1" d="M362.19,95V84.78c0-.23,4.05-.46,4.14-.67l17-37.38a1.62,1.62,0,0,0-1.47-2.29H369.2a1.62,1.62,0,0,1-1.62-1.62V32.23a1.63,1.63,0,0,1,1.62-1.62H402a1.62,1.62,0,0,1,1.62,1.62v9.54a1.66,1.66,0,0,1-.14.66l-17,38.09A1.61,1.61,0,0,0,388,82.79h14.28a1.63,1.63,0,0,1,1.62,1.62V95a1.62,1.62,0,0,1-1.62,1.62h-38.5A1.61,1.61,0,0,1,362.19,95Z"/><circle class="cls-1" cx="50.49" cy="56.47" r="46.38"/><polygon class="cls-2" points="53.58 60.16 28.47 71.82 28.47 41.81 52.58 29.15 53.58 60.16"/><ellipse class="cls-1" cx="35.09" cy="49.72" rx="2.49" ry="0.69" transform="translate(-25.44 56) rotate(-60.71)"/><ellipse class="cls-1" cx="35.09" cy="49.72" rx="0.72" ry="2.19" transform="translate(-25.44 56) rotate(-60.71)"/><ellipse class="cls-1" cx="46.05" cy="51.86" rx="3.84" ry="1.23" transform="translate(-10.11 11.16) rotate(-12.46)"/><ellipse class="cls-1" cx="46.05" cy="51.86" rx="1.27" ry="3.89" transform="translate(-10.11 11.16) rotate(-12.46)"/><ellipse class="cls-1" cx="34.09" cy="62.69" rx="0.41" ry="1.63" transform="translate(-37.12 67.25) rotate(-65.13)"/><ellipse class="cls-1" cx="34.07" cy="62.73" rx="1.31" ry="0.43" transform="translate(-37.17 67.26) rotate(-65.13)"/><ellipse class="cls-1" cx="46.05" cy="41.64" rx="0.49" ry="1.54" transform="translate(-15.87 37.19) rotate(-38.01)"/><ellipse class="cls-1" cx="46.05" cy="41.64" rx="1.91" ry="0.51" transform="translate(-15.87 37.19) rotate(-38.01)"/><ellipse class="cls-1" cx="39.62" cy="41.64" rx="0.35" ry="1.09" transform="translate(-17.24 33.23) rotate(-38.01)"/><ellipse class="cls-1" cx="39.62" cy="41.64" rx="1.1" ry="0.36" transform="translate(-17.24 33.23) rotate(-38.01)"/><ellipse class="cls-1" cx="38.38" cy="56.8" rx="0.41" ry="1.3" transform="translate(-26.84 35.68) rotate(-38.01)"/><ellipse class="cls-1" cx="38.38" cy="56.8" rx="1.31" ry="0.43" transform="translate(-26.84 35.68) rotate(-38.01)"/><polyline class="cls-3" points="39.09 75.79 62.04 65.69 61.33 37.32"/><polyline class="cls-3" points="53.06 81.15 72.52 71.68 71.89 46.14"/></svg>