<svg id="Layer_1" data-name="Layer 1" xmlns="http://www.w3.org/2000/svg" viewBox="0 0 337.24 111.86"><defs><style>.cls-1{fill:#215a6f;}.cls-2{fill:#fff;}</style></defs><circle class="cls-1" cx="57.44" cy="54.7" r="46.38"/><path class="cls-1" d="M218,32.51h13.14a2,2,0,0,1,2,1.74l3,23.25a2,2,0,0,0,4,0l2.76-23.21a2,2,0,0,1,2-1.76h13.06a2,2,0,0,1,2,2.4L247.6,95.08a2,2,0,0,1-2,1.6H230a2,2,0,0,1-2-1.61l-12-60.17A2,2,0,0,1,218,32.51Z"/><path class="cls-1" d="M265.27,19.72V11a2,2,0,0,1,2-2h14.21a2,2,0,0,1,2,2v8.74a2,2,0,0,1-2,2H267.27A2,2,0,0,1,265.27,19.72Zm.1,75V34.51a2,2,0,0,1,2-2h14.1a2,2,0,0,1,2,2V94.68a2,2,0,0,1-2,2h-14.1A2,2,0,0,1,265.37,94.68Z"/><path class="cls-1" d="M288.85,94.68V85.26a2,2,0,0,1,.18-.83l16.2-35.65A2,2,0,0,0,303.41,46h-11.2a2,2,0,0,1-2-2V34.51a2,2,0,0,1,2-2h31.06a2,2,0,0,1,2,2v8.75a2.11,2.11,0,0,1-.17.82L308.91,80.42a2,2,0,0,0,1.83,2.82h12.8a2,2,0,0,1,2,2v9.44a2,2,0,0,1-2,2H290.85A2,2,0,0,1,288.85,94.68Z"/><path class="cls-1" d="M110.07,94.3v-81A3.39,3.39,0,0,1,113.46,10h12.59a3.39,3.39,0,0,1,3.39,3.39v81a3.39,3.39,0,0,1-3.39,3.39H113.46A3.39,3.39,0,0,1,110.07,94.3Z"/><polygon class="cls-2" points="62.16 51.8 62.16 48.39 58.75 48.39 58.75 44.98 55.34 44.98 51.94 44.98 51.94 48.39 48.53 48.39 48.53 51.8 45.12 51.8 45.12 55.21 45.12 58.61 48.53 58.61 48.53 62.02 51.94 62.02 51.94 65.43 55.34 65.43 58.75 65.43 58.75 62.02 62.16 62.02 62.16 58.61 65.57 58.61 65.57 55.21 65.57 51.8 62.16 51.8"/><rect class="cls-2" x="26.93" y="54.7" width="54.48" height="1.73"/><rect class="cls-2" x="30.71" y="52.96" width="49.28" height="1.73" transform="translate(109.16 -1.52) rotate(90)"/><rect class="cls-2" x="31.95" y="80.64" width="1.73" height="1.73"/><rect class="cls-2" x="37.64" y="79.32" width="1.73" height="1.73"/><rect class="cls-2" x="31.08" y="67.98" width="1.73" height="1.73"/><rect class="cls-2" x="32.81" y="67.98" width="1.73" height="1.73"/><rect class="cls-2" x="32.81" y="69.7" width="1.73" height="1.73"/><rect class="cls-2" x="80.16" y="42.57" width="1.73" height="1.73"/><rect class="cls-2" x="75.31" y="64.57" width="1.73" height="1.73"/><rect class="cls-2" x="64.22" y="80.69" width="1.73" height="1.73"/><rect class="cls-2" x="65.95" y="82.42" width="1.73" height="1.73"/><rect class="cls-2" x="65.95" y="80.69" width="1.73" height="1.73"/><rect class="cls-2" x="67.68" y="80.69" width="1.73" height="1.73"/><rect class="cls-2" x="65.95" y="78.97" width="1.73" height="1.73"/><rect class="cls-2" x="41.09" y="24.05" width="1.73" height="1.73"/><rect class="cls-2" x="39.37" y="24.05" width="1.73" height="1.73"/><rect class="cls-2" x="41.09" y="25.78" width="1.73" height="1.73"/><rect class="cls-2" x="39.37" y="25.78" width="1.73" height="1.73"/><rect class="cls-2" x="37.64" y="27.41" width="1.73" height="1.73"/><rect class="cls-2" x="42.82" y="22.33" width="1.73" height="1.73"/><rect class="cls-2" x="69.86" y="34.62" width="1.73" height="1.73"/><rect class="cls-2" x="69.86" y="32.9" width="1.73" height="1.73"/><rect class="cls-2" x="68.22" y="32.9" width="1.73" height="1.73"/><rect class="cls-2" x="66.49" y="32.9" width="1.73" height="1.73"/><rect class="cls-2" x="68.22" y="31.17" width="1.73" height="1.73"/><rect class="cls-2" x="66.49" y="31.17" width="1.73" height="1.73"/><rect class="cls-2" x="68.22" y="34.62" width="1.73" height="1.73"/><rect class="cls-2" x="33.26" y="38.27" width="1.73" height="1.73"/><rect class="cls-2" x="39.88" y="41.7" width="1.73" height="1.73"/><rect class="cls-2" x="27.56" y="40.84" width="1.73" height="1.73"/><rect class="cls-2" x="83.52" y="30.11" width="1.73" height="1.73"/><rect class="cls-2" x="54.48" y="80.18" width="1.73" height="1.73"/><rect class="cls-2" x="54.48" y="25.73" width="1.73" height="1.73"/><rect class="cls-2" x="82.54" y="54.7" width="1.73" height="1.73"/><rect class="cls-2" x="87.38" y="54.7" width="1.73" height="1.73"/><rect class="cls-2" x="23.94" y="54.7" width="1.73" height="1.73"/><rect class="cls-2" x="18.36" y="54.7" width="1.73" height="1.73"/><rect class="cls-2" x="96.2" y="54.7" width="1.73" height="1.73"/><rect class="cls-2" x="54.48" y="21.44" width="1.73" height="1.73"/><rect class="cls-2" x="54.48" y="84.42" width="1.73" height="1.73"/><rect class="cls-2" x="54.48" y="13.7" width="1.73" height="1.73"/><rect class="cls-2" x="54.48" y="92.11" width="1.73" height="1.73"/><path class="cls-1" d="M138.52,95.05V34.14a1.63,1.63,0,0,1,1.64-1.63H155a1.63,1.63,0,0,1,1.63,1.63h0a1.63,1.63,0,0,0,2.61,1.29A21,21,0,0,1,172,31.31a12.09,12.09,0,0,1,6.82,1.94,11.48,11.48,0,0,1,3.48,3.68,1.62,1.62,0,0,0,2.51.32,21.11,21.11,0,0,1,14.94-5.94,11.31,11.31,0,0,1,9.16,4.12q3.42,4.13,3.42,11.38V95.05a1.63,1.63,0,0,1-1.63,1.63H195.87a1.63,1.63,0,0,1-1.63-1.63V48.56a6.36,6.36,0,0,0-.92-3.86,3.12,3.12,0,0,0-2.85-1.08A10.49,10.49,0,0,0,184.59,46v49.1A1.63,1.63,0,0,1,183,96.68H168.12a1.63,1.63,0,0,1-1.63-1.63V48.56a6.25,6.25,0,0,0-.94-3.83,3.17,3.17,0,0,0-2.89-1.11,10.86,10.86,0,0,0-5.3,2,1.63,1.63,0,0,0-.73,1.36V95.05A1.63,1.63,0,0,1,155,96.68H140.16A1.63,1.63,0,0,1,138.52,95.05Z"/></svg>