<?xml version="1.0" encoding="UTF-8"?>
<svg xmlns="http://www.w3.org/2000/svg" xmlns:xlink="http://www.w3.org/1999/xlink" width="214pt" height="166pt" viewBox="0 0 214 166" version="1.1">
<g id="surface1">
<path style=" stroke:none;fill-rule:nonzero;fill:rgb(1.960784%,38.431373%,50.588235%);fill-opacity:1;" d="M 18.917969 81.234375 C 18.320312 81.234375 17.796875 80.710938 17.796875 80.109375 L 17.796875 71.402344 L 18.542969 71.402344 C 21.160156 71.402344 22.957031 71.027344 23.925781 70.203125 C 25.050781 69.300781 25.574219 67.574219 25.574219 64.871094 L 25.574219 16.382812 C 25.574219 15.785156 26.097656 15.257812 26.695312 15.257812 L 38.65625 15.257812 C 39.253906 15.257812 39.777344 15.785156 39.777344 16.382812 L 39.777344 65.398438 C 39.777344 67.726562 39.480469 70.050781 38.957031 72.378906 C 38.507812 74.179688 37.683594 75.832031 36.5625 77.257812 C 35.367188 78.683594 33.796875 79.808594 32.003906 80.335938 C 29.683594 81.011719 27.21875 81.386719 24.75 81.3125 Z M 18.917969 81.234375 "/>
<path style=" stroke:none;fill-rule:nonzero;fill:rgb(1.960784%,38.431373%,50.588235%);fill-opacity:1;" d="M 42.84375 66.222656 L 42.84375 47.535156 C 42.84375 43.179688 43.742188 39.652344 45.535156 36.949219 C 47.257812 34.324219 50.246094 32.820312 53.460938 32.972656 C 56.078125 32.972656 58.621094 33.796875 60.714844 35.300781 C 61.238281 35.597656 61.910156 35.523438 62.210938 35 C 62.359375 34.847656 62.359375 34.625 62.359375 34.398438 L 62.359375 16.382812 C 62.359375 15.785156 62.882812 15.257812 63.480469 15.257812 L 74.175781 15.257812 C 74.773438 15.257812 75.296875 15.785156 75.296875 16.382812 L 75.296875 78.609375 C 75.296875 79.210938 74.773438 79.734375 74.175781 79.734375 L 63.558594 79.734375 C 62.957031 79.734375 62.433594 79.210938 62.433594 78.609375 C 62.433594 78.007812 61.910156 77.484375 61.3125 77.484375 C 61.089844 77.484375 60.863281 77.558594 60.640625 77.707031 C 58.621094 79.433594 56.078125 80.410156 53.460938 80.484375 C 50.023438 80.484375 47.40625 79.285156 45.535156 76.882812 C 43.667969 74.480469 42.84375 70.953125 42.84375 66.222656 Z M 55.78125 67.050781 C 55.707031 68.324219 56.003906 69.601562 56.527344 70.726562 C 56.976562 71.703125 58.023438 72.230469 59.070312 72.152344 C 60.042969 72.078125 61.015625 71.851562 61.835938 71.328125 C 62.210938 71.179688 62.433594 70.726562 62.433594 70.351562 L 62.433594 42.804688 C 62.433594 42.355469 62.210938 41.980469 61.761719 41.828125 C 60.941406 41.378906 60.042969 41.152344 59.070312 41.152344 C 58.023438 41.078125 57.050781 41.605469 56.527344 42.503906 C 55.929688 43.628906 55.632812 44.832031 55.707031 46.109375 Z M 55.78125 67.050781 "/>
<path style=" stroke:none;fill-rule:nonzero;fill:rgb(1.960784%,38.431373%,50.588235%);fill-opacity:1;" d="M 78.289062 69.375 C 78.289062 67.949219 78.511719 66.523438 78.886719 65.171875 C 79.257812 63.972656 79.707031 62.847656 80.304688 61.71875 C 80.980469 60.667969 81.726562 59.695312 82.699219 58.941406 C 83.597656 58.117188 84.492188 57.441406 85.464844 56.765625 C 86.511719 56.089844 87.632812 55.492188 88.753906 54.964844 C 90.101562 54.363281 91.222656 53.839844 92.046875 53.539062 C 92.867188 53.238281 93.988281 52.789062 95.410156 52.335938 C 96.382812 52.039062 97.054688 51.738281 97.652344 51.511719 C 98.101562 51.363281 98.328125 50.910156 98.328125 50.460938 L 98.328125 46.632812 C 98.402344 45.582031 98.175781 44.53125 97.726562 43.628906 C 97.28125 42.878906 96.457031 42.503906 95.632812 42.578125 C 93.914062 42.578125 92.941406 43.78125 92.867188 46.257812 L 92.644531 48.585938 C 92.570312 49.183594 92.121094 49.558594 91.523438 49.558594 L 79.410156 49.109375 C 79.410156 49.035156 79.410156 48.808594 79.484375 48.359375 C 79.558594 47.910156 79.484375 47.757812 79.558594 47.683594 L 79.558594 47.609375 C 80.007812 42.578125 81.652344 38.902344 84.492188 36.5 C 87.335938 34.097656 91.523438 32.898438 96.90625 32.898438 C 101.617188 32.898438 105.207031 34.171875 107.597656 36.648438 C 110.066406 39.128906 111.261719 42.503906 111.261719 46.707031 L 111.261719 68.175781 C 111.335938 71.554688 111.5625 75.007812 111.933594 78.382812 C 112.011719 78.984375 111.5625 79.507812 110.964844 79.585938 C 110.964844 79.585938 110.886719 79.585938 110.886719 79.585938 L 100.945312 79.585938 C 100.421875 79.585938 99.972656 79.210938 99.898438 78.683594 C 99.746094 77.859375 99.597656 77.183594 99.523438 76.507812 C 99.449219 75.90625 98.851562 75.53125 98.25 75.605469 C 97.953125 75.679688 97.726562 75.832031 97.578125 76.058594 C 97.054688 76.882812 96.382812 77.632812 95.632812 78.308594 C 93.988281 79.734375 91.820312 80.484375 89.652344 80.410156 C 86.511719 80.484375 83.519531 79.285156 81.425781 76.957031 C 79.410156 75.082031 78.289062 72.304688 78.289062 69.375 Z M 91.222656 66.824219 C 91.148438 68.101562 91.523438 69.375 92.195312 70.425781 C 92.792969 71.253906 93.691406 71.777344 94.738281 71.777344 C 95.410156 71.777344 96.082031 71.554688 96.679688 71.179688 C 97.203125 70.800781 97.652344 70.425781 98.101562 69.902344 C 98.25 69.675781 98.328125 69.453125 98.328125 69.226562 L 98.328125 58.792969 C 98.328125 58.191406 97.804688 57.667969 97.203125 57.667969 C 96.980469 57.667969 96.757812 57.742188 96.605469 57.890625 C 95.335938 58.792969 94.214844 59.917969 93.242188 61.269531 C 91.96875 62.847656 91.296875 64.796875 91.222656 66.824219 Z M 91.222656 66.824219 "/>
<path style=" stroke:none;fill-rule:nonzero;fill:rgb(0%,49.019608%,64.313725%);fill-opacity:1;" d="M 113.953125 33.722656 L 124.046875 33.722656 C 124.570312 33.722656 125.09375 34.097656 125.09375 34.699219 L 127.636719 54.363281 C 127.710938 54.964844 128.234375 55.414062 128.832031 55.339844 C 129.355469 55.265625 129.730469 54.890625 129.804688 54.363281 L 132.125 34.699219 C 132.199219 34.171875 132.648438 33.722656 133.171875 33.722656 L 143.191406 33.722656 C 143.789062 33.722656 144.238281 34.25 144.238281 34.847656 C 144.238281 34.921875 144.238281 35 144.238281 35 L 135.488281 78.835938 C 135.414062 79.359375 134.964844 79.734375 134.441406 79.734375 L 122.703125 79.734375 C 122.179688 79.734375 121.730469 79.359375 121.65625 78.835938 L 112.90625 35 C 112.757812 34.398438 113.207031 33.796875 113.804688 33.722656 C 113.804688 33.722656 113.878906 33.722656 113.953125 33.722656 Z M 113.953125 33.722656 "/>
<path style=" stroke:none;fill-rule:nonzero;fill:rgb(0%,49.019608%,64.313725%);fill-opacity:1;" d="M 147.527344 24.867188 L 147.527344 17.960938 C 147.527344 17.359375 148.050781 16.835938 148.648438 16.835938 L 159.492188 16.835938 C 160.089844 16.835938 160.613281 17.359375 160.613281 17.960938 L 160.613281 24.867188 C 160.613281 25.464844 160.089844 25.992188 159.492188 25.992188 L 148.648438 25.992188 C 148.050781 25.992188 147.527344 25.464844 147.527344 24.867188 Z M 147.601562 78.609375 L 147.601562 34.773438 C 147.601562 34.171875 148.125 33.648438 148.722656 33.648438 L 159.492188 33.648438 C 160.089844 33.648438 160.613281 34.097656 160.613281 34.699219 L 160.613281 78.535156 C 160.613281 79.132812 160.089844 79.660156 159.492188 79.660156 L 148.722656 79.660156 C 148.125 79.734375 147.601562 79.210938 147.601562 78.609375 Z M 147.601562 78.609375 "/>
<path style=" stroke:none;fill-rule:nonzero;fill:rgb(0%,49.019608%,64.313725%);fill-opacity:1;" d="M 163.753906 78.609375 L 163.753906 71.476562 C 163.753906 71.328125 163.753906 71.179688 163.828125 71.027344 L 175.640625 44.90625 C 175.867188 44.382812 175.640625 43.707031 175.117188 43.480469 C 174.96875 43.40625 174.820312 43.40625 174.667969 43.40625 L 165.847656 43.40625 C 165.25 43.40625 164.726562 42.878906 164.726562 42.28125 L 164.726562 34.847656 C 164.726562 34.25 165.171875 33.722656 165.773438 33.722656 L 188.652344 33.722656 C 189.25 33.722656 189.773438 34.171875 189.773438 34.847656 L 189.773438 41.527344 C 189.773438 41.679688 189.773438 41.828125 189.699219 41.980469 L 177.882812 68.550781 C 177.660156 69.078125 177.960938 69.75 178.484375 69.976562 C 178.632812 70.050781 178.707031 70.050781 178.855469 70.050781 L 188.875 70.050781 C 189.472656 70.050781 189.996094 70.578125 189.996094 71.179688 L 189.996094 78.609375 C 189.996094 79.210938 189.472656 79.734375 188.875 79.734375 L 164.875 79.734375 C 164.277344 79.660156 163.753906 79.210938 163.753906 78.609375 Z M 163.753906 78.609375 "/>
<path style=" stroke:none;fill-rule:nonzero;fill:rgb(1.960784%,38.431373%,50.588235%);fill-opacity:1;" d="M 197.476562 119.59375 C 197.476562 135.636719 184.519531 148.640625 168.539062 148.640625 C 152.554688 148.640625 139.601562 135.636719 139.601562 119.59375 C 139.601562 103.550781 152.554688 90.542969 168.539062 90.542969 C 184.519531 90.542969 197.476562 103.550781 197.476562 119.59375 Z M 197.476562 119.59375 "/>
<path style=" stroke:none;fill-rule:nonzero;fill:rgb(100%,100%,100%);fill-opacity:1;" d="M 185.734375 113.886719 L 159.117188 113.738281 C 158.445312 113.664062 157.921875 113.136719 157.921875 112.386719 C 157.921875 111.710938 158.445312 111.261719 159.117188 111.183594 L 185.734375 111.335938 C 186.410156 111.410156 186.933594 111.9375 186.933594 112.6875 C 186.859375 113.363281 186.410156 113.886719 185.734375 113.886719 Z M 185.734375 113.886719 "/>
<path style=" stroke:none;fill-rule:nonzero;fill:rgb(100%,100%,100%);fill-opacity:1;" d="M 182.894531 122.445312 L 155.75 122.292969 C 155.378906 122.292969 155.152344 121.992188 155.152344 121.695312 C 155.152344 121.320312 155.453125 121.09375 155.75 121.09375 L 182.894531 121.242188 C 183.269531 121.242188 183.492188 121.542969 183.492188 121.84375 C 183.566406 122.21875 183.269531 122.445312 182.894531 122.445312 Z M 182.894531 122.445312 "/>
<path style=" stroke:none;fill-rule:nonzero;fill:rgb(100%,100%,100%);fill-opacity:1;" d="M 176.914062 118.765625 L 149.769531 118.617188 C 149.394531 118.617188 149.097656 118.390625 149.097656 118.015625 C 149.097656 117.640625 149.320312 117.339844 149.695312 117.339844 C 149.769531 117.339844 149.769531 117.339844 149.84375 117.339844 L 176.988281 117.492188 C 177.359375 117.492188 177.585938 117.867188 177.511719 118.164062 C 177.4375 118.542969 177.210938 118.765625 176.914062 118.765625 Z M 176.914062 118.765625 "/>
<path style=" stroke:none;fill-rule:nonzero;fill:rgb(100%,100%,100%);fill-opacity:1;" d="M 189.699219 125.746094 L 162.109375 125.597656 C 161.957031 125.597656 161.808594 125.445312 161.808594 125.296875 C 161.808594 125.148438 161.957031 124.996094 162.109375 124.996094 L 189.699219 125.222656 C 189.847656 125.222656 189.996094 125.371094 189.996094 125.523438 C 189.996094 125.597656 189.847656 125.746094 189.699219 125.746094 Z M 189.699219 125.746094 "/>
<path style=" stroke:none;fill-rule:nonzero;fill:rgb(100%,100%,100%);fill-opacity:1;" d="M 185.0625 131 L 158.445312 130.851562 C 157.921875 130.851562 157.546875 130.402344 157.546875 129.875 C 157.546875 129.351562 157.996094 128.976562 158.519531 128.976562 L 185.136719 129.125 C 185.660156 129.125 186.109375 129.5 186.109375 130.027344 C 186.109375 130.550781 185.734375 131 185.210938 131 C 185.136719 131 185.136719 131 185.0625 131 Z M 185.0625 131 "/>
<path style=" stroke:none;fill-rule:nonzero;fill:rgb(100%,100%,100%);fill-opacity:1;" d="M 156.914062 128.03125 C 156.726562 127.871094 156.117188 128.277344 155.554688 128.941406 C 154.992188 129.601562 154.691406 130.269531 154.878906 130.429688 C 155.066406 130.59375 155.675781 130.1875 156.238281 129.523438 C 156.800781 128.859375 157.105469 128.191406 156.914062 128.03125 Z M 156.914062 128.03125 "/>
<path style=" stroke:none;fill-rule:nonzero;fill:rgb(100%,100%,100%);fill-opacity:1;" d="M 156.1875 128.890625 C 155.621094 128.40625 155.035156 128.167969 154.871094 128.355469 C 154.710938 128.542969 155.039062 129.089844 155.605469 129.574219 C 156.171875 130.058594 156.761719 130.296875 156.921875 130.109375 C 157.082031 129.917969 156.753906 129.371094 156.1875 128.890625 Z M 156.1875 128.890625 "/>
<path style=" stroke:none;fill-rule:nonzero;fill:rgb(100%,100%,100%);fill-opacity:1;" d="M 157.226562 110.699219 C 157 110.355469 155.921875 110.667969 154.816406 111.398438 C 153.714844 112.132812 153.007812 113.003906 153.234375 113.351562 C 153.460938 113.695312 154.539062 113.382812 155.644531 112.652344 C 156.746094 111.917969 157.453125 111.046875 157.226562 110.699219 Z M 157.226562 110.699219 "/>
<path style=" stroke:none;fill-rule:nonzero;fill:rgb(100%,100%,100%);fill-opacity:1;" d="M 155.917969 111.570312 C 155.1875 110.464844 154.289062 109.769531 153.910156 110.023438 C 153.53125 110.273438 153.816406 111.375 154.542969 112.480469 C 155.273438 113.585938 156.171875 114.28125 156.550781 114.027344 C 156.929688 113.777344 156.644531 112.675781 155.917969 111.570312 Z M 155.917969 111.570312 "/>
<path style=" stroke:none;fill-rule:nonzero;fill:rgb(100%,100%,100%);fill-opacity:1;" d="M 154.019531 121.417969 C 153.671875 120.953125 153.3125 120.640625 153.210938 120.714844 C 153.113281 120.789062 153.316406 121.226562 153.660156 121.6875 C 154.007812 122.152344 154.371094 122.46875 154.46875 122.394531 C 154.570312 122.320312 154.367188 121.882812 154.019531 121.417969 Z M 154.019531 121.417969 "/>
<path style=" stroke:none;fill-rule:nonzero;fill:rgb(100%,100%,100%);fill-opacity:1;" d="M 154.484375 121.042969 C 154.386719 120.910156 154.011719 121.023438 153.648438 121.296875 C 153.285156 121.574219 153.070312 121.902344 153.167969 122.035156 C 153.269531 122.167969 153.644531 122.050781 154.007812 121.777344 C 154.371094 121.503906 154.582031 121.175781 154.484375 121.042969 Z M 154.484375 121.042969 "/>
<path style=" stroke:none;fill-rule:nonzero;fill:rgb(100%,100%,100%);fill-opacity:1;" d="M 146.730469 117.816406 C 146.402344 117.390625 146.03125 117.128906 145.898438 117.230469 C 145.769531 117.332031 145.929688 117.757812 146.257812 118.183594 C 146.585938 118.613281 146.957031 118.875 147.089844 118.773438 C 147.21875 118.671875 147.058594 118.246094 146.730469 117.816406 Z M 146.730469 117.816406 "/>
<path style=" stroke:none;fill-rule:nonzero;fill:rgb(100%,100%,100%);fill-opacity:1;" d="M 147.441406 117.265625 C 147.339844 117.136719 146.835938 117.359375 146.3125 117.765625 C 145.789062 118.167969 145.445312 118.605469 145.546875 118.734375 C 145.648438 118.867188 146.15625 118.644531 146.675781 118.238281 C 147.199219 117.832031 147.542969 117.398438 147.441406 117.265625 Z M 147.441406 117.265625 "/>
<path style=" stroke:none;fill-rule:nonzero;fill:rgb(100%,100%,100%);fill-opacity:1;" d="M 160.945312 125.132812 C 160.667969 124.773438 160.363281 124.542969 160.265625 124.617188 C 160.167969 124.695312 160.3125 125.046875 160.589844 125.410156 C 160.867188 125.769531 161.171875 126 161.269531 125.925781 C 161.371094 125.847656 161.222656 125.496094 160.945312 125.132812 Z M 160.945312 125.132812 "/>
<path style=" stroke:none;fill-rule:nonzero;fill:rgb(100%,100%,100%);fill-opacity:1;" d="M 161.417969 124.765625 C 161.320312 124.636719 160.945312 124.753906 160.585938 125.035156 C 160.226562 125.3125 160.015625 125.644531 160.117188 125.777344 C 160.21875 125.90625 160.59375 125.789062 160.953125 125.507812 C 161.3125 125.230469 161.519531 124.898438 161.417969 124.765625 Z M 161.417969 124.765625 "/>
<path style=" stroke:none;fill-rule:nonzero;fill:rgb(1.960784%,38.431373%,50.588235%);fill-opacity:1;" d="M 136.011719 119.59375 C 136.011719 135.636719 123.054688 148.640625 107.074219 148.640625 C 91.09375 148.640625 78.136719 135.636719 78.136719 119.59375 C 78.136719 103.550781 91.09375 90.542969 107.074219 90.542969 C 123.054688 90.542969 136.011719 103.550781 136.011719 119.59375 Z M 136.011719 119.59375 "/>
<path style=" stroke:none;fill-rule:nonzero;fill:rgb(100%,100%,100%);fill-opacity:1;" d="M 101.167969 129.199219 C 98.328125 129.199219 96.53125 128.222656 95.785156 126.273438 C 95.484375 127.398438 94.585938 128.523438 92.492188 128.523438 L 88.230469 128.523438 C 87.707031 128.523438 87.261719 128.074219 87.261719 127.546875 C 87.261719 127.023438 87.707031 126.574219 88.230469 126.574219 L 92.492188 126.574219 C 93.539062 126.574219 93.914062 126.273438 94.0625 125.296875 C 94.289062 123.796875 94.585938 117.640625 94.585938 117.566406 C 94.585938 117.039062 95.035156 116.664062 95.484375 116.664062 C 96.007812 116.664062 96.382812 117.039062 96.457031 117.492188 C 96.457031 117.566406 97.054688 123.195312 97.429688 124.996094 C 97.804688 126.949219 99.671875 127.171875 101.167969 127.25 L 101.390625 127.25 C 102.886719 126.949219 104.160156 126.121094 104.980469 124.921875 C 105.953125 123.269531 106.851562 116.363281 107.300781 112.6875 C 107.523438 111.109375 107.824219 105.480469 107.824219 105.40625 C 107.824219 104.878906 108.269531 104.503906 108.71875 104.503906 C 109.242188 104.503906 109.617188 104.804688 109.691406 105.332031 C 109.691406 105.332031 110.289062 110.058594 110.589844 112.988281 L 110.664062 113.886719 C 111.1875 118.617188 111.933594 125.148438 113.878906 126.574219 C 114.101562 126.796875 114.476562 126.871094 114.777344 126.796875 C 115.375 126.648438 116.570312 123.71875 117.167969 120.867188 C 117.09375 120.34375 117.46875 119.890625 117.917969 119.816406 C 118.214844 119.816406 118.8125 119.816406 119.039062 120.792969 C 119.859375 125.445312 120.90625 126.648438 121.207031 126.722656 C 122.777344 127.023438 124.347656 127.023438 125.917969 126.722656 C 126.441406 126.574219 126.890625 126.949219 127.039062 127.398438 C 127.1875 127.921875 126.816406 128.375 126.367188 128.523438 C 126.367188 128.523438 126.292969 128.523438 126.292969 128.523438 C 124.496094 128.824219 122.628906 128.824219 120.832031 128.449219 C 120.382812 128.375 119.1875 128.074219 118.066406 124.546875 C 117.394531 126.421875 116.421875 128.300781 115.074219 128.523438 C 114.253906 128.675781 113.429688 128.449219 112.757812 127.921875 C 110.289062 126.046875 109.542969 120.042969 108.871094 114.5625 C 108.195312 119.59375 107.523438 124.019531 106.550781 125.671875 C 105.355469 127.472656 103.484375 128.675781 101.316406 128.976562 Z M 101.167969 129.199219 "/>
<path style=" stroke:none;fill-rule:nonzero;fill:rgb(1.960784%,38.431373%,50.588235%);fill-opacity:1;" d="M 74.625 119.59375 C 74.625 135.636719 61.667969 148.640625 45.6875 148.640625 C 29.703125 148.640625 16.75 135.636719 16.75 119.59375 C 16.75 103.550781 29.703125 90.542969 45.6875 90.542969 C 61.667969 90.542969 74.625 103.550781 74.625 119.59375 Z M 74.625 119.59375 "/>
<path style=" stroke:none;fill-rule:nonzero;fill:rgb(100%,100%,100%);fill-opacity:1;" d="M 47.628906 121.917969 L 32.078125 129.351562 L 31.851562 110.585938 L 46.734375 102.476562 Z M 47.628906 121.917969 "/>
<path style=" stroke:none;fill-rule:nonzero;fill:rgb(1.960784%,38.431373%,50.588235%);fill-opacity:1;" d="M 36.753906 114.085938 C 36.539062 113.964844 36.027344 114.492188 35.609375 115.253906 C 35.195312 116.019531 35.039062 116.734375 35.253906 116.855469 C 35.472656 116.972656 35.984375 116.449219 36.398438 115.683594 C 36.8125 114.921875 36.972656 114.203125 36.753906 114.085938 Z M 36.753906 114.085938 "/>
<path style=" stroke:none;fill-rule:nonzero;fill:rgb(1.960784%,38.431373%,50.588235%);fill-opacity:1;" d="M 36.21875 115.074219 C 35.566406 114.71875 34.941406 114.605469 34.824219 114.824219 C 34.703125 115.042969 35.136719 115.507812 35.789062 115.867188 C 36.445312 116.222656 37.070312 116.335938 37.1875 116.117188 C 37.304688 115.898438 36.871094 115.429688 36.21875 115.074219 Z M 36.21875 115.074219 "/>
<path style=" stroke:none;fill-rule:nonzero;fill:rgb(1.960784%,38.431373%,50.588235%);fill-opacity:1;" d="M 45.175781 116.203125 C 45.082031 115.800781 43.960938 115.71875 42.675781 116.023438 C 41.386719 116.324219 40.421875 116.898438 40.515625 117.300781 C 40.609375 117.703125 41.730469 117.785156 43.015625 117.484375 C 44.300781 117.179688 45.269531 116.609375 45.175781 116.203125 Z M 45.175781 116.203125 "/>
<path style=" stroke:none;fill-rule:nonzero;fill:rgb(1.960784%,38.431373%,50.588235%);fill-opacity:1;" d="M 43.644531 116.5625 C 43.34375 115.273438 42.742188 114.308594 42.296875 114.414062 C 41.855469 114.519531 41.742188 115.648438 42.042969 116.941406 C 42.347656 118.234375 42.949219 119.195312 43.390625 119.089844 C 43.835938 118.988281 43.949219 117.855469 43.644531 116.5625 Z M 43.644531 116.5625 "/>
<path style=" stroke:none;fill-rule:nonzero;fill:rgb(1.960784%,38.431373%,50.588235%);fill-opacity:1;" d="M 35.5625 123.371094 C 35.035156 123.136719 34.566406 123.035156 34.515625 123.148438 C 34.464844 123.261719 34.851562 123.546875 35.378906 123.785156 C 35.910156 124.019531 36.378906 124.121094 36.429688 124.007812 C 36.476562 123.894531 36.089844 123.609375 35.5625 123.371094 Z M 35.5625 123.371094 "/>
<path style=" stroke:none;fill-rule:nonzero;fill:rgb(1.960784%,38.431373%,50.588235%);fill-opacity:1;" d="M 35.851562 122.855469 C 35.699219 122.785156 35.429688 123.070312 35.242188 123.484375 C 35.058594 123.902344 35.027344 124.292969 35.179688 124.363281 C 35.332031 124.429688 35.601562 124.148438 35.789062 123.730469 C 35.972656 123.316406 36.003906 122.921875 35.851562 122.855469 Z M 35.851562 122.855469 "/>
<path style=" stroke:none;fill-rule:nonzero;fill:rgb(1.960784%,38.431373%,50.588235%);fill-opacity:1;" d="M 41.621094 110.675781 C 41.226562 110.308594 40.816406 110.113281 40.703125 110.234375 C 40.589844 110.359375 40.820312 110.753906 41.21875 111.117188 C 41.613281 111.480469 42.023438 111.675781 42.136719 111.554688 C 42.246094 111.433594 42.015625 111.039062 41.621094 110.675781 Z M 41.621094 110.675781 "/>
<path style=" stroke:none;fill-rule:nonzero;fill:rgb(1.960784%,38.431373%,50.588235%);fill-opacity:1;" d="M 42.226562 110.011719 C 42.105469 109.898438 41.644531 110.203125 41.199219 110.691406 C 40.75 111.179688 40.488281 111.667969 40.609375 111.78125 C 40.730469 111.890625 41.191406 111.585938 41.640625 111.097656 C 42.085938 110.609375 42.347656 110.121094 42.226562 110.011719 Z M 42.226562 110.011719 "/>
<path style=" stroke:none;fill-rule:nonzero;fill:rgb(1.960784%,38.431373%,50.588235%);fill-opacity:1;" d="M 37.613281 111.40625 C 37.339844 111.152344 37.050781 111.023438 36.96875 111.113281 C 36.882812 111.207031 37.039062 111.484375 37.3125 111.738281 C 37.585938 111.988281 37.875 112.121094 37.957031 112.027344 C 38.042969 111.9375 37.886719 111.65625 37.613281 111.40625 Z M 37.613281 111.40625 "/>
<path style=" stroke:none;fill-rule:nonzero;fill:rgb(1.960784%,38.431373%,50.588235%);fill-opacity:1;" d="M 37.917969 111.074219 C 37.828125 110.988281 37.546875 111.144531 37.296875 111.417969 C 37.046875 111.695312 36.917969 111.984375 37.007812 112.070312 C 37.097656 112.152344 37.375 112 37.628906 111.722656 C 37.878906 111.449219 38.007812 111.15625 37.917969 111.074219 Z M 37.917969 111.074219 "/>
<path style=" stroke:none;fill-rule:nonzero;fill:rgb(1.960784%,38.431373%,50.588235%);fill-opacity:1;" d="M 38.300781 119.761719 C 38.015625 119.40625 37.707031 119.179688 37.609375 119.257812 C 37.515625 119.335938 37.667969 119.6875 37.949219 120.042969 C 38.234375 120.398438 38.542969 120.621094 38.640625 120.546875 C 38.738281 120.46875 38.585938 120.117188 38.300781 119.761719 Z M 38.300781 119.761719 "/>
<path style=" stroke:none;fill-rule:nonzero;fill:rgb(1.960784%,38.431373%,50.588235%);fill-opacity:1;" d="M 38.765625 119.382812 C 38.664062 119.253906 38.292969 119.382812 37.9375 119.667969 C 37.582031 119.953125 37.378906 120.289062 37.484375 120.417969 C 37.585938 120.546875 37.957031 120.421875 38.3125 120.136719 C 38.667969 119.851562 38.871094 119.511719 38.765625 119.382812 Z M 38.765625 119.382812 "/>
<path style=" stroke:none;fill-rule:nonzero;fill:rgb(100%,100%,100%);fill-opacity:1;" d="M 38.730469 133.027344 C 38.058594 133.027344 37.535156 132.425781 37.535156 131.75 C 37.535156 131.300781 37.835938 130.925781 38.207031 130.699219 L 51.667969 124.546875 L 50.996094 107.65625 C 50.921875 106.980469 51.445312 106.382812 52.191406 106.304688 C 52.863281 106.230469 53.460938 106.757812 53.539062 107.433594 C 53.539062 107.433594 53.539062 107.507812 53.539062 107.507812 L 54.210938 125.296875 C 54.210938 125.820312 53.910156 126.273438 53.460938 126.496094 L 39.253906 133.027344 C 39.105469 133.027344 38.882812 133.027344 38.730469 133.027344 Z M 38.730469 133.027344 "/>
<path style=" stroke:none;fill-rule:nonzero;fill:rgb(100%,100%,100%);fill-opacity:1;" d="M 47.480469 136.253906 C 46.808594 136.253906 46.210938 135.730469 46.210938 134.980469 C 46.210938 134.527344 46.433594 134.078125 46.882812 133.855469 L 58.25 128.148438 L 57.648438 112.988281 C 57.648438 112.3125 58.171875 111.710938 58.847656 111.710938 C 59.519531 111.710938 60.117188 112.234375 60.117188 112.910156 L 60.714844 128.898438 C 60.714844 129.425781 60.492188 129.875 60.042969 130.027344 L 48.003906 136.105469 C 47.855469 136.253906 47.707031 136.253906 47.480469 136.253906 Z M 47.480469 136.253906 "/>
</g>
</svg>
