<svg id="Layer_1" data-name="Layer 1" xmlns="http://www.w3.org/2000/svg" viewBox="0 0 286.21 221.08"><defs><style>.cls-1{fill:#056281;}.cls-2{fill:#007da4;}.cls-3{fill:#fff;}</style></defs><title>viz logos [Recovered]</title><path class="cls-1" d="M25.28,108.25a1.47,1.47,0,0,1-1.46-1.46V95.05h1q5.22,0,7.19-1.61,2.18-1.75,2.17-7.09V21.82a1.47,1.47,0,0,1,1.46-1.46h16a1.47,1.47,0,0,1,1.46,1.46V87.08a41.36,41.36,0,0,1-1.06,9.29,16.82,16.82,0,0,1-3.21,6.52A12.91,12.91,0,0,1,42.71,107a30.68,30.68,0,0,1-9.67,1.3Z"/><path class="cls-1" d="M57.32,88.16V63.27q0-8.75,3.64-14.08a12,12,0,0,1,10.55-5.33A17.25,17.25,0,0,1,81.25,47a1.45,1.45,0,0,0,2.26-1.21V21.82A1.46,1.46,0,0,1,85,20.36H99.34a1.47,1.47,0,0,1,1.46,1.46v82.9a1.47,1.47,0,0,1-1.46,1.46H85a1.46,1.46,0,0,1-1.46-1.46h0a1.46,1.46,0,0,0-2.35-1.15,15.79,15.79,0,0,1-9.61,3.69q-6.93,0-10.58-4.81T57.32,88.16ZM74.61,89.3a10.29,10.29,0,0,0,1,4.92A3.51,3.51,0,0,0,79,96.14a8.81,8.81,0,0,0,3.69-1.06,1.48,1.48,0,0,0,.84-1.33V57a1.51,1.51,0,0,0-.86-1.34,8.16,8.16,0,0,0-3.57-.88,3.66,3.66,0,0,0-3.38,1.84,9.24,9.24,0,0,0-1.09,4.78Z"/><path class="cls-1" d="M104.72,92.45a19,19,0,0,1,.8-5.64,21.32,21.32,0,0,1,1.92-4.55,16.13,16.13,0,0,1,3.16-3.74,35.67,35.67,0,0,1,3.69-2.93,31.33,31.33,0,0,1,4.37-2.39c1.81-.85,3.27-1.49,4.37-1.9s2.6-1,4.48-1.64c1.26-.45,2.25-.82,3-1.1a1.46,1.46,0,0,0,.93-1.36V62.1a8.34,8.34,0,0,0-.78-4,2.92,2.92,0,0,0-2.83-1.4c-2.33,0-3.57,1.62-3.7,4.88l-.29,3.15a1.45,1.45,0,0,1-1.5,1.32l-16.19-.57c0-.11,0-.45.06-1s0-.82.06-.94v-.1q.87-10,6.64-14.78t16.57-4.76q9.41,0,14.33,5t4.91,13.42V90.94a131,131,0,0,0,.91,13.61,1.47,1.47,0,0,1-1.45,1.63H135a1.47,1.47,0,0,1-1.43-1.2c-.21-1.07-.39-2-.54-2.87a1.45,1.45,0,0,0-2.62-.57,15,15,0,0,1-2.62,3,11.78,11.78,0,0,1-8,2.76,14.42,14.42,0,0,1-11-4.58A14.78,14.78,0,0,1,104.72,92.45ZM122,89a7.69,7.69,0,0,0,1.34,4.78,4.07,4.07,0,0,0,3.39,1.76,4.64,4.64,0,0,0,2.55-.85A7.76,7.76,0,0,0,131.13,93a1.43,1.43,0,0,0,.3-.89V78.34a1.47,1.47,0,0,0-2.31-1.19,18.17,18.17,0,0,0-4.46,4.46A12.83,12.83,0,0,0,122,89Z"/><path class="cls-2" d="M152.42,44.9h13.5a1.47,1.47,0,0,1,1.45,1.27l3.35,26.22a1.46,1.46,0,0,0,2.9,0l3.11-26.2a1.46,1.46,0,0,1,1.45-1.28H191.6A1.46,1.46,0,0,1,193,46.65L181.16,105a1.47,1.47,0,0,1-1.43,1.17H164.05a1.47,1.47,0,0,1-1.43-1.18L151,46.64A1.46,1.46,0,0,1,152.42,44.9Z"/><path class="cls-2" d="M197.32,33.14V23.89a1.46,1.46,0,0,1,1.46-1.46h14.47a1.46,1.46,0,0,1,1.46,1.46v9.25a1.46,1.46,0,0,1-1.46,1.46H198.78A1.46,1.46,0,0,1,197.32,33.14Zm.1,71.58V46.35a1.46,1.46,0,0,1,1.46-1.45h14.37a1.45,1.45,0,0,1,1.46,1.45v58.37a1.46,1.46,0,0,1-1.46,1.46H198.88A1.47,1.47,0,0,1,197.42,104.72Z"/><path class="cls-2" d="M219,104.72V95.18a1.42,1.42,0,0,1,.13-.61l15.8-34.78a1.46,1.46,0,0,0-1.33-2.06H221.76a1.46,1.46,0,0,1-1.46-1.46V46.35a1.45,1.45,0,0,1,1.46-1.45h30.57a1.46,1.46,0,0,1,1.46,1.45v8.91a1.38,1.38,0,0,1-.13.6L237.88,91.29a1.46,1.46,0,0,0,1.34,2h13.37a1.46,1.46,0,0,1,1.46,1.46v9.92a1.47,1.47,0,0,1-1.46,1.46H220.47A1.46,1.46,0,0,1,219,104.72Z"/><circle class="cls-1" cx="225.39" cy="159.3" r="38.67"/><path class="cls-3" d="M247.08,149.92,212,155.77a1.67,1.67,0,0,1-.55-3.29l35.12-5.85a1.67,1.67,0,0,1,.55,3.29Z"/><path class="cls-3" d="M245.35,161.79l-35.83,6a.83.83,0,1,1-.28-1.64l35.83-6a.83.83,0,0,1,.28,1.64Z"/><path class="cls-3" d="M236.56,158.29l-35.83,6a.84.84,0,1,1-.27-1.65l35.83-6a.84.84,0,0,1,.27,1.65Z"/><path class="cls-3" d="M255,164.53l-36.36,6.06a.42.42,0,0,1-.14-.83l36.37-6a.42.42,0,0,1,.48.34A.43.43,0,0,1,255,164.53Z"/><path class="cls-3" d="M250.08,172.52,215,178.37a1.25,1.25,0,0,1-.41-2.47l35.12-5.84a1.25,1.25,0,1,1,.41,2.46Z"/><ellipse class="cls-3" cx="211.66" cy="177.65" rx="2.07" ry="0.58" transform="matrix(0.51, -0.86, 0.86, 0.51, -49.42, 268.19)"/><ellipse class="cls-3" cx="211.66" cy="177.65" rx="0.6" ry="1.83" transform="matrix(0.51, -0.86, 0.86, 0.51, -49.42, 268.19)"/><ellipse class="cls-3" cx="206.52" cy="154.36" rx="3.2" ry="1.02" transform="translate(-49.67 183.43) rotate(-43.25)"/><ellipse class="cls-3" cx="206.52" cy="154.36" rx="1.06" ry="3.25" transform="translate(-49.67 183.43) rotate(-43.25)"/><ellipse class="cls-3" cx="206.79" cy="167.14" rx="0.34" ry="1.36" transform="translate(-56.68 202.9) rotate(-46.68)"/><ellipse class="cls-3" cx="206.76" cy="167.16" rx="1.1" ry="0.36" transform="translate(-56.71 202.89) rotate(-46.68)"/><ellipse class="cls-3" cx="196.29" cy="164.15" rx="0.41" ry="1.29" transform="translate(-57.37 197.81) rotate(-47.46)"/><ellipse class="cls-3" cx="196.29" cy="164.15" rx="1.59" ry="0.43" transform="translate(-57.37 197.81) rotate(-47.46)"/><ellipse class="cls-3" cx="216.73" cy="170.48" rx="0.34" ry="1.08" transform="translate(-55.41 214.92) rotate(-47.46)"/><ellipse class="cls-3" cx="216.73" cy="170.48" rx="1.1" ry="0.36" transform="translate(-55.41 214.92) rotate(-47.46)"/><circle class="cls-1" cx="143.24" cy="159.3" r="38.67"/><path class="cls-3" d="M134.83,171.87c-3.78-.1-6.15-1.46-7.06-4.05-.49,1.52-1.69,3-4.5,2.91l-5.69-.14a1.25,1.25,0,0,1,.07-2.5l5.68.14c1.41,0,1.94-.36,2.17-1.65.36-2,.94-10.21.94-10.29a1.25,1.25,0,0,1,1.25-1.16,1.24,1.24,0,0,1,1.25,1.16c0,.07.58,7.65,1,10,.47,2.63,2.87,3,4.94,3.1h.27a7.7,7.7,0,0,0,4.93-3c1.37-2.16,2.78-11.32,3.54-16.24.32-2.05.95-9.61,1-9.68a1.24,1.24,0,0,1,1.24-1.15,1.22,1.22,0,0,1,1.25,1.13s.6,6.34.94,10.21l.11,1.25c.55,6.33,1.3,15,3.84,17.06a1.54,1.54,0,0,0,1.23.35c.84-.22,2.51-4,3.44-7.78a1.23,1.23,0,0,1,1.1-1.36c.37,0,1.23,0,1.42,1.33.92,6.23,2.27,7.9,2.7,8a18.25,18.25,0,0,0,6.27.21,1.25,1.25,0,1,1,.36,2.47,20.42,20.42,0,0,1-7.28-.27c-.62-.16-2.22-.6-3.54-5.28-1,2.51-2.38,4.91-4.16,5.14a4,4,0,0,1-3.11-.89c-3.24-2.61-4-10.59-4.69-17.9-1.06,6.7-2.15,12.58-3.51,14.72a9.89,9.89,0,0,1-7.11,4.18h-.25Z"/><circle class="cls-1" cx="61.1" cy="159.3" r="38.67"/><polygon class="cls-3" points="64.14 161.92 45.09 174.94 40.98 150.26 59.07 136.55 64.14 161.92"/><ellipse class="cls-1" cx="47.5" cy="155.86" rx="2.07" ry="0.58" transform="translate(-115.23 147.67) rotate(-70.17)"/><ellipse class="cls-1" cx="47.5" cy="155.86" rx="0.6" ry="1.83" transform="translate(-115.23 147.67) rotate(-70.17)"/><ellipse class="cls-1" cx="56.81" cy="156.12" rx="3.2" ry="1.02" transform="translate(-54.17 32.49) rotate(-21.92)"/><ellipse class="cls-1" cx="56.81" cy="156.12" rx="1.06" ry="3.25" transform="translate(-54.17 32.49) rotate(-21.92)"/><ellipse class="cls-1" cx="48.46" cy="166.66" rx="0.34" ry="1.36" transform="translate(-125.09 169.08) rotate(-74.59)"/><ellipse class="cls-1" cx="48.45" cy="166.69" rx="1.1" ry="0.36" transform="translate(-125.13 169.09) rotate(-74.59)"/><ellipse class="cls-1" cx="55.42" cy="147.71" rx="0.41" ry="1.29" transform="translate(-90.89 88.68) rotate(-47.46)"/><ellipse class="cls-1" cx="55.42" cy="147.71" rx="1.59" ry="0.43" transform="translate(-90.89 88.68) rotate(-47.46)"/><ellipse class="cls-1" cx="50.12" cy="148.59" rx="0.29" ry="0.91" transform="translate(-93.25 85.07) rotate(-47.46)"/><ellipse class="cls-1" cx="50.12" cy="148.59" rx="0.92" ry="0.3" transform="translate(-93.25 85.07) rotate(-47.46)"/><ellipse class="cls-1" cx="51.18" cy="161.23" rx="0.34" ry="1.08" transform="translate(-102.22 89.94) rotate(-47.46)"/><ellipse class="cls-1" cx="51.18" cy="161.23" rx="1.1" ry="0.36" transform="translate(-102.22 89.94) rotate(-47.46)"/><path class="cls-3" d="M54.64,178.39a1.67,1.67,0,0,1-1.19-3L70,164.52l-4.26-22.13a1.67,1.67,0,0,1,1.32-2,1.64,1.64,0,0,1,2,1.33L73.49,165a1.67,1.67,0,0,1-.72,1.71l-17.5,11.45A1.49,1.49,0,0,1,54.64,178.39Z"/><path class="cls-3" d="M66.86,180.89a1.67,1.67,0,0,1-1.24-3l13.83-9.83-3.81-19.87A1.67,1.67,0,0,1,77,146.24h0a1.67,1.67,0,0,1,1.91,1.33l4,20.92a1.67,1.67,0,0,1-.67,1.67L67.56,180.6A1.59,1.59,0,0,1,66.86,180.89Z"/></svg>