<?xml version="1.0" encoding="utf-8"?>
<!-- Generator: Adobe Illustrator 24.2.1, SVG Export Plug-In . SVG Version: 6.00 Build 0)  -->
<svg version="1.1" id="Layer_1" xmlns="http://www.w3.org/2000/svg" xmlns:xlink="http://www.w3.org/1999/xlink" x="0px" y="0px"
	 viewBox="0 0 286.2 221.1" style="enable-background:new 0 0 286.2 221.1;" xml:space="preserve">
<style type="text/css">
	.st0{fill:#056281;}
	.st1{fill:#007DA4;}
	.st2{fill:#FFFFFF;}
</style>
<path class="st0" d="M25.3,108.2c-0.8,0-1.5-0.7-1.5-1.5V95.1h1c3.5,0,5.9-0.5,7.2-1.6c1.5-1.2,2.2-3.5,2.2-7.1V21.8
	c0-0.8,0.7-1.5,1.5-1.5h16c0.8,0,1.5,0.7,1.5,1.5v65.3c0,3.1-0.4,6.2-1.1,9.3c-0.6,2.4-1.7,4.6-3.2,6.5c-1.6,1.9-3.7,3.4-6.1,4.1
	c-3.1,0.9-6.4,1.4-9.7,1.3L25.3,108.2z"/>
<path class="st0" d="M57.3,88.2V63.3c0-5.8,1.2-10.5,3.6-14.1c2.3-3.5,6.3-5.5,10.6-5.3c3.5,0,6.9,1.1,9.7,3.1
	c0.7,0.4,1.6,0.3,2-0.4c0.2-0.2,0.2-0.5,0.2-0.8v-24c0-0.8,0.7-1.5,1.5-1.5c0,0,0,0,0,0h14.3c0.8,0,1.5,0.7,1.5,1.5v82.9
	c0,0.8-0.7,1.5-1.5,1.5H85c-0.8,0-1.5-0.7-1.5-1.5l0,0c0-0.8-0.7-1.5-1.5-1.5c-0.3,0-0.6,0.1-0.9,0.3c-2.7,2.3-6.1,3.6-9.6,3.7
	c-4.6,0-8.1-1.6-10.6-4.8S57.3,94.5,57.3,88.2z M74.6,89.3c-0.1,1.7,0.3,3.4,1,4.9c0.6,1.3,2,2,3.4,1.9c1.3-0.1,2.6-0.4,3.7-1.1
	c0.5-0.2,0.8-0.8,0.8-1.3V57c0-0.6-0.3-1.1-0.9-1.3c-1.1-0.6-2.3-0.9-3.6-0.9c-1.4-0.1-2.7,0.6-3.4,1.8c-0.8,1.5-1.2,3.1-1.1,4.8
	L74.6,89.3z"/>
<path class="st0" d="M104.7,92.4c0-1.9,0.3-3.8,0.8-5.6c0.5-1.6,1.1-3.1,1.9-4.6c0.9-1.4,1.9-2.7,3.2-3.7c1.2-1.1,2.4-2,3.7-2.9
	c1.4-0.9,2.9-1.7,4.4-2.4c1.8-0.8,3.3-1.5,4.4-1.9s2.6-1,4.5-1.6c1.3-0.4,2.2-0.8,3-1.1c0.6-0.2,0.9-0.8,0.9-1.4v-5.1
	c0.1-1.4-0.2-2.8-0.8-4c-0.6-1-1.7-1.5-2.8-1.4c-2.3,0-3.6,1.6-3.7,4.9l-0.3,3.1c-0.1,0.8-0.7,1.3-1.5,1.3l-16.2-0.6
	c0-0.1,0-0.4,0.1-1s0-0.8,0.1-0.9v-0.1c0.6-6.7,2.8-11.6,6.6-14.8c3.8-3.2,9.4-4.8,16.6-4.8c6.3,0,11.1,1.7,14.3,5
	c3.3,3.3,4.9,7.8,4.9,13.4v28.6c0.1,4.5,0.4,9.1,0.9,13.6c0.1,0.8-0.5,1.5-1.3,1.6c0,0-0.1,0-0.1,0H135c-0.7,0-1.3-0.5-1.4-1.2
	c-0.2-1.1-0.4-2-0.5-2.9c-0.1-0.8-0.9-1.3-1.7-1.2c-0.4,0.1-0.7,0.3-0.9,0.6c-0.7,1.1-1.6,2.1-2.6,3c-2.2,1.9-5.1,2.9-8,2.8
	c-4.2,0.1-8.2-1.5-11-4.6C106.2,100,104.7,96.3,104.7,92.4z M122,89c-0.1,1.7,0.4,3.4,1.3,4.8c0.8,1.1,2,1.8,3.4,1.8
	c0.9,0,1.8-0.3,2.6-0.8c0.7-0.5,1.3-1,1.9-1.7c0.2-0.3,0.3-0.6,0.3-0.9V78.3c0-0.8-0.7-1.5-1.5-1.5c-0.3,0-0.6,0.1-0.8,0.3
	c-1.7,1.2-3.2,2.7-4.5,4.5C123,83.7,122.1,86.3,122,89z"/>
<path class="st1" d="M152.4,44.9h13.5c0.7,0,1.4,0.5,1.4,1.3l3.4,26.2c0.1,0.8,0.8,1.4,1.6,1.3c0.7-0.1,1.2-0.6,1.3-1.3l3.1-26.2
	c0.1-0.7,0.7-1.3,1.4-1.3h13.4c0.8,0,1.4,0.7,1.4,1.5c0,0.1,0,0.2,0,0.2L181.2,105c-0.1,0.7-0.7,1.2-1.4,1.2h-15.7
	c-0.7,0-1.3-0.5-1.4-1.2L151,46.6c-0.2-0.8,0.4-1.6,1.2-1.7C152.2,44.9,152.3,44.9,152.4,44.9z"/>
<path class="st1" d="M197.3,33.1v-9.2c0-0.8,0.7-1.5,1.5-1.5l0,0h14.5c0.8,0,1.5,0.7,1.5,1.5c0,0,0,0,0,0v9.2c0,0.8-0.7,1.5-1.5,1.5
	l0,0h-14.5C198,34.6,197.3,33.9,197.3,33.1z M197.4,104.7V46.3c0-0.8,0.7-1.5,1.5-1.5h14.4c0.8,0,1.5,0.6,1.5,1.4c0,0,0,0,0,0v58.4
	c0,0.8-0.7,1.5-1.5,1.5l0,0h-14.4C198.1,106.2,197.4,105.5,197.4,104.7L197.4,104.7z"/>
<path class="st1" d="M219,104.7v-9.5c0-0.2,0-0.4,0.1-0.6l15.8-34.8c0.3-0.7,0-1.6-0.7-1.9c-0.2-0.1-0.4-0.1-0.6-0.1h-11.8
	c-0.8,0-1.5-0.7-1.5-1.5v0v-9.9c0-0.8,0.6-1.5,1.4-1.5c0,0,0,0,0,0h30.6c0.8,0,1.5,0.6,1.5,1.5v8.9c0,0.2,0,0.4-0.1,0.6l-15.8,35.4
	c-0.3,0.7,0.1,1.6,0.8,1.9c0.2,0.1,0.3,0.1,0.5,0.1h13.4c0.8,0,1.5,0.7,1.5,1.5c0,0,0,0,0,0v9.9c0,0.8-0.7,1.5-1.5,1.5h-32.1
	C219.7,106.1,219,105.5,219,104.7z"/>
<circle class="st0" cx="225.4" cy="159.3" r="38.7"/>
<path class="st2" d="M248.4,151.7l-35.6-0.2c-0.9-0.1-1.6-0.8-1.6-1.8c0-0.9,0.7-1.5,1.6-1.6l35.6,0.2c0.9,0.1,1.6,0.8,1.6,1.8
	C249.9,151,249.3,151.7,248.4,151.7L248.4,151.7z"/>
<path class="st2" d="M244.6,163.1l-36.3-0.2c-0.5,0-0.8-0.4-0.8-0.8c0-0.5,0.4-0.8,0.8-0.8l36.3,0.2c0.5,0,0.8,0.4,0.8,0.8
	C245.5,162.8,245.1,163.1,244.6,163.1L244.6,163.1z"/>
<path class="st2" d="M236.6,158.2l-36.3-0.2c-0.5,0-0.9-0.3-0.9-0.8c0-0.5,0.3-0.9,0.8-0.9c0.1,0,0.1,0,0.2,0l36.3,0.2
	c0.5,0,0.8,0.5,0.7,0.9C237.3,157.9,237,158.2,236.6,158.2z"/>
<path class="st2" d="M253.7,167.5l-36.9-0.2c-0.2,0-0.4-0.2-0.4-0.4c0-0.2,0.2-0.4,0.4-0.4l36.9,0.3c0.2,0,0.4,0.2,0.4,0.4
	C254.1,167.3,253.9,167.5,253.7,167.5z"/>
<path class="st2" d="M247.5,174.5l-35.6-0.2c-0.7,0-1.2-0.6-1.2-1.3s0.6-1.2,1.3-1.2l35.6,0.2c0.7,0,1.3,0.5,1.3,1.2
	c0,0.7-0.5,1.3-1.2,1.3C247.6,174.5,247.6,174.5,247.5,174.5L247.5,174.5z"/>
<ellipse transform="matrix(0.6486 -0.7611 0.7611 0.6486 -57.7242 219.2078)" class="st2" cx="208.5" cy="172.1" rx="2.1" ry="0.6"/>
<ellipse transform="matrix(0.6486 -0.7611 0.7611 0.6486 -57.7242 219.2078)" class="st2" cx="208.5" cy="172.1" rx="0.6" ry="1.8"/>
<ellipse transform="matrix(0.8341 -0.5517 0.5517 0.8341 -47.8704 139.3045)" class="st2" cx="207.6" cy="149.2" rx="3.2" ry="1"/>
<ellipse transform="matrix(0.8341 -0.5517 0.5517 0.8341 -47.8704 139.3045)" class="st2" cx="207.6" cy="149.2" rx="1.1" ry="3.2"/>
<ellipse transform="matrix(0.7996 -0.6006 0.6006 0.7996 -55.9701 156.0015)" class="st2" cx="205.7" cy="161.9" rx="0.3" ry="1.4"/>
<ellipse transform="matrix(0.7996 -0.6006 0.6006 0.7996 -55.9896 155.9814)" class="st2" cx="205.7" cy="161.9" rx="1.1" ry="0.4"/>
<ellipse transform="matrix(0.7913 -0.6114 0.6114 0.7913 -55.2087 152.5623)" class="st2" cx="195.9" cy="157.2" rx="0.4" ry="1.3"/>
<ellipse transform="matrix(0.7913 -0.6114 0.6114 0.7913 -55.2087 152.5623)" class="st2" cx="195.9" cy="157.2" rx="1.6" ry="0.4"/>
<ellipse transform="matrix(0.7913 -0.6114 0.6114 0.7913 -57.163 166.2494)" class="st2" cx="215" cy="166.9" rx="0.3" ry="1.1"/>
<ellipse transform="matrix(0.7913 -0.6114 0.6114 0.7913 -57.163 166.2494)" class="st2" cx="215" cy="166.9" rx="1.1" ry="0.4"/>
<circle class="st0" cx="143.2" cy="159.3" r="38.7"/>
<path class="st2" d="M135.3,172.1c-3.8,0-6.2-1.3-7.2-3.9c-0.4,1.5-1.6,3-4.4,3l-5.7,0c-0.7,0-1.3-0.6-1.3-1.3
	c0-0.7,0.6-1.3,1.3-1.3l5.7,0c1.4,0,1.9-0.4,2.1-1.7c0.3-2,0.7-10.2,0.7-10.3c0-0.7,0.6-1.2,1.2-1.2c0.7,0,1.2,0.5,1.3,1.1
	c0,0.1,0.8,7.6,1.3,10c0.5,2.6,3,2.9,5,3l0.3,0c2-0.4,3.7-1.5,4.8-3.1c1.3-2.2,2.5-11.4,3.1-16.3c0.3-2.1,0.7-9.6,0.7-9.7
	c0-0.7,0.6-1.2,1.2-1.2c0.7,0,1.2,0.4,1.3,1.1c0,0,0.8,6.3,1.2,10.2l0.1,1.2c0.7,6.3,1.7,15,4.3,16.9c0.3,0.3,0.8,0.4,1.2,0.3
	c0.8-0.2,2.4-4.1,3.2-7.9c-0.1-0.7,0.4-1.3,1-1.4c0,0,0,0,0,0c0.4,0,1.2,0,1.5,1.3c1.1,6.2,2.5,7.8,2.9,7.9c2.1,0.4,4.2,0.4,6.3,0
	c0.7-0.2,1.3,0.3,1.5,0.9c0.2,0.7-0.3,1.3-0.9,1.5c0,0-0.1,0-0.1,0c-2.4,0.4-4.9,0.4-7.3-0.1c-0.6-0.1-2.2-0.5-3.7-5.2
	c-0.9,2.5-2.2,5-4,5.3c-1.1,0.2-2.2-0.1-3.1-0.8c-3.3-2.5-4.3-10.5-5.2-17.8c-0.9,6.7-1.8,12.6-3.1,14.8c-1.6,2.4-4.1,4-7,4.4
	L135.3,172.1L135.3,172.1z"/>
<circle class="st0" cx="61.1" cy="159.3" r="38.7"/>
<polygon class="st2" points="63.7,162.4 42.9,172.3 42.6,147.3 62.5,136.5 "/>
<ellipse transform="matrix(0.4779 -0.8784 0.8784 0.4779 -109.9799 122.6465)" class="st0" cx="48.2" cy="153.8" rx="2.1" ry="0.6"/>
<ellipse transform="matrix(0.4779 -0.8784 0.8784 0.4779 -109.9799 122.6465)" class="st0" cx="48.2" cy="153.8" rx="0.6" ry="1.8"/>
<ellipse transform="matrix(0.9736 -0.2284 0.2284 0.9736 -34.003 17.2096)" class="st0" cx="57.3" cy="155.5" rx="3.2" ry="1"/>
<ellipse transform="matrix(0.9736 -0.2284 0.2284 0.9736 -34.003 17.2096)" class="st0" cx="57.3" cy="155.5" rx="1.1" ry="3.2"/>
<ellipse transform="matrix(0.4087 -0.9126 0.9126 0.4087 -122.187 140.6872)" class="st0" cx="47.5" cy="164.6" rx="0.3" ry="1.4"/>
<ellipse transform="matrix(0.4087 -0.9126 0.9126 0.4087 -122.2206 140.6859)" class="st0" cx="47.5" cy="164.7" rx="1.1" ry="0.4"/>
<ellipse transform="matrix(0.6761 -0.7368 0.7368 0.6761 -90.8882 88.6726)" class="st0" cx="55.4" cy="147.7" rx="0.4" ry="1.3"/>
<ellipse transform="matrix(0.6761 -0.7368 0.7368 0.6761 -90.8882 88.6726)" class="st0" cx="55.4" cy="147.7" rx="1.6" ry="0.4"/>
<ellipse transform="matrix(0.6761 -0.7368 0.7368 0.6761 -93.259 85.0595)" class="st0" cx="50.1" cy="148.6" rx="0.3" ry="0.9"/>
<ellipse transform="matrix(0.6761 -0.7368 0.7368 0.6761 -93.259 85.0595)" class="st0" cx="50.1" cy="148.6" rx="0.9" ry="0.3"/>
<ellipse transform="matrix(0.78 -0.6258 0.6258 0.78 -88.7321 67.0614)" class="st0" cx="51" cy="159.7" rx="0.3" ry="1.1"/>
<ellipse transform="matrix(0.78 -0.6258 0.6258 0.78 -88.7321 67.0614)" class="st0" cx="51" cy="159.7" rx="1.1" ry="0.4"/>
<path class="st2" d="M51.8,177.2c-0.9,0-1.6-0.8-1.6-1.7c0-0.6,0.4-1.1,0.9-1.4l18-8.2l-0.9-22.5c-0.1-0.9,0.6-1.7,1.6-1.8
	c0,0,0,0,0,0c0.9-0.1,1.7,0.6,1.8,1.5c0,0,0,0.1,0,0.1l0.9,23.7c0,0.7-0.4,1.3-1,1.6l-19,8.7C52.3,177.2,52,177.2,51.8,177.2z"/>
<path class="st2" d="M63.5,181.5c-0.9,0-1.7-0.7-1.7-1.7c0-0.6,0.3-1.2,0.9-1.5l15.2-7.6l-0.8-20.2c0-0.9,0.7-1.7,1.6-1.7
	c0,0,0,0,0,0l0,0c0.9,0,1.7,0.7,1.7,1.6l0.8,21.3c0,0.7-0.3,1.3-0.9,1.5l-16.1,8.1C64,181.5,63.8,181.5,63.5,181.5z"/>
</svg>
