<svg id="Layer_1" data-name="Layer 1" xmlns="http://www.w3.org/2000/svg" viewBox="0 0 77.35 77.35"><defs><style>.cls-1{fill:#0a6382;}.cls-2{fill:#fff;}</style></defs><circle class="cls-1" cx="38.68" cy="38.68" r="38.67"/><path class="cls-2" d="M61.64,31.11l-35.56-.18a1.67,1.67,0,0,1,0-3.34l35.6.19a1.67,1.67,0,0,1,0,3.34Z"/><path class="cls-2" d="M57.92,42.52,21.6,42.35a.83.83,0,1,1,0-1.66l36.33.16a.84.84,0,0,1,0,1.67Z"/><path class="cls-2" d="M49.86,37.58l-36.33-.17a.84.84,0,0,1-.91-.76.83.83,0,0,1,.76-.91.43.43,0,0,1,.16,0l36.33.16a.84.84,0,0,1,0,1.68Z"/><path class="cls-2" d="M67,46.85l-36.86-.19a.42.42,0,0,1-.42-.42.41.41,0,0,1,.42-.42L67,46.07a.43.43,0,0,1,.42.42A.42.42,0,0,1,67,46.85Z"/><path class="cls-2" d="M60.77,53.89,25.2,53.71a1.26,1.26,0,0,1,0-2.51l35.6.21A1.25,1.25,0,1,1,61,53.9h-.21Z"/><ellipse class="cls-2" cx="21.83" cy="51.5" rx="2.07" ry="0.58" transform="translate(-31.52 34.71) rotate(-49.56)"/><ellipse class="cls-2" cx="21.83" cy="51.5" rx="0.6" ry="1.83" transform="translate(-31.52 34.71) rotate(-49.56)"/><ellipse class="cls-2" cx="20.92" cy="28.6" rx="3.2" ry="1.02" transform="matrix(0.83, -0.55, 0.55, 0.83, -12.31, 16.29)"/><ellipse class="cls-2" cx="20.92" cy="28.6" rx="1.06" ry="3.25" transform="matrix(0.83, -0.55, 0.55, 0.83, -12.31, 16.29)"/><ellipse class="cls-2" cx="19.02" cy="41.23" rx="0.34" ry="1.36" transform="translate(-20.95 19.69) rotate(-36.91)"/><ellipse class="cls-2" cx="18.98" cy="41.25" rx="1.1" ry="0.36" transform="translate(-20.97 19.67) rotate(-36.91)"/><ellipse class="cls-2" cx="9.17" cy="36.53" rx="0.41" ry="1.29" transform="translate(-20.42 13.23) rotate(-37.69)"/><ellipse class="cls-2" cx="9.17" cy="36.53" rx="1.59" ry="0.43" transform="translate(-20.42 13.23) rotate(-37.69)"/><ellipse class="cls-2" cx="28.25" cy="46.24" rx="0.34" ry="1.08" transform="translate(-22.38 26.92) rotate(-37.69)"/><ellipse class="cls-2" cx="28.25" cy="46.24" rx="1.1" ry="0.36" transform="translate(-22.38 26.92) rotate(-37.69)"/></svg>