<svg id="Layer_1" data-name="Layer 1" xmlns="http://www.w3.org/2000/svg" viewBox="0 0 387.79 100.76"><defs><style>.cls-1{fill:#056281;}.cls-2{fill:#007da4;}.cls-3,.cls-4,.cls-5,.cls-6{fill:none;stroke:#fff;stroke-linecap:round;stroke-linejoin:round;}.cls-3{stroke-width:4px;}.cls-4{stroke-width:2px;}.cls-6{stroke-width:3px;}.cls-7{fill:#fff;}</style></defs><title>viz logos [Recovered]</title><path class="cls-1" d="M169.89,69.36V44.44q0-10.59,6.17-16.14t17-5.54q10.88,0,17.11,5.57t6.23,16.11V69.36q0,10.55-6.23,16.11T193.1,91.05q-10.87,0-17-5.58T169.89,69.36Zm18.62,1.19a13.12,13.12,0,0,0,1,5.83,3.66,3.66,0,0,0,3.57,2,3.8,3.8,0,0,0,3.69-2,13.2,13.2,0,0,0,1-5.88V43.31a13.37,13.37,0,0,0-1-5.94,3.8,3.8,0,0,0-3.69-2,3.65,3.65,0,0,0-3.57,2,13.21,13.21,0,0,0-1,5.88Z"/><path class="cls-1" d="M220.86,73.78l9.86-4.29a1.67,1.67,0,0,1,2.17.79A19.89,19.89,0,0,0,237,76.06,7.34,7.34,0,0,0,242,78.39h.55a4.23,4.23,0,0,0,4-4.45,4.61,4.61,0,0,0-.7-2,14.49,14.49,0,0,0-2.42-2.78c-1.19-1.13-2-1.89-2.48-2.3s-1.53-1.32-3.21-2.73l-5.67-4.39Q219.71,50.26,219.71,41a15.62,15.62,0,0,1,3.09-9.48A19.51,19.51,0,0,1,230.86,25a26.05,26.05,0,0,1,10.9-2.27q8.53,0,14.27,4.43a23,23,0,0,1,7.62,11.11,1.71,1.71,0,0,1-.91,2.11l-9.9,4.29a1.66,1.66,0,0,1-2.22-.92,20.22,20.22,0,0,0-2.73-4.92,6.68,6.68,0,0,0-4.9-3h-.17a4.18,4.18,0,0,0-3.18,1,3.79,3.79,0,0,0-1.31,3q0,2.73,7.91,9.28c.44.41.78.71,1,.9l5.33,4.44q3.1,2.51,4.67,3.92T261,62.32a16.69,16.69,0,0,1,3.2,5.12A16.58,16.58,0,0,1,262,82.86,19,19,0,0,1,253.83,89a29.08,29.08,0,0,1-11,2q-8.88,0-14.5-4-5.1-3.6-8.37-11A1.7,1.7,0,0,1,220.86,73.78Z"/><path class="cls-2" d="M264.73,25h14.44a1.64,1.64,0,0,1,1.61,1.41l3.56,27.83a1.62,1.62,0,0,0,3.21,0l3.3-27.8A1.62,1.62,0,0,1,292.46,25h14.36A1.62,1.62,0,0,1,308.41,27L295.63,89.75a1.61,1.61,0,0,1-1.58,1.3H277.24a1.63,1.63,0,0,1-1.59-1.31L263.14,27A1.63,1.63,0,0,1,264.73,25Z"/><path class="cls-2" d="M306.55,20.33V10.47a1.61,1.61,0,0,1,1.62-1.62h15.49a1.61,1.61,0,0,1,1.62,1.62v9.86A1.62,1.62,0,0,1,323.66,22H308.17A1.62,1.62,0,0,1,306.55,20.33Zm.11,69.1V26.66A1.62,1.62,0,0,1,308.28,25h15.38a1.62,1.62,0,0,1,1.62,1.62V89.43a1.62,1.62,0,0,1-1.62,1.62H308.28A1.62,1.62,0,0,1,306.66,89.43Z"/><path class="cls-2" d="M323.44,89.43V79.21c0-.23,4.05-.46,4.14-.67l17-37.38a1.61,1.61,0,0,0-1.47-2.29H330.45a1.63,1.63,0,0,1-1.62-1.62V26.66A1.63,1.63,0,0,1,330.45,25h32.83a1.62,1.62,0,0,1,1.62,1.62V36.2a1.66,1.66,0,0,1-.14.66l-17,38.08a1.62,1.62,0,0,0,1.48,2.28h14.28a1.63,1.63,0,0,1,1.62,1.62V89.43a1.63,1.63,0,0,1-1.62,1.62h-38.5A1.62,1.62,0,0,1,323.44,89.43Z"/><circle class="cls-1" cx="50.24" cy="51.17" r="46.38"/><line class="cls-3" x1="35.04" y1="38.42" x2="77.75" y2="38.42"/><line class="cls-4" x1="29.79" y1="53.12" x2="73.36" y2="53.12"/><line class="cls-4" x1="20.08" y1="47.25" x2="63.65" y2="47.25"/><line class="cls-5" x1="40" y1="58.76" x2="84.22" y2="58.76"/><line class="cls-6" x1="34.14" y1="66.25" x2="76.85" y2="66.25"/><ellipse class="cls-7" cx="30.37" cy="66.25" rx="2.49" ry="0.69" transform="translate(-39.79 46.54) rotate(-49.68)"/><ellipse class="cls-7" cx="30.37" cy="66.25" rx="0.72" ry="2.19" transform="translate(-39.79 46.54) rotate(-49.68)"/><ellipse class="cls-7" cx="28.88" cy="37.67" rx="3.84" ry="1.23" transform="translate(-16.07 22.43) rotate(-33.79)"/><ellipse class="cls-7" cx="28.88" cy="37.67" rx="1.27" ry="3.89" transform="translate(-16.07 22.43) rotate(-33.79)"/><ellipse class="cls-7" cx="26.68" cy="52.85" rx="0.41" ry="1.63" transform="translate(-26.54 26.91) rotate(-37.22)"/><ellipse class="cls-7" cx="26.65" cy="52.88" rx="1.31" ry="0.43" transform="translate(-26.56 26.89) rotate(-37.22)"/><ellipse class="cls-7" cx="14.84" cy="47.25" rx="0.49" ry="1.54" transform="translate(-25.95 19.16) rotate(-38.01)"/><ellipse class="cls-7" cx="14.84" cy="47.25" rx="1.91" ry="0.51" transform="translate(-25.95 19.16) rotate(-38.01)"/><ellipse class="cls-7" cx="37.79" cy="58.76" rx="0.41" ry="1.3" transform="translate(-28.17 35.73) rotate(-38.01)"/><ellipse class="cls-7" cx="37.79" cy="58.76" rx="1.31" ry="0.43" transform="translate(-28.17 35.73) rotate(-38.01)"/><path class="cls-1" d="M102.33,92.94l1.35-83.26A1.28,1.28,0,0,1,105,8.42h18a1.28,1.28,0,0,1,1.26,1l8.12,42.79a1.28,1.28,0,0,0,2.51,0l8.74-42.82a1.27,1.27,0,0,1,1.25-1h17.31a1.28,1.28,0,0,1,1.28,1.26l1.36,83.26a1.29,1.29,0,0,1-1.28,1.3h-11A1.27,1.27,0,0,1,151.19,93L150.13,50a1.27,1.27,0,0,0-2.53-.19l-7.69,43.33a1.27,1.27,0,0,1-1.25,1.06h-9.72a1.28,1.28,0,0,1-1.26-1l-8.11-44a1.27,1.27,0,0,0-2.53.2l-1,43.65a1.28,1.28,0,0,1-1.28,1.25H103.61A1.28,1.28,0,0,1,102.33,92.94Z"/></svg>