<svg id="Layer_1" data-name="Layer 1" xmlns="http://www.w3.org/2000/svg" viewBox="0 0 387.79 100.76"><defs><style>.cls-1{fill:#215a6f;}.cls-2,.cls-3,.cls-4,.cls-5{fill:none;stroke:#fff;stroke-linecap:round;stroke-linejoin:round;}.cls-2{stroke-width:4px;}.cls-3{stroke-width:2px;}.cls-5{stroke-width:3px;}.cls-6{fill:#fff;}</style></defs><path class="cls-1" d="M109.56,82.18V19.53a1.68,1.68,0,0,1,1.68-1.67H126.5a1.68,1.68,0,0,1,1.68,1.67h0a1.68,1.68,0,0,0,2.69,1.34A21.56,21.56,0,0,1,144,16.63a12.42,12.42,0,0,1,7,2,11.72,11.72,0,0,1,3.58,3.79,1.66,1.66,0,0,0,2.58.32,21.76,21.76,0,0,1,15.37-6.1A11.62,11.62,0,0,1,182,20.87q3.53,4.23,3.52,11.7V82.18a1.68,1.68,0,0,1-1.68,1.68H168.55a1.68,1.68,0,0,1-1.68-1.68V34.37a6.57,6.57,0,0,0-.94-4A3.24,3.24,0,0,0,163,29.28a10.76,10.76,0,0,0-6,2.41V82.18a1.68,1.68,0,0,1-1.68,1.68H140a1.68,1.68,0,0,1-1.67-1.68V34.37a6.5,6.5,0,0,0-1-3.94,3.28,3.28,0,0,0-3-1.15,11.2,11.2,0,0,0-5.46,2,1.67,1.67,0,0,0-.75,1.4V82.18a1.68,1.68,0,0,1-1.68,1.68H111.24A1.68,1.68,0,0,1,109.56,82.18Z"/><path class="cls-1" d="M188.63,63.35V38.43q0-10.59,6.17-16.14t17-5.55q10.88,0,17.11,5.58t6.23,16.11V63.35q0,10.53-6.23,16.11T211.84,85q-10.87,0-17-5.57T188.63,63.35Zm18.62,1.18a13.09,13.09,0,0,0,1,5.83,3.65,3.65,0,0,0,3.57,2,3.81,3.81,0,0,0,3.69-2,13.21,13.21,0,0,0,1-5.89V37.3a13.34,13.34,0,0,0-1-5.94,3.79,3.79,0,0,0-3.69-2,3.66,3.66,0,0,0-3.57,2,13.29,13.29,0,0,0-1,5.89Z"/><path class="cls-1" d="M239.6,67.77l9.86-4.3a1.67,1.67,0,0,1,2.17.79A19.59,19.59,0,0,0,255.7,70a7.28,7.28,0,0,0,5.08,2.34h.55a4.23,4.23,0,0,0,4-4.45,4.57,4.57,0,0,0-.7-2,14.2,14.2,0,0,0-2.42-2.78c-1.19-1.13-2-1.9-2.48-2.31s-1.53-1.31-3.21-2.72l-5.67-4.4Q238.45,44.24,238.45,35a15.59,15.59,0,0,1,3.09-9.47A19.52,19.52,0,0,1,249.6,19a26.21,26.21,0,0,1,10.9-2.27q8.53,0,14.27,4.43a22.94,22.94,0,0,1,7.62,11.11,1.7,1.7,0,0,1-.91,2.11l-9.9,4.3a1.67,1.67,0,0,1-2.22-.93,20.34,20.34,0,0,0-2.73-4.91,6.69,6.69,0,0,0-4.89-3h-.18a4.22,4.22,0,0,0-3.18,1.06,3.79,3.79,0,0,0-1.31,2.94q0,2.73,7.91,9.29c.44.41.78.71,1,.89l5.33,4.45c2.07,1.67,3.63,3,4.67,3.92a51.55,51.55,0,0,1,3.77,3.92,16.65,16.65,0,0,1,3.2,5.11,16.6,16.6,0,0,1-2.2,15.43A19.06,19.06,0,0,1,272.57,83a29.28,29.28,0,0,1-11,2q-8.88,0-14.5-4-5.1-3.61-8.36-11A1.69,1.69,0,0,1,239.6,67.77Z"/><path class="cls-1" d="M283.47,19h14.44a1.63,1.63,0,0,1,1.61,1.41l3.56,27.83a1.62,1.62,0,0,0,3.21,0l3.3-27.79A1.62,1.62,0,0,1,311.2,19h14.36A1.62,1.62,0,0,1,327.15,21L314.37,83.74A1.61,1.61,0,0,1,312.79,85H296a1.62,1.62,0,0,1-1.59-1.3L281.88,21A1.62,1.62,0,0,1,283.47,19Z"/><path class="cls-1" d="M325.29,14.31V4.45a1.62,1.62,0,0,1,1.62-1.62H342.4A1.62,1.62,0,0,1,344,4.45v9.86a1.61,1.61,0,0,1-1.62,1.62H326.91A1.61,1.61,0,0,1,325.29,14.31Zm.11,69.1V20.65A1.62,1.62,0,0,1,327,19H342.4A1.61,1.61,0,0,1,344,20.65V83.41A1.61,1.61,0,0,1,342.4,85H327A1.62,1.62,0,0,1,325.4,83.41Z"/><path class="cls-1" d="M342.18,83.41V73.2c0-.24,4.05-.46,4.14-.67l17-37.39a1.62,1.62,0,0,0-1.47-2.29H349.19a1.62,1.62,0,0,1-1.62-1.62V20.65A1.62,1.62,0,0,1,349.19,19H382a1.61,1.61,0,0,1,1.62,1.62v9.54a1.62,1.62,0,0,1-.14.65l-17,38.09A1.62,1.62,0,0,0,368,71.21H382.3a1.61,1.61,0,0,1,1.62,1.62V83.41A1.61,1.61,0,0,1,382.3,85H343.8A1.61,1.61,0,0,1,342.18,83.41Z"/><circle class="cls-1" cx="51.24" cy="51.17" r="46.38"/><line class="cls-2" x1="36.04" y1="38.42" x2="78.75" y2="38.42"/><line class="cls-3" x1="30.79" y1="53.12" x2="74.36" y2="53.12"/><line class="cls-3" x1="21.08" y1="47.25" x2="64.65" y2="47.25"/><line class="cls-4" x1="41" y1="58.76" x2="85.22" y2="58.76"/><line class="cls-5" x1="35.14" y1="66.25" x2="77.85" y2="66.25"/><ellipse class="cls-6" cx="31.37" cy="66.25" rx="2.49" ry="0.69" transform="translate(-39.44 47.3) rotate(-49.68)"/><ellipse class="cls-6" cx="31.37" cy="66.25" rx="0.72" ry="2.19" transform="translate(-39.44 47.3) rotate(-49.68)"/><ellipse class="cls-6" cx="29.88" cy="37.67" rx="3.84" ry="1.23" transform="translate(-15.91 22.99) rotate(-33.79)"/><ellipse class="cls-6" cx="29.88" cy="37.67" rx="1.27" ry="3.89" transform="translate(-15.91 22.99) rotate(-33.79)"/><ellipse class="cls-6" cx="27.68" cy="52.85" rx="0.41" ry="1.63" transform="translate(-26.33 27.51) rotate(-37.22)"/><ellipse class="cls-6" cx="27.65" cy="52.88" rx="1.31" ry="0.43" transform="translate(-26.35 27.5) rotate(-37.22)"/><ellipse class="cls-6" cx="15.84" cy="47.25" rx="0.49" ry="1.54" transform="translate(-25.73 19.78) rotate(-38.01)"/><ellipse class="cls-6" cx="15.84" cy="47.25" rx="1.91" ry="0.51" transform="translate(-25.73 19.78) rotate(-38.01)"/><ellipse class="cls-6" cx="38.79" cy="58.76" rx="0.41" ry="1.3" transform="translate(-27.96 36.35) rotate(-38.01)"/><ellipse class="cls-6" cx="38.79" cy="58.76" rx="1.31" ry="0.43" transform="translate(-27.96 36.35) rotate(-38.01)"/></svg>