<svg id="Layer_1" data-name="Layer 1" xmlns="http://www.w3.org/2000/svg" viewBox="0 0 519.86 120.52"><defs><style>.cls-1{fill:#215a6f;}.cls-2,.cls-4,.cls-5,.cls-6{fill:none;stroke:#fff;stroke-linecap:round;stroke-linejoin:round;}.cls-2{stroke-width:3px;}.cls-3{fill:#fff;}.cls-4{stroke-width:2px;}.cls-6{stroke-width:1.5px;}</style></defs><path class="cls-1" d="M411,39.3a1.69,1.69,0,0,1-1.69-1.69V34.69a39.55,39.55,0,0,1,1.4-10.95A25.73,25.73,0,0,1,415,15a18.71,18.71,0,0,1,7.76-5.87A29,29,0,0,1,434.12,7.1q11.7,0,17.78,5.9T458,29.59a27,27,0,0,1-.21,3.34c-.14,1.12-.29,2.14-.45,3a19.71,19.71,0,0,1-.84,3.07l-1,2.76a23.93,23.93,0,0,1-1.32,2.83l-1.35,2.57c-.26.52-.8,1.41-1.61,2.67l-1.59,2.47L447.86,55c-.94,1.39-1.51,2.23-1.73,2.51L431.81,79.11a1.69,1.69,0,0,0,1.41,2.62h20.65a1.69,1.69,0,0,1,1.69,1.69V94.56a1.69,1.69,0,0,1-1.69,1.69H411a1.69,1.69,0,0,1-1.69-1.69V83.69a1.74,1.74,0,0,1,.27-.92L430.46,50.5c.36-.57,1.06-1.62,2.1-3.16s1.8-2.69,2.28-3.47,1.12-1.9,1.92-3.35a29.34,29.34,0,0,0,1.79-3.71,32,32,0,0,0,1.07-3.56,17.19,17.19,0,0,0,.47-3.88q0-4.17-1.81-6.2a4.6,4.6,0,0,0-3.73-1.55,8.52,8.52,0,0,0-1.28.11,5.85,5.85,0,0,0-4.62,3.6c-1,2.09-1.47,5.22-1.47,9.41v2.87a1.69,1.69,0,0,1-1.69,1.69Z"/><path class="cls-1" d="M461.55,93.31V10.37a3,3,0,0,1,2.95-2.95h19.39A57.07,57.07,0,0,1,498.39,9a19.61,19.61,0,0,1,9.18,5.09,19.6,19.6,0,0,1,4.83,8.66,49.74,49.74,0,0,1,1.39,12.83v32a50.21,50.21,0,0,1-1.42,13,20.42,20.42,0,0,1-4.82,8.84,19.38,19.38,0,0,1-9.11,5.22,53.21,53.21,0,0,1-14.28,1.61H464.5A3,3,0,0,1,461.55,93.31Zm19.61-13.67a3,3,0,0,0,2.95,3h.05A21.89,21.89,0,0,0,488,82.3a6.54,6.54,0,0,0,2.63-1,7.43,7.43,0,0,0,1.66-1.58,5.92,5.92,0,0,0,.91-2.41,24.13,24.13,0,0,0,.38-3c.05-1,.07-2.22.07-3.83V32.23a38.18,38.18,0,0,0-.26-5.2,8.24,8.24,0,0,0-1.24-3.32,4.87,4.87,0,0,0-2.86-2.06,18.69,18.69,0,0,0-5.17-.57h0a3,3,0,0,0-2.95,3Z"/><path class="cls-1" d="M158.19,115.24V30.66a1.58,1.58,0,0,1,1.58-1.58h15.46a1.58,1.58,0,0,1,1.58,1.58h0a1.58,1.58,0,0,0,2.5,1.27,19.14,19.14,0,0,1,11.2-4h.61q7.11.22,10.59,5.69t3.47,13.82V75.63q0,9.42-3.75,15a12.13,12.13,0,0,1-10.7,5.6q-5.67,0-11.42-4.13a1.57,1.57,0,0,0-2.5,1.27v21.85a1.58,1.58,0,0,1-1.58,1.58H159.77A1.58,1.58,0,0,1,158.19,115.24Zm18.62-33.69A1.61,1.61,0,0,0,177.7,83a9,9,0,0,0,4.12,1.12h.12A3.81,3.81,0,0,0,185.39,82a11.87,11.87,0,0,0,1.17-5.41V46.08a9.55,9.55,0,0,0-1.22-5,3.55,3.55,0,0,0-3.18-1.78h-.5a8.94,8.94,0,0,0-4.18,1.7,1.57,1.57,0,0,0-.67,1.3Z"/><path class="cls-1" d="M208.55,73.9V50.26q0-10.65,6-16.47t17-5.83q11.63,0,17.45,5.66t5.82,16.64V61.67a1.58,1.58,0,0,1-1.58,1.58H228.75a1.58,1.58,0,0,0-1.58,1.58V75a14.45,14.45,0,0,0,1,6.11,3.45,3.45,0,0,0,3.38,2.06q4.65,0,4.65-6.54V73.69a1.58,1.58,0,0,1,1.58-1.58h15.46a1.58,1.58,0,0,1,1.58,1.58V76q0,9.87-6.11,15.08t-17.16,5.21q-11,0-17-5.85T208.55,73.9Zm20.2-19.35h5.87A1.58,1.58,0,0,0,236.2,53V47.89q0-3.72-1.22-5.28a4.19,4.19,0,0,0-3.49-1.55,3.53,3.53,0,0,0-3.24,1.81q-1.08,1.8-1.08,6.15V53A1.58,1.58,0,0,0,228.75,54.55Z"/><path class="cls-1" d="M257.89,74V50.09q0-10.47,5.95-16.3T280.66,28q11,0,17,5t6,14.86v5.38A1.59,1.59,0,0,1,302,54.78H286.56A1.59,1.59,0,0,1,285,53.19V47.25q0-3.82-1-5.23a3.73,3.73,0,0,0-3.22-1.4,3.43,3.43,0,0,0-3.2,1.72c-.68,1.15-1,3.14-1,6V75.63c0,2.86.34,4.83,1,5.91a3.51,3.51,0,0,0,3.17,1.61,3.69,3.69,0,0,0,3.22-1.46c.69-1,1-2.6,1-4.88v-7a1.58,1.58,0,0,1,1.58-1.58H302a1.58,1.58,0,0,1,1.58,1.58v6.39q0,9.81-6,14.94t-16.93,5.13q-10.86,0-16.82-5.88T257.89,74Z"/><path class="cls-1" d="M306,30.25h14.44a1.62,1.62,0,0,1,1.61,1.41l3.56,27.82a1.62,1.62,0,0,0,3.21,0l3.3-27.8a1.62,1.62,0,0,1,1.61-1.42h14.36a1.62,1.62,0,0,1,1.59,1.94L336.9,95a1.61,1.61,0,0,1-1.58,1.29H318.51a1.63,1.63,0,0,1-1.59-1.3L304.41,32.18A1.62,1.62,0,0,1,306,30.25Z"/><path class="cls-1" d="M347.82,25.53V15.67a1.63,1.63,0,0,1,1.62-1.62h15.49a1.62,1.62,0,0,1,1.62,1.62v9.86a1.61,1.61,0,0,1-1.62,1.62H349.44A1.62,1.62,0,0,1,347.82,25.53Zm.11,69.1V31.87a1.62,1.62,0,0,1,1.62-1.62h15.38a1.61,1.61,0,0,1,1.62,1.62V94.63a1.61,1.61,0,0,1-1.62,1.62H349.55A1.62,1.62,0,0,1,347.93,94.63Z"/><path class="cls-1" d="M364.71,94.63V84.41c0-.23,4.05-.46,4.15-.67l17-37.38a1.63,1.63,0,0,0-1.48-2.29H371.72a1.61,1.61,0,0,1-1.61-1.62V31.87a1.61,1.61,0,0,1,1.61-1.62h32.83a1.61,1.61,0,0,1,1.62,1.62V41.4a1.48,1.48,0,0,1-.14.66l-17,38.09a1.62,1.62,0,0,0,1.48,2.28h14.28a1.61,1.61,0,0,1,1.62,1.62V94.63a1.61,1.61,0,0,1-1.62,1.62h-38.5A1.62,1.62,0,0,1,364.71,94.63Z"/><circle class="cls-1" cx="55.24" cy="57.25" r="46.38"/><path class="cls-2" d="M33,71.09h10.3c4.52,0,8-1.65,9.7-4.5s3-12.88,3.95-20.17c.32-2.54.85-11.75.85-11.75s.92,7.58,1.45,12.21c1.19,10.37,2.47,24.46,8.51,23.53,3-.46,5.17-10.81,5.17-10.81-.24-2.35,1.14,9.9,4.65,10.76a23.56,23.56,0,0,0,8.13.07"/><ellipse class="cls-3" cx="26.21" cy="70.36" rx="3.84" ry="1.23" transform="translate(-39.46 33.97) rotate(-40.58)"/><ellipse class="cls-3" cx="26.21" cy="70.36" rx="1.27" ry="3.89" transform="translate(-39.46 33.97) rotate(-40.58)"/><line class="cls-4" x1="41.78" y1="39.75" x2="48.98" y2="39.75"/><line class="cls-5" x1="26.77" y1="49.53" x2="48.2" y2="49.53"/><ellipse class="cls-3" cx="35.75" cy="39.41" rx="0.75" ry="2.95" transform="translate(-16.56 29.66) rotate(-37.22)"/><ellipse class="cls-3" cx="35.69" cy="39.46" rx="2.38" ry="0.78" transform="translate(-16.6 29.63) rotate(-37.22)"/><line class="cls-6" x1="35.69" y1="60.23" x2="45.2" y2="60.23"/><ellipse class="cls-3" cx="30.71" cy="60.13" rx="0.41" ry="1.3" transform="translate(-30.52 31.66) rotate(-38.01)"/><ellipse class="cls-3" cx="30.71" cy="60.13" rx="1.31" ry="0.43" transform="translate(-30.52 31.66) rotate(-38.01)"/><ellipse class="cls-3" cx="22.44" cy="48.96" rx="0.41" ry="1.3" transform="translate(-20.27 16.15) rotate(-27.84)"/><ellipse class="cls-3" cx="22.44" cy="48.96" rx="1.31" ry="0.43" transform="translate(-20.27 16.15) rotate(-27.84)"/><path class="cls-1" d="M107.16,70.67l10.92-1.57a3.37,3.37,0,0,1,3.85,3.09,24.35,24.35,0,0,0,1.72,8.39c1.17,2.5,2.92,3.74,5.26,3.74,3.26,0,4.9-2.12,4.9-6.36a16.61,16.61,0,0,0-1.27-6.56,18.87,18.87,0,0,0-3.1-5.11,51.64,51.64,0,0,0-5.16-5l-7.63-6.74a59.86,59.86,0,0,1-5-4.46,34,34,0,0,1-3.87-4.8,20.3,20.3,0,0,1-2.8-6.18,29.16,29.16,0,0,1-.9-7.48q0-11,6.7-17.07t18.39-6.08a28.77,28.77,0,0,1,7.27.86A19.91,19.91,0,0,1,142,11.59a15.41,15.41,0,0,1,3.95,3.49,21.12,21.12,0,0,1,2.7,4.21A25.6,25.6,0,0,1,150.32,24a34.77,34.77,0,0,1,.92,4.82c0,.45.1.92.14,1.39a3.39,3.39,0,0,1-2.94,3.7l-10.38,1.31a3.38,3.38,0,0,1-3.8-3.19v0c-.06-1-.15-2-.29-3.1a12.93,12.93,0,0,0-.58-2.66,8.2,8.2,0,0,0-1-1.88,3.33,3.33,0,0,0-1.52-1.25,5.33,5.33,0,0,0-2.19-.32A4.47,4.47,0,0,0,124.83,25a8.57,8.57,0,0,0-1.34,4.7,16,16,0,0,0,.6,4.53,12,12,0,0,0,2.11,4A34.22,34.22,0,0,0,128.65,41q.94,1,3.16,3l7.58,6.58a62,62,0,0,1,5.39,5.28,44,44,0,0,1,4.28,5.73,25.58,25.58,0,0,1,3.07,7.06,31.18,31.18,0,0,1,1,8.25,20.71,20.71,0,0,1-6.43,15.58q-6.44,6.18-16.88,6.18-12.78,0-19-6.57-5.53-5.81-6.57-17.75A3.42,3.42,0,0,1,107.16,70.67Z"/></svg>