<svg id="Layer_1" data-name="Layer 1" xmlns="http://www.w3.org/2000/svg" viewBox="0 0 406.47 109.11"><defs><style>.cls-1{fill:#215a6f;}.cls-2{fill:none;stroke:#fff;stroke-linecap:round;stroke-linejoin:round;stroke-width:3px;}</style></defs><path class="cls-1" d="M107,67.62l10-4.37a1.57,1.57,0,0,1,2,.74,19.84,19.84,0,0,0,4.11,5.86,7.28,7.28,0,0,0,5.08,2.34h.56a4.21,4.21,0,0,0,4-4.45,4.58,4.58,0,0,0-.69-2,14.68,14.68,0,0,0-2.43-2.78c-1.19-1.13-2-1.9-2.48-2.31L124,57.9l-5.67-4.39q-12.4-9.45-12.4-18.69A15.61,15.61,0,0,1,109,25.35a19.6,19.6,0,0,1,8.06-6.53A26.25,26.25,0,0,1,128,16.55q8.52,0,14.26,4.43a23,23,0,0,1,7.65,11.2,1.59,1.59,0,0,1-.86,2l-10.07,4.37a1.57,1.57,0,0,1-2.09-.87,19.6,19.6,0,0,0-2.77-5,6.72,6.72,0,0,0-4.89-3H129a4.23,4.23,0,0,0-3.19,1.06,3.79,3.79,0,0,0-1.31,2.95q0,2.72,7.91,9.28c.44.41.78.71,1,.89l5.33,4.45c2.08,1.67,3.63,3,4.67,3.92a51.5,51.5,0,0,1,3.77,3.92,16.62,16.62,0,0,1,3.21,5.12,15.9,15.9,0,0,1,1,5.61,15.7,15.7,0,0,1-3.19,9.81A19,19,0,0,1,140,82.84a29.08,29.08,0,0,1-11,2q-8.88,0-14.5-4-5.11-3.63-8.4-11.13A1.59,1.59,0,0,1,107,67.62Z"/><path class="cls-1" d="M155.19,103.84V19.25a1.58,1.58,0,0,1,1.58-1.58h15.46a1.58,1.58,0,0,1,1.58,1.58h0a1.58,1.58,0,0,0,2.5,1.28,19.16,19.16,0,0,1,11.2-4h.61q7.11.22,10.59,5.69t3.47,13.83V64.22q0,9.42-3.75,15a12.11,12.11,0,0,1-10.7,5.6,19.48,19.48,0,0,1-11.42-4.13,1.58,1.58,0,0,0-2.5,1.27v21.86a1.58,1.58,0,0,1-1.58,1.58H156.77A1.58,1.58,0,0,1,155.19,103.84Zm18.62-33.69a1.6,1.6,0,0,0,.89,1.42,9,9,0,0,0,4.12,1.12h.12a3.79,3.79,0,0,0,3.45-2.06,11.84,11.84,0,0,0,1.17-5.41V34.67a9.55,9.55,0,0,0-1.22-5,3.55,3.55,0,0,0-3.18-1.78h-.5a9,9,0,0,0-4.18,1.7,1.58,1.58,0,0,0-.67,1.3Z"/><path class="cls-1" d="M205.55,62.49V38.85q0-10.65,6-16.47t17-5.83q11.63,0,17.45,5.66t5.82,16.64V50.26a1.58,1.58,0,0,1-1.58,1.58H225.75a1.58,1.58,0,0,0-1.58,1.58V63.57a14.47,14.47,0,0,0,1,6.12,3.46,3.46,0,0,0,3.38,2q4.65,0,4.65-6.54V62.29a1.58,1.58,0,0,1,1.58-1.58h15.46a1.58,1.58,0,0,1,1.58,1.58v2.26q0,9.87-6.11,15.08t-17.16,5.21q-11,0-17-5.85T205.55,62.49Zm20.2-19.34h5.87a1.59,1.59,0,0,0,1.58-1.59V36.48q0-3.72-1.22-5.27a4.17,4.17,0,0,0-3.49-1.56,3.54,3.54,0,0,0-3.24,1.81c-.72,1.2-1.08,3.26-1.08,6.15v4A1.59,1.59,0,0,0,225.75,43.15Z"/><path class="cls-1" d="M254.89,62.55V38.69q0-10.48,5.95-16.31t16.82-5.83q11,0,17,5t6,14.86v5.39A1.58,1.58,0,0,1,299,43.37H283.56A1.58,1.58,0,0,1,282,41.79V35.84q0-3.83-1-5.23a3.76,3.76,0,0,0-3.22-1.4,3.43,3.43,0,0,0-3.2,1.72c-.68,1.15-1,3.14-1,6V64.23c0,2.86.34,4.82,1,5.9a3.49,3.49,0,0,0,3.17,1.61,3.67,3.67,0,0,0,3.22-1.46c.69-1,1-2.6,1-4.88v-7a1.58,1.58,0,0,1,1.58-1.58H299a1.58,1.58,0,0,1,1.58,1.58v6.4q0,9.81-6,14.94t-16.93,5.12q-10.86,0-16.82-5.88T254.89,62.55Z"/><circle class="cls-1" cx="50.93" cy="51.44" r="46.38"/><path class="cls-1" d="M303,18.84h14.44a1.62,1.62,0,0,1,1.61,1.41l3.56,27.83a1.62,1.62,0,0,0,3.21,0l3.3-27.79a1.62,1.62,0,0,1,1.61-1.43h14.36a1.62,1.62,0,0,1,1.59,1.94L333.9,83.55a1.61,1.61,0,0,1-1.58,1.29H315.51a1.63,1.63,0,0,1-1.59-1.3L301.41,20.77A1.62,1.62,0,0,1,303,18.84Z"/><path class="cls-1" d="M344.82,14.13V4.26a1.63,1.63,0,0,1,1.62-1.62h15.49a1.62,1.62,0,0,1,1.62,1.62v9.87a1.62,1.62,0,0,1-1.62,1.62H346.44A1.63,1.63,0,0,1,344.82,14.13Zm.11,69.1V20.46a1.62,1.62,0,0,1,1.62-1.62h15.38a1.61,1.61,0,0,1,1.62,1.62V83.23a1.61,1.61,0,0,1-1.62,1.61H346.55A1.62,1.62,0,0,1,344.93,83.23Z"/><path class="cls-1" d="M361.71,83.23V73c0-.23,4.05-.46,4.15-.67l17-37.39a1.63,1.63,0,0,0-1.48-2.29H368.72a1.61,1.61,0,0,1-1.61-1.61V20.46a1.61,1.61,0,0,1,1.61-1.62h32.83a1.61,1.61,0,0,1,1.62,1.62V30a1.54,1.54,0,0,1-.14.66l-17,38.08A1.62,1.62,0,0,0,387.55,71h14.28a1.61,1.61,0,0,1,1.62,1.62V83.23a1.61,1.61,0,0,1-1.62,1.61h-38.5A1.62,1.62,0,0,1,361.71,83.23Z"/><path class="cls-2" d="M20.52,64.29h6.82c1.71,0,3.59-.45,4-3.32.39-2.49.83-12.54.83-12.54s.93,9.21,1.53,12.1c1,5,6.41,4.75,7.8,4.76a10.57,10.57,0,0,0,7.12-4.5c1.7-2.85,3-12.88,3.94-20.17.32-2.55.85-11.75.85-11.75s.92,7.58,1.45,12.21c1.19,10.36,2.47,24.46,8.51,23.52,3-.46,5.17-10.81,5.17-10.81-.24-2.34,1.14,9.91,4.65,10.76a23.41,23.41,0,0,0,8.13.08"/></svg>