<svg id="Layer_1" data-name="Layer 1" xmlns="http://www.w3.org/2000/svg" viewBox="0 0 406.47 109.11"><defs><style>.cls-1{fill:#056281;}.cls-2{fill:#007da4;}.cls-3{fill:none;stroke:#fff;stroke-linecap:round;stroke-linejoin:round;stroke-width:3px;}</style></defs><title>viz logos [Recovered]</title><path class="cls-1" d="M153.19,103.84V19.25a1.58,1.58,0,0,1,1.58-1.58h15.46a1.58,1.58,0,0,1,1.58,1.58h0a1.58,1.58,0,0,0,2.5,1.28,19.16,19.16,0,0,1,11.2-4h.61q7.11.22,10.59,5.69t3.47,13.83V64.22q0,9.42-3.75,15a12.11,12.11,0,0,1-10.7,5.6,19.48,19.48,0,0,1-11.42-4.13,1.58,1.58,0,0,0-2.5,1.27v21.86a1.58,1.58,0,0,1-1.58,1.58H154.77A1.58,1.58,0,0,1,153.19,103.84Zm18.62-33.69a1.6,1.6,0,0,0,.89,1.42,9,9,0,0,0,4.12,1.12h.12a3.79,3.79,0,0,0,3.45-2.06,11.84,11.84,0,0,0,1.17-5.41V34.67a9.55,9.55,0,0,0-1.22-5,3.55,3.55,0,0,0-3.18-1.78h-.5a9,9,0,0,0-4.18,1.7,1.58,1.58,0,0,0-.67,1.3Z"/><path class="cls-1" d="M203.55,62.49V38.85q0-10.65,6-16.47t17-5.83q11.63,0,17.45,5.66t5.82,16.64V50.26a1.58,1.58,0,0,1-1.58,1.58H223.75a1.58,1.58,0,0,0-1.58,1.58V63.57a14.47,14.47,0,0,0,1,6.12,3.46,3.46,0,0,0,3.38,2q4.65,0,4.65-6.54V62.29a1.58,1.58,0,0,1,1.58-1.58h15.46a1.58,1.58,0,0,1,1.58,1.58v2.26q0,9.87-6.11,15.08t-17.16,5.21q-11,0-17-5.85T203.55,62.49Zm20.2-19.34h5.87a1.59,1.59,0,0,0,1.58-1.59V36.48q0-3.72-1.22-5.27a4.17,4.17,0,0,0-3.49-1.56,3.54,3.54,0,0,0-3.24,1.81c-.72,1.2-1.08,3.26-1.08,6.15v4A1.59,1.59,0,0,0,223.75,43.15Z"/><path class="cls-1" d="M252.89,62.55V38.69q0-10.48,5.95-16.31t16.82-5.83q11,0,17,5t6,14.86v5.39A1.58,1.58,0,0,1,297,43.37H281.56A1.58,1.58,0,0,1,280,41.79V35.84q0-3.83-1-5.23a3.76,3.76,0,0,0-3.22-1.4,3.43,3.43,0,0,0-3.2,1.72c-.68,1.15-1,3.14-1,6V64.23c0,2.86.34,4.82,1,5.9a3.49,3.49,0,0,0,3.17,1.61,3.67,3.67,0,0,0,3.22-1.46c.69-1,1-2.6,1-4.88v-7a1.58,1.58,0,0,1,1.58-1.58H297a1.58,1.58,0,0,1,1.58,1.58v6.4q0,9.81-6,14.94t-16.93,5.12q-10.86,0-16.82-5.88T252.89,62.55Z"/><circle class="cls-1" cx="51.93" cy="51.44" r="46.38"/><path class="cls-2" d="M301,18.84h14.44a1.62,1.62,0,0,1,1.61,1.41l3.56,27.83a1.62,1.62,0,0,0,3.21,0l3.3-27.79a1.62,1.62,0,0,1,1.61-1.43h14.36a1.62,1.62,0,0,1,1.59,1.94L331.9,83.55a1.61,1.61,0,0,1-1.58,1.29H313.51a1.63,1.63,0,0,1-1.59-1.3L299.41,20.77A1.62,1.62,0,0,1,301,18.84Z"/><path class="cls-2" d="M342.82,14.13V4.26a1.63,1.63,0,0,1,1.62-1.62h15.49a1.62,1.62,0,0,1,1.62,1.62v9.87a1.62,1.62,0,0,1-1.62,1.62H344.44A1.63,1.63,0,0,1,342.82,14.13Zm.11,69.1V20.46a1.62,1.62,0,0,1,1.62-1.62h15.38a1.61,1.61,0,0,1,1.62,1.62V83.23a1.61,1.61,0,0,1-1.62,1.61H344.55A1.62,1.62,0,0,1,342.93,83.23Z"/><path class="cls-2" d="M359.71,83.23V73c0-.23,4.05-.46,4.15-.67l17-37.39a1.63,1.63,0,0,0-1.48-2.29H366.72a1.61,1.61,0,0,1-1.61-1.61V20.46a1.61,1.61,0,0,1,1.61-1.62h32.83a1.61,1.61,0,0,1,1.62,1.62V30a1.54,1.54,0,0,1-.14.66l-17,38.08A1.62,1.62,0,0,0,385.55,71h14.28a1.61,1.61,0,0,1,1.62,1.62V83.23a1.61,1.61,0,0,1-1.62,1.61h-38.5A1.62,1.62,0,0,1,359.71,83.23Z"/><path class="cls-3" d="M21.52,64.29h6.82c1.71,0,3.59-.45,4-3.32.39-2.49.83-12.54.83-12.54s.93,9.21,1.53,12.1c1,5,6.41,4.75,7.8,4.76a10.57,10.57,0,0,0,7.12-4.5c1.7-2.85,3-12.88,3.94-20.17.32-2.55.85-11.75.85-11.75s.92,7.58,1.45,12.21c1.19,10.36,2.47,24.46,8.51,23.52,3-.46,5.17-10.81,5.17-10.81-.24-2.34,1.14,9.91,4.65,10.76a23.41,23.41,0,0,0,8.13.08"/><path class="cls-1" d="M103.68,64.59l10.68-1.53a3.32,3.32,0,0,1,3.78,3.08,23.69,23.69,0,0,0,1.67,8.15C121,76.73,122.67,78,125,78q4.79,0,4.79-6.23a16.24,16.24,0,0,0-1.24-6.41,18.23,18.23,0,0,0-3-5,49.17,49.17,0,0,0-5-4.88L113,48.84a62.84,62.84,0,0,1-4.86-4.36,33.68,33.68,0,0,1-3.78-4.7,19.48,19.48,0,0,1-2.73-6,28.45,28.45,0,0,1-.89-7.32q0-10.8,6.56-16.69t18-6a28.44,28.44,0,0,1,7.11.83,19.92,19.92,0,0,1,5.39,2.19,15.31,15.31,0,0,1,3.86,3.42,20.72,20.72,0,0,1,2.65,4.12A25.68,25.68,0,0,1,145.9,19a34.81,34.81,0,0,1,.9,4.72c0,.44.09.89.14,1.36a3.32,3.32,0,0,1-2.88,3.62L133.91,30a3.32,3.32,0,0,1-3.72-3.12v0c-.05-.95-.15-2-.29-3a12,12,0,0,0-.56-2.59,8.22,8.22,0,0,0-1-1.84,3.33,3.33,0,0,0-1.5-1.22,4.91,4.91,0,0,0-2.14-.31,4.32,4.32,0,0,0-3.78,2.1,8.26,8.26,0,0,0-1.31,4.59,15.44,15.44,0,0,0,.59,4.44,11.43,11.43,0,0,0,2.06,3.86,32.74,32.74,0,0,0,2.39,2.8q.93.94,3.09,2.91l7.42,6.43a59.24,59.24,0,0,1,5.27,5.17,42.75,42.75,0,0,1,4.19,5.6,25.42,25.42,0,0,1,3,6.9,30.76,30.76,0,0,1,1,8.07,20.26,20.26,0,0,1-6.29,15.24q-6.28,6.06-16.51,6-12.51,0-18.62-6.43-5.42-5.69-6.43-17.41A3.32,3.32,0,0,1,103.68,64.59Z"/></svg>