<svg id="Layer_1" data-name="Layer 1" xmlns="http://www.w3.org/2000/svg" viewBox="0 0 92.76 92.76"><defs><style>.cls-1{fill:#215a6f;}.cls-2,.cls-4,.cls-5,.cls-6{fill:none;stroke:#fff;stroke-linecap:round;stroke-linejoin:round;}.cls-2{stroke-width:3px;}.cls-3{fill:#fff;}.cls-4{stroke-width:2px;}.cls-6{stroke-width:1.5px;}</style></defs><circle class="cls-1" cx="46.38" cy="46.38" r="46.38"/><path class="cls-2" d="M24.09,60.23h10.3c4.52,0,8-1.66,9.7-4.51s3-12.88,3.94-20.16c.33-2.55.86-11.75.86-11.75s.92,7.57,1.45,12.2c1.18,10.37,2.47,24.47,8.51,23.53,3-.46,5.17-10.81,5.17-10.81-.24-2.35,1.14,9.9,4.65,10.76a23.56,23.56,0,0,0,8.13.07"/><ellipse class="cls-3" cx="17.35" cy="59.49" rx="3.84" ry="1.23" transform="translate(-34.53 25.59) rotate(-40.58)"/><ellipse class="cls-3" cx="17.35" cy="59.49" rx="1.27" ry="3.89" transform="matrix(0.76, -0.65, 0.65, 0.76, -34.53, 25.59)"/><line class="cls-4" x1="32.92" y1="28.89" x2="40.12" y2="28.89"/><line class="cls-5" x1="17.91" y1="38.67" x2="39.34" y2="38.67"/><ellipse class="cls-3" cx="26.89" cy="28.55" rx="0.75" ry="2.95" transform="translate(-11.79 22.08) rotate(-37.22)"/><ellipse class="cls-3" cx="26.83" cy="28.59" rx="2.38" ry="0.78" transform="translate(-11.83 22.05) rotate(-37.22)"/><line class="cls-6" x1="26.83" y1="49.36" x2="36.34" y2="49.36"/><ellipse class="cls-3" cx="21.85" cy="49.27" rx="0.41" ry="1.3" transform="translate(-25.7 23.9) rotate(-38.01)"/><ellipse class="cls-3" cx="21.85" cy="49.27" rx="1.31" ry="0.43" transform="translate(-25.7 23.9) rotate(-38.01)"/><ellipse class="cls-3" cx="13.57" cy="38.09" rx="0.41" ry="1.3" transform="translate(-16.22 10.75) rotate(-27.84)"/><ellipse class="cls-3" cx="13.57" cy="38.09" rx="1.31" ry="0.43" transform="translate(-16.22 10.75) rotate(-27.84)"/></svg>