<svg id="Layer_1" data-name="Layer 1" xmlns="http://www.w3.org/2000/svg" viewBox="0 0 365.67 247.83"><defs><style>.cls-1{fill:#056281;}.cls-2{fill:#007da4;}.cls-3{fill:#fff;}</style></defs><path class="cls-1" d="M25.93,138.89a2.13,2.13,0,0,1-2.07-2.08v-16h1.38c4.85,0,8.17-.69,10-2.22,2.07-1.66,3-4.84,3-9.82V19.31a2.12,2.12,0,0,1,2.08-2.07H62.47a2.12,2.12,0,0,1,2.08,2.07v90.38A58.29,58.29,0,0,1,63,122.56a23.89,23.89,0,0,1-4.43,9,17.7,17.7,0,0,1-8.44,5.68A43.86,43.86,0,0,1,36.73,139Z"/><path class="cls-1" d="M70.22,111.21V76.75q0-12,5-19.52A16.49,16.49,0,0,1,89.88,49.9a23.1,23.1,0,0,1,13.42,4.29,2,2,0,0,0,2.77-.56,1.46,1.46,0,0,0,.28-1.1V19.31a2.11,2.11,0,0,1,2.07-2.07h19.79a2.12,2.12,0,0,1,2.08,2.07V134.05a2.13,2.13,0,0,1-2.08,2.07H108.56a2.13,2.13,0,0,1-2.08-2.07h0a2.12,2.12,0,0,0-2.07-2.08,2.29,2.29,0,0,0-1.25.41,21.43,21.43,0,0,1-13.28,5.13c-6.37,0-11.21-2.22-14.67-6.65S70.22,119.93,70.22,111.21Zm24,1.52a14.17,14.17,0,0,0,1.38,6.78,4.76,4.76,0,0,0,4.71,2.63,11.06,11.06,0,0,0,5.12-1.52,2,2,0,0,0,1.1-1.8V68a1.79,1.79,0,0,0-1.24-1.8,10.23,10.23,0,0,0-5-1.25,5,5,0,0,0-4.71,2.49A12.37,12.37,0,0,0,94,74.12Z"/><path class="cls-1" d="M135.83,117a29.19,29.19,0,0,1,1.1-7.75,35.83,35.83,0,0,1,2.63-6.36A19.89,19.89,0,0,1,144,97.78a47.22,47.22,0,0,1,5.12-4,53.64,53.64,0,0,1,6.09-3.32c2.49-1.11,4.57-2.08,6.09-2.63s3.6-1.38,6.23-2.21c1.8-.56,3-1.11,4.15-1.53a2,2,0,0,0,1.25-1.93V75.09a10.87,10.87,0,0,0-1.11-5.54,4.06,4.06,0,0,0-3.88-1.94c-3.18,0-5,2.22-5.12,6.78l-.41,4.3a2,2,0,0,1-2.08,1.79l-22.42-.83a8,8,0,0,1,.14-1.38c.14-.83,0-1.11.14-1.25v-.13c.83-9.28,3.87-16.06,9.13-20.49s13-6.64,23-6.64c8.72,0,15.36,2.35,19.79,6.92s6.78,10.79,6.78,18.55v39.58c.14,6.23.55,12.59,1.25,18.82a2,2,0,0,1-1.8,2.21H177.76a1.94,1.94,0,0,1-1.94-1.66c-.27-1.52-.55-2.76-.69-4a2,2,0,0,0-2.35-1.66,2,2,0,0,0-1.25.83,20.18,20.18,0,0,1-3.6,4.15,16.16,16.16,0,0,1-11.07,3.88A19.67,19.67,0,0,1,141.64,131,19,19,0,0,1,135.83,117Zm23.94-4.7a11.16,11.16,0,0,0,1.8,6.64,5.77,5.77,0,0,0,4.7,2.49,6.79,6.79,0,0,0,3.6-1.11A13.78,13.78,0,0,0,172.5,118a2.2,2.2,0,0,0,.42-1.24V97.51a2.13,2.13,0,0,0-2.08-2.08,1.58,1.58,0,0,0-1.11.42,26.42,26.42,0,0,0-6.22,6.22A17.19,17.19,0,0,0,159.77,112.32Z"/><path class="cls-2" d="M201.84,51.28h18.69a1.85,1.85,0,0,1,1.93,1.8l4.71,36.26a2,2,0,0,0,2.21,1.8,2.06,2.06,0,0,0,1.8-1.8l4.29-36.26a2.07,2.07,0,0,1,1.94-1.8H256a2,2,0,0,1,1.93,2.08v.27L241.7,134.46a1.94,1.94,0,0,1-1.94,1.66H218a1.94,1.94,0,0,1-1.94-1.66L199.9,53.63a2,2,0,0,1,1.67-2.35Z"/><path class="cls-2" d="M264,35V22.22a2.13,2.13,0,0,1,2.08-2.08h20.07a2.12,2.12,0,0,1,2.07,2.08h0V35A2.12,2.12,0,0,1,286.13,37H266.06A2.13,2.13,0,0,1,264,35Zm.14,99.1V53.22a2.13,2.13,0,0,1,2.08-2.08h19.93a2,2,0,0,1,2.07,1.94h0v80.83a2.12,2.12,0,0,1-2.07,2.07H266.2a1.92,1.92,0,0,1-2.08-1.93Z"/><path class="cls-2" d="M294,134.05V120.9a1.72,1.72,0,0,1,.14-.83L316,71.9a2,2,0,0,0-1-2.63,1.83,1.83,0,0,0-.83-.13H297.89a2.13,2.13,0,0,1-2.07-2.08h0V53.36a2,2,0,0,1,1.93-2.08H340.1a2,2,0,0,1,2.08,2.08V65.68a1.76,1.76,0,0,1-.14.83l-21.86,49a2.09,2.09,0,0,0,1.1,2.63,1.25,1.25,0,0,0,.69.14h18.55a2.13,2.13,0,0,1,2.08,2.07h0v13.71a2.13,2.13,0,0,1-2.08,2.07H296.09A2.23,2.23,0,0,1,294,134.05Z"/><circle class="cls-1" cx="225.48" cy="190.02" r="38.7" transform="matrix(0.16, -0.99, 0.99, 0.16, 1.79, 382.15)"/><path class="cls-3" d="M248.46,182.43l-35.6-.2a1.76,1.76,0,0,1-1.6-1.8,1.64,1.64,0,0,1,1.6-1.6l35.6.2a1.76,1.76,0,0,1,1.6,1.8,1.64,1.64,0,0,1-1.6,1.6Z"/><path class="cls-3" d="M244.66,193.83l-36.3-.2a.8.8,0,1,1,0-1.6l36.3.2a.79.79,0,0,1,.8.8c.1.5-.3.8-.8.8Z"/><path class="cls-3" d="M236.66,188.93l-36.3-.2a.85.85,0,1,1-.1-1.7h.2l36.3.2a.74.74,0,0,1,.7.9C237.36,188.63,237.06,188.93,236.66,188.93Z"/><path class="cls-3" d="M253.76,198.23l-36.9-.2a.4.4,0,0,1,0-.8l36.9.3a.43.43,0,0,1,.4.4A.45.45,0,0,1,253.76,198.23Z"/><path class="cls-3" d="M247.56,205.23,212,205a1.25,1.25,0,0,1,.1-2.5l35.6.2a1.25,1.25,0,1,1,.1,2.5Z"/><ellipse class="cls-3" cx="208.52" cy="202.85" rx="2.1" ry="0.6" transform="translate(-81.12 229.99) rotate(-49.56)"/><ellipse class="cls-3" cx="208.52" cy="202.85" rx="0.6" ry="1.8" transform="translate(-81.12 229.99) rotate(-49.56)"/><ellipse class="cls-3" cx="207.68" cy="179.92" rx="3.2" ry="1" transform="translate(-64.8 144.43) rotate(-33.48)"/><ellipse class="cls-3" cx="207.68" cy="179.92" rx="1.1" ry="3.2" transform="translate(-64.8 144.43) rotate(-33.48)"/><ellipse class="cls-3" cx="205.78" cy="192.65" rx="0.3" ry="1.4" transform="translate(-74.45 162.2) rotate(-36.91)"/><ellipse class="cls-3" cx="205.79" cy="192.63" rx="1.1" ry="0.4" transform="translate(-74.44 162.2) rotate(-36.91)"/><ellipse class="cls-3" cx="195.97" cy="187.94" rx="0.4" ry="1.3" transform="translate(-74.01 159.04) rotate(-37.69)"/><ellipse class="cls-3" cx="195.97" cy="187.94" rx="1.6" ry="0.4" transform="translate(-74.01 159.04) rotate(-37.69)"/><ellipse class="cls-3" cx="215.08" cy="197.63" rx="0.3" ry="1.1" transform="translate(-75.95 172.75) rotate(-37.69)"/><ellipse class="cls-3" cx="215.08" cy="197.63" rx="1.1" ry="0.4" transform="translate(-75.95 172.75) rotate(-37.69)"/><circle class="cls-1" cx="143.26" cy="190.03" r="38.7"/><path class="cls-3" d="M135.36,202.83q-5.7,0-7.2-3.9c-.4,1.5-1.6,3-4.4,3h-5.7a1.3,1.3,0,1,1,0-2.6h5.7c1.4,0,1.9-.4,2.1-1.7.3-2,.7-10.2.7-10.3a1.22,1.22,0,0,1,1.2-1.2,1.3,1.3,0,0,1,1.3,1.1c0,.1.8,7.6,1.3,10,.5,2.6,3,2.9,5,3h.3a7.55,7.55,0,0,0,4.8-3.1c1.3-2.2,2.5-11.4,3.1-16.3.3-2.1.7-9.6.7-9.7a1.26,1.26,0,0,1,2.5-.1s.8,6.3,1.2,10.2l.1,1.2c.7,6.3,1.7,15,4.3,16.9a1.31,1.31,0,0,0,1.2.3c.8-.2,2.4-4.1,3.2-7.9a1.25,1.25,0,0,1,1-1.4h0c.4,0,1.2,0,1.5,1.3,1.1,6.2,2.5,7.8,2.9,7.9a16.69,16.69,0,0,0,6.3,0,1.24,1.24,0,1,1,.6,2.4H169a19.91,19.91,0,0,1-7.3-.1c-.6-.1-2.2-.5-3.7-5.2-.9,2.5-2.2,5-4,5.3a3.88,3.88,0,0,1-3.1-.8c-3.3-2.5-4.3-10.5-5.2-17.8-.9,6.7-1.8,12.6-3.1,14.8a10,10,0,0,1-7,4.4l-.2.3Z"/><circle class="cls-1" cx="61.16" cy="190.03" r="38.7"/><polygon class="cls-3" points="63.76 193.13 42.96 203.03 42.66 178.03 62.56 167.23 63.76 193.13"/><ellipse class="cls-1" cx="48.23" cy="184.49" rx="2.1" ry="0.6" transform="translate(-136.88 138.69) rotate(-61.45)"/><ellipse class="cls-1" cx="48.23" cy="184.49" rx="0.6" ry="1.8" transform="translate(-136.88 138.69) rotate(-61.45)"/><ellipse class="cls-1" cx="57.37" cy="186.23" rx="3.2" ry="1" transform="translate(-41.02 18.03) rotate(-13.2)"/><ellipse class="cls-1" cx="57.37" cy="186.23" rx="1.1" ry="3.2" transform="translate(-41.02 18.03) rotate(-13.2)"/><ellipse class="cls-1" cx="47.47" cy="195.35" rx="0.3" ry="1.4" transform="translate(-150.22 158.84) rotate(-65.88)"/><ellipse class="cls-1" cx="47.51" cy="195.34" rx="1.1" ry="0.4" transform="translate(-150.18 158.87) rotate(-65.88)"/><ellipse class="cls-1" cx="55.45" cy="178.43" rx="0.4" ry="1.3" transform="translate(-113.51 98.65) rotate(-47.46)"/><ellipse class="cls-1" cx="55.45" cy="178.43" rx="1.6" ry="0.4" transform="translate(-113.51 98.65) rotate(-47.46)"/><ellipse class="cls-1" cx="50.15" cy="179.34" rx="0.3" ry="0.9" transform="translate(-115.89 95.04) rotate(-47.46)"/><ellipse class="cls-1" cx="50.15" cy="179.34" rx="0.9" ry="0.3" transform="translate(-115.89 95.04) rotate(-47.46)"/><ellipse class="cls-1" cx="51.06" cy="190.42" rx="0.3" ry="1.1" transform="translate(-107.93 73.85) rotate(-38.74)"/><ellipse class="cls-1" cx="51.06" cy="190.42" rx="1.1" ry="0.4" transform="translate(-107.93 73.85) rotate(-38.74)"/><path class="cls-3" d="M51.86,207.93a1.67,1.67,0,0,1-1.6-1.7,1.69,1.69,0,0,1,.9-1.4l18-8.2-.9-22.5a1.68,1.68,0,0,1,1.6-1.8h0a1.67,1.67,0,0,1,1.8,1.5v.1l.9,23.7a1.78,1.78,0,0,1-1,1.6l-19,8.7Z"/><path class="cls-3" d="M63.56,212.23a1.69,1.69,0,0,1-1.7-1.7,1.65,1.65,0,0,1,.9-1.5l15.2-7.6-.8-20.2a1.67,1.67,0,0,1,1.6-1.7h0a1.67,1.67,0,0,1,1.7,1.6l.8,21.3a1.46,1.46,0,0,1-.9,1.5L64.26,212A.84.84,0,0,1,63.56,212.23Z"/><circle class="cls-1" cx="307.29" cy="191.52" r="38.3"/><polygon class="cls-3" points="311.18 189.12 311.18 186.31 308.38 186.31 308.38 183.5 305.56 183.5 302.74 183.5 302.74 186.31 299.93 186.31 299.93 189.12 297.11 189.12 297.11 191.94 297.11 194.75 299.93 194.75 299.93 197.57 302.74 197.57 302.74 200.38 305.56 200.38 308.38 200.38 308.38 197.57 311.18 197.57 311.18 194.75 314 194.75 314 191.94 314 189.12 311.18 189.12"/><rect class="cls-3" x="282.09" y="191.52" width="44.99" height="1.43"/><rect class="cls-3" x="304.84" y="170.45" width="1.43" height="40.69"/><rect class="cls-3" x="286.24" y="212.94" width="1.43" height="1.43"/><rect class="cls-3" x="290.94" y="211.85" width="1.43" height="1.43"/><rect class="cls-3" x="285.53" y="202.48" width="1.43" height="1.43"/><rect class="cls-3" x="286.95" y="202.48" width="1.43" height="1.43"/><rect class="cls-3" x="286.95" y="203.91" width="1.43" height="1.43"/><rect class="cls-3" x="326.05" y="181.5" width="1.43" height="1.43"/><rect class="cls-3" x="322.05" y="199.67" width="1.43" height="1.43"/><rect class="cls-3" x="312.88" y="212.99" width="1.43" height="1.43"/><rect class="cls-3" x="314.31" y="214.41" width="1.43" height="1.43"/><rect class="cls-3" x="314.31" y="212.99" width="1.43" height="1.43"/><rect class="cls-3" x="315.74" y="212.99" width="1.43" height="1.43"/><rect class="cls-3" x="314.31" y="211.56" width="1.43" height="1.43"/><rect class="cls-3" x="293.79" y="166.21" width="1.43" height="1.43"/><rect class="cls-3" x="292.36" y="166.21" width="1.43" height="1.43"/><rect class="cls-3" x="293.79" y="167.64" width="1.43" height="1.43"/><rect class="cls-3" x="292.36" y="167.64" width="1.43" height="1.43"/><rect class="cls-3" x="290.94" y="168.98" width="1.43" height="1.43"/><rect class="cls-3" x="295.21" y="164.78" width="1.43" height="1.43"/><rect class="cls-3" x="317.54" y="174.94" width="1.43" height="1.43"/><rect class="cls-3" x="317.54" y="173.51" width="1.43" height="1.43"/><rect class="cls-3" x="316.19" y="173.51" width="1.43" height="1.43"/><rect class="cls-3" x="314.77" y="173.51" width="1.43" height="1.43"/><rect class="cls-3" x="316.19" y="172.08" width="1.43" height="1.43"/><rect class="cls-3" x="314.77" y="172.08" width="1.43" height="1.43"/><rect class="cls-3" x="316.19" y="174.94" width="1.43" height="1.43"/><rect class="cls-3" x="287.32" y="177.96" width="1.43" height="1.43"/><rect class="cls-3" x="292.79" y="180.79" width="1.43" height="1.43"/><rect class="cls-3" x="282.61" y="180.08" width="1.43" height="1.43"/><rect class="cls-3" x="328.82" y="171.21" width="1.43" height="1.43"/><rect class="cls-3" x="304.84" y="212.56" width="1.43" height="1.43"/><rect class="cls-3" x="304.84" y="167.6" width="1.43" height="1.43"/><rect class="cls-3" x="328.01" y="191.52" width="1.43" height="1.43"/><rect class="cls-3" x="332.01" y="191.52" width="1.43" height="1.43"/><rect class="cls-3" x="279.62" y="191.52" width="1.43" height="1.43"/><rect class="cls-3" x="275.01" y="191.52" width="1.43" height="1.43"/><rect class="cls-3" x="339.29" y="191.52" width="1.43" height="1.43"/><rect class="cls-3" x="304.84" y="164.05" width="1.43" height="1.43"/><rect class="cls-3" x="304.84" y="216.07" width="1.43" height="1.43"/><rect class="cls-3" x="304.84" y="157.66" width="1.43" height="1.43"/><rect class="cls-3" x="304.84" y="222.41" width="1.43" height="1.43"/></svg>