<?xml version="1.0" encoding="UTF-8"?>
<svg xmlns="http://www.w3.org/2000/svg" xmlns:xlink="http://www.w3.org/1999/xlink" version="1.1" viewBox="0 0 66.6 47">
  <defs>
    <style>
      .cls-1, .cls-2, .cls-3, .cls-4, .cls-5, .cls-6, .cls-7, .cls-8, .cls-9, .cls-10 {
        fill: #221f20;
      }

      .cls-1, .cls-2, .cls-9 {
        font-size: 12px;
      }

      .cls-11 {
        fill: #010101;
      }

      .cls-2, .cls-3, .cls-7, .cls-12 {
        font-family: PTMono-Bold, 'PT Mono';
        font-weight: 700;
      }

      .cls-3, .cls-5, .cls-6, .cls-10 {
        font-size: 25px;
      }

      .cls-13, .cls-9 {
        font-family: HighwayGothic, 'Highway Gothic';
      }

      .cls-14 {
        fill: #e79dbf;
      }

      .cls-5 {
        font-family: HiraKakuStd-W8-83pv-RKSJ-H, 'Hiragino Kaku Gothic Std';
      }

      .cls-6 {
        font-family: BMDoHyeon-OTF-KSCpc-EUC-H, 'BM Dohyeon';
      }

      .cls-7 {
        font-size: 7px;
      }

      .cls-8 {
        font-size: 32px;
      }

      .cls-8, .cls-10 {
        font-family: PatuaOne-Regular, 'Patua One';
      }
    </style>
  </defs>
  <!-- Generator: Adobe Illustrator 28.7.2, SVG Export Plug-In . SVG Version: 1.2.0 Build 154)  -->
  <g>
    <g id="Layer_1">
      <g id="Kgt5J8.tif">
        <image id="Layer_0" width="62" height="62" transform="translate(459.8 40.5) scale(.5)" xlink:href="api-1.png"/>
      </g>
      <g id="w2i81C.tif">
        <image id="Layer_0-2" data-name="Layer_0" width="50" height="60" transform="translate(405.8 42) scale(.5)" xlink:href="api-2.png"/>
      </g>
      <text class="cls-9" transform="translate(282.2 -60.3)"><tspan x="0" y="0">&lt;API&gt;</tspan></text>
      <text class="cls-1" transform="translate(346 -62.7)"><tspan class="cls-13" x="0" y="0">&lt;</tspan><tspan class="cls-12" x="7" y="0">API</tspan><tspan class="cls-13" x="28.6" y="0">&gt;</tspan></text>
      <text class="cls-2" transform="translate(445.7 -23.4)"><tspan x="0" y="0">API</tspan></text>
      <text class="cls-1" transform="translate(339.2 -30.3)"><tspan class="cls-13" x="0" y="0">&lt;</tspan><tspan class="cls-12" x="7" y="0">api</tspan><tspan class="cls-13" x="28.6" y="0">&gt;</tspan></text>
      <text class="cls-2" transform="translate(364.8 -11.9)"><tspan x="0" y="0">api</tspan></text>
      <g id="EOJqSm.tif">
        <image id="Layer_0-3" data-name="Layer_0" width="102" height="88" transform="translate(403.8 241) scale(.5)" xlink:href="api-3.png"/>
      </g>
      <path class="cls-11" d="M468.3-15l4.6-4.6-4.6-4.6,1.4-1.4,6,6-6,6-1.4-1.4"/>
      <path class="cls-11" d="M534.5-50.5v15.5h6.2v-3.1h-3.1v-9.3h3.1v-3.1h-6.2M565.6-45.9v18.6c0,1.7-1.4,3.1-3.1,3.1h-24.9c-1.7,0-3.1-1.4-3.1-3.1v-4.7h3.1v4.7h24.9v-18.6h0v-3.1h0c1.7,0,3.1,1.4,3.1,3.1Z"/>
      <path class="cls-11" d="M688.4,7v18.6c0,1.7-1.4,3.1-3.1,3.1h-24.9c-1.7,0-3.1-1.4-3.1-3.1v-4.7h3.1v4.7h24.9V7h0v-3.1h0c1.7,0,3.1,1.4,3.1,3.1Z"/>
      <polygon class="cls-11" points="445 -26.8 440.4 -31.4 445 -36 443.6 -37.4 437.6 -31.4 443.6 -25.4 445 -26.8"/>
      <rect class="cls-14" x="557.1" y="8.3" width="22.6" height="20.7"/>
      <text class="cls-7" transform="translate(490.6 11.7)"><tspan x="0" y="0">api</tspan></text>
      <text class="cls-3" transform="translate(624.8 -57.9)"><tspan x="0" y="0">api</tspan></text>
      <text class="cls-7" transform="translate(541.3 -40.6)"><tspan x="0" y="0">api</tspan></text>
      <polyline class="cls-11" points="486.9 .7 486.9 6.2 489.1 6.2 489.1 5.1 488 5.1 488 1.8 489.1 1.8 489.1 .7 486.9 .7"/>
      <polyline class="cls-11" points="507.1 18.1 507.1 12.6 504.9 12.6 504.9 13.7 506 13.7 506 17 504.9 17 504.9 18.1 507.1 18.1"/>
      <text class="cls-7" transform="translate(598.5 -10.6)"><tspan x="0" y="0">api</tspan></text>
      <polyline class="cls-11" points="594.8 -15.3 594.8 -9.8 597 -9.8 597 -10.9 595.9 -10.9 595.9 -14.2 597 -14.2 597 -15.3 594.8 -15.3"/>
      <polyline class="cls-11" points="615 -9.8 615 -15.3 612.8 -15.3 612.8 -14.2 613.9 -14.2 613.9 -10.9 612.8 -10.9 612.8 -9.8 615 -9.8"/>
      <polyline class="cls-11" points="556.8 -38.1 553.7 -38.1 553.7 -35 559.9 -35 559.9 -50.5 553.7 -50.5 553.7 -47.4 556.8 -47.4 556.8 -38.1"/>
      <polyline class="cls-11" points="673.3 -47.9 670.2 -47.9 670.2 -44.1 676.4 -44.1 676.4 -85.3 670.2 -85.3 670.2 -81.7 673.3 -81.7 673.3 -52.3"/>
      <polyline class="cls-11" points="621.9 -81.5 625 -81.5 625 -85.3 618.7 -85.3 618.7 -44.1 625 -44.1 625 -47.7 621.9 -47.7 621.9 -77.1"/>
      <text class="cls-3" transform="translate(194.8 81.9)"><tspan x="0" y="0">api</tspan></text>
      <text class="cls-10" transform="translate(181.4 52.4)"><tspan x="0" y="0">API</tspan></text>
      <g>
        <path class="cls-4" d="M11.6,19.5c0-.3,0-.7,0-1.1,2.1-1.1,4.3-1.7,6.6-1.7s4.1.4,5.1,1.3c1,.9,1.5,2.4,1.5,4.5v7.1c.8.2,1.4.3,1.8.6v2.9c-1.1.5-2.7.8-4.8.8-.2-.6-.4-1.3-.6-2.1-1,1.4-2.7,2.1-5.2,2.1s-2.8-.4-3.8-1.3-1.6-2-1.6-3.5.5-2.7,1.5-3.5c1-.9,2.5-1.3,4.4-1.3h3.6v-1.6c0-1.7-.9-2.6-2.8-2.6s-1.3,0-1.7.2c0,.9-.2,1.6-.4,2.2h-3.3c-.4-.8-.6-1.8-.6-3ZM17.6,30.5c1.1,0,2-.3,2.7-1v-2.7h-2.3c-1.6,0-2.4.6-2.4,1.8s.2,1,.5,1.4c.3.4.8.5,1.5.5Z"/>
        <path class="cls-4" d="M27.9,17c1.2-.3,2.3-.4,3.3-.4s1.8,0,2.4,0v1.6c1.5-1,3.1-1.6,4.7-1.6s3.8.6,4.8,1.9c1,1.3,1.5,3.4,1.5,6.3s-.2,3-.7,4.1c-.5,1.2-1.1,2.1-1.9,2.8-1.5,1.3-3.3,2-5.4,2s-1.8,0-2.6-.3v2.9c1.3.4,2.1.8,2.5,1.2l-.3,2.6h-8.3l-.3-2.6c.3-.4.9-.8,1.8-1.1v-15.9c-.8-.3-1.4-.6-1.8-1.1l.3-2.6ZM36.3,30.5c1.1,0,2-.5,2.6-1.5.6-1,1-2.3,1-4.1s-.2-2.9-.5-3.6c-.4-.6-1-1-1.9-1-1.4,0-2.5.3-3.4,1v8.8c.7.2,1.4.3,2.3.3Z"/>
        <path class="cls-4" d="M46.8,17c1.2-.3,2.4-.4,3.5-.4s2,0,2.7,0v13.2c.9.3,1.5.7,1.8,1.1l-.3,2.6h-7.6l-.3-2.6c.3-.4.9-.8,1.8-1.1v-9.2c-.8-.3-1.4-.6-1.8-1.1l.3-2.6ZM50.6,14.7c-1.8,0-2.8-.8-2.8-2.5s.9-2.5,2.8-2.5,2.8.8,2.8,2.5-.9,2.5-2.8,2.5Z"/>
      </g>
      <text class="cls-8" transform="translate(-79.1 20.5)"><tspan x="0" y="0">api</tspan></text>
      <text class="cls-6" transform="translate(160.6 22.6)"><tspan x="0" y="0">api</tspan></text>
      <text class="cls-5" transform="translate(82.4 -18.9)"><tspan x="0" y="0">API</tspan></text>
      <polyline class="cls-11" points="59.9 40.1 55.8 40.1 55.8 44.9 64 44.9 64 3.7 55.8 3.7 55.8 6.3 59.9 6.3 59.9 36.7"/>
      <polyline class="cls-11" points="7 6.5 11.1 6.5 11.1 3.7 2.9 3.7 2.9 44.9 11.1 44.9 11.1 40.3 7 40.3 7 11.9"/>
      <text class="cls-3" transform="translate(7.8 -51.5)"><tspan x="0" y="0">api</tspan></text>
      <polyline class="cls-11" points="56.2 -41.6 53.1 -41.6 53.1 -37.8 59.3 -37.8 59.3 -79 53.1 -79 53.1 -75.4 56.2 -75.4 56.2 -46"/>
      <polyline class="cls-11" points="4.8 -75.2 7.9 -75.2 7.9 -79 1.7 -79 1.7 -37.8 7.9 -37.8 7.9 -41.4 4.8 -41.4 4.8 -70.8"/>
    </g>
  </g>
</svg>