<?xml version="1.0" encoding="UTF-8"?>
<svg id="Layer_1" xmlns="http://www.w3.org/2000/svg" version="1.1" viewBox="0 0 36.7 38.3">
  <!-- Generator: Adobe Illustrator 30.6.0, SVG Export Plug-In . SVG Version: 2.1.4 Build 109)  -->
  <defs>
    <style>
      .st0 {
        fill: #231f20;
      }

      .st1 {
        isolation: isolate;
      }
    </style>
  </defs>
  <g class="st1">
    <g class="st1">
      <path class="st0" d="M6.2,35.2c0-.3-.2-.6-.5-.8s-.9-.4-1.7-.6c-1.2-.3-2.2-.6-2.8-1.1s-1-1.2-1-2,.4-1.7,1.1-2.3,1.8-1,3.1-1,2.4.3,3.2.9,1.2,1.4,1.1,2.4h0c0,0-2.8,0-2.8,0,0-.4-.1-.8-.4-1s-.7-.4-1.2-.4-.8.1-1.1.3-.4.5-.4.8.1.6.4.8.8.4,1.7.6c1.3.3,2.3.6,2.9,1.1s.9,1.2.9,2.1-.4,1.7-1.2,2.3-1.9.9-3.2.9-2.5-.4-3.3-1.1S0,35.7,0,34.8h0c0,0,2.6,0,2.6,0,0,.6.2,1,.6,1.2s.8.4,1.4.4.9-.1,1.2-.3.4-.5.4-.8Z"/>
      <path class="st0" d="M13.8,25h-2.9v-2.1h2.9v2.1ZM13.8,38.1h-2.9v-10.6h2.9v10.6Z"/>
      <path class="st0" d="M18.7,27.5v1.5c.5-.5.9-1,1.4-1.3s1.1-.4,1.7-.4c1.1,0,1.9.3,2.5,1s.9,1.7.9,3.2v6.6h-2.9v-6.6c0-.7-.1-1.2-.4-1.5s-.7-.4-1.3-.4-.7,0-1,.2-.6.4-.8.7v7.7h-2.9v-10.6h2.7Z"/>
      <path class="st0" d="M30.2,28.9c.3-.5.7-.9,1.2-1.1s1-.4,1.6-.4c1.1,0,2,.4,2.6,1.1s.9,1.9.9,3.4v6.3h-2.9v-6.3c0-.8-.1-1.4-.4-1.7s-.7-.5-1.3-.5-.7,0-1,.2c-.3.1-.5.3-.7.6v7.8h-2.9v-15.2h2.9v6Z"/>
    </g>
  </g>
  <rect class="st0" x=".3" y="17.3" width="36.4" height="2"/>
  <g class="st1">
    <g class="st1">
      <path class="st0" d="M19.3,12.8h-2.6V2.3h-2.6V.5l5.2-.5v12.8Z"/>
    </g>
  </g>
</svg>