<svg id="Layer_1" data-name="Layer 1" xmlns="http://www.w3.org/2000/svg" viewBox="0 0 27.36 23.86"><defs><style>.cls-1{fill:#231f20;}</style></defs><rect class="cls-1" x="5.21" y="9.39" width="2.96" height="2.96" rx="1.48"/><path class="cls-1" d="M11.12,4.2V19.14H24.45V4.2Zm3.5,8.15h0a1.49,1.49,0,0,1-1.49-1.48h0a1.49,1.49,0,0,1,1.49-1.48h0a1.48,1.48,0,0,1,1.48,1.48h0A1.48,1.48,0,0,1,14.62,12.35Zm6.16,0h0a1.48,1.48,0,0,1-1.48-1.48h0a1.48,1.48,0,0,1,1.48-1.48h0a1.48,1.48,0,0,1,1.48,1.48h0A1.48,1.48,0,0,1,20.78,12.35Z"/></svg>