<svg id="Layer_1" data-name="Layer 1" xmlns="http://www.w3.org/2000/svg" viewBox="0 0 40 20"><defs><style>.cls-1{fill:#010101;}.cls-2{fill:none;}.cls-3{fill:#231f20;}</style></defs><path class="cls-1" d="M17,.83H3a2,2,0,0,0-2,2v14a2,2,0,0,0,2,2H17a2,2,0,0,0,2-2v-14a2,2,0,0,0-2-2m0,2v14H3v-14H17m-9,12-4-4L5.41,9.41,8,12l6.59-6.59L16,6.83"/><path class="cls-2" d="M29.83,5a5,5,0,1,1,.34,10,5,5,0,0,1-3.91-1.72l-2.44,1.78a8,8,0,1,0-.41-9.58l2.43,1.76A5,5,0,0,1,29.83,5Z"/><path class="cls-2" d="M20.33,3.85V7.47a10.13,10.13,0,0,1,1.18-2.76Z"/><path class="cls-1" d="M29.66,0A10,10,0,0,0,21.8,4.3l1.61,1.18a8,8,0,1,1,.41,9.58L22.2,16.24A10,10,0,1,0,29.66,0Z"/><polygon class="cls-2" points="20.83 16 28.5 10.41 20.83 4.83 20.83 8.41 20.5 8.41 20.5 12.41 20.83 12.41 20.83 16"/><path class="cls-1" d="M29.83,5a5,5,0,0,0-4,2.24l3.25,2.37,1.11.81-1.11.8-2.83,2.06A5,5,0,0,0,30.17,15a5,5,0,1,0-.34-10Z"/><polygon class="cls-3" points="28.5 10.41 20.83 4.83 20.83 8.41 20.5 8.41 17.5 8.41 17.5 12.41 20.5 12.41 20.83 12.41 20.83 16 28.5 10.41"/></svg>