<svg id="Layer_1" data-name="Layer 1" xmlns="http://www.w3.org/2000/svg" viewBox="0 0 77.35 77.35"><defs><style>.cls-1{fill:#0a6382;}.cls-2{fill:#fff;}</style></defs><circle class="cls-1" cx="38.68" cy="38.68" r="38.67"/><polygon class="cls-2" points="41.28 41.73 20.48 51.71 20.16 26.69 40.12 15.88 41.28 41.73"/><ellipse class="cls-1" cx="25.76" cy="33.21" rx="2.07" ry="0.58" transform="translate(-15.73 39.97) rotate(-61.45)"/><ellipse class="cls-1" cx="25.76" cy="33.21" rx="0.6" ry="1.83" transform="translate(-15.73 39.97) rotate(-61.45)"/><ellipse class="cls-1" cx="34.92" cy="34.88" rx="3.2" ry="1.02" transform="translate(-7.04 8.9) rotate(-13.2)"/><ellipse class="cls-1" cx="34.92" cy="34.88" rx="1.06" ry="3.25" transform="translate(-7.04 8.9) rotate(-13.2)"/><ellipse class="cls-1" cx="25.06" cy="44.02" rx="0.34" ry="1.36" transform="translate(-25.36 48.9) rotate(-65.87)"/><ellipse class="cls-1" cx="25.05" cy="44.05" rx="1.1" ry="0.36" transform="translate(-25.39 48.9) rotate(-65.87)"/><ellipse class="cls-1" cx="32.99" cy="27.09" rx="0.41" ry="1.29" transform="translate(-9.27 33.08) rotate(-47.46)"/><ellipse class="cls-1" cx="32.99" cy="27.09" rx="1.59" ry="0.43" transform="translate(-9.27 33.08) rotate(-47.46)"/><ellipse class="cls-1" cx="27.69" cy="27.98" rx="0.29" ry="0.91" transform="translate(-11.65 29.47) rotate(-47.46)"/><ellipse class="cls-1" cx="27.69" cy="27.98" rx="0.92" ry="0.3" transform="translate(-11.65 29.47) rotate(-47.46)"/><ellipse class="cls-1" cx="28.57" cy="39.09" rx="0.34" ry="1.08" transform="translate(-18.18 26.48) rotate(-38.74)"/><ellipse class="cls-1" cx="28.57" cy="39.09" rx="1.1" ry="0.36" transform="translate(-18.18 26.48) rotate(-38.74)"/><path class="cls-2" d="M29.4,56.57a1.67,1.67,0,0,1-.72-3.15l18-8.24-.86-22.52a1.67,1.67,0,0,1,1.56-1.77h0a1.63,1.63,0,0,1,1.77,1.5.45.45,0,0,1,0,.11l.85,23.69a1.69,1.69,0,0,1-1,1.58l-19,8.66A1.46,1.46,0,0,1,29.4,56.57Z"/><path class="cls-2" d="M41.1,60.89a1.68,1.68,0,0,1-1.68-1.67,1.66,1.66,0,0,1,.91-1.48l15.16-7.62L54.73,29.9a1.67,1.67,0,0,1,1.62-1.72h0a1.68,1.68,0,0,1,1.69,1.6l.78,21.28a1.66,1.66,0,0,1-.91,1.55l-16.1,8.1A1.55,1.55,0,0,1,41.1,60.89Z"/></svg>