<?xml version="1.0" encoding="utf-8"?>
<!-- Generator: Adobe Illustrator 27.5.0, SVG Export Plug-In . SVG Version: 6.00 Build 0)  -->
<svg version="1.1" id="Layer_1" xmlns="http://www.w3.org/2000/svg" xmlns:xlink="http://www.w3.org/1999/xlink" x="0px" y="0px"
	 viewBox="0 0 23.5 24.7" style="enable-background:new 0 0 23.5 24.7;" xml:space="preserve">
<style type="text/css">
	.st0{fill:#010101;}
</style>
<path class="st0" d="M7.8,20v-5.7h3.8V20h4.8v-7.6h2.9L9.7,3.8l-9.5,8.6H3V20H7.8z"/>
<path class="st0" d="M18,14.4c-0.3,0-0.5,0.2-0.5,0.5c0,0,0,0,0,0v2.9c0,0.3,0.2,0.5,0.5,0.5c0,0,0,0,0,0h2.9c0.3,0,0.5-0.2,0.5-0.5
	c0,0,0,0,0,0v-0.8h-0.5v0.8H18V15h2.9v0.5h0.5V15c0-0.3-0.2-0.5-0.5-0.5c0,0,0,0,0,0 M19.5,16c-0.3,0-0.5,0.2-0.5,0.5c0,0,0,0,0,0
	v0.8h0.5v-0.8h2.9v2.9h-2.9v-0.5H19v0.5c0,0.3,0.2,0.5,0.5,0.5c0,0,0,0,0,0h2.9c0.3,0,0.5-0.2,0.5-0.5c0,0,0,0,0,0v-2.9
	c0-0.3-0.2-0.5-0.5-0.5c0,0,0,0,0,0L19.5,16"/>
</svg>
