<?xml version="1.0" encoding="utf-8"?>
<!-- Generator: Adobe Illustrator 27.5.0, SVG Export Plug-In . SVG Version: 6.00 Build 0)  -->
<svg version="1.1" id="Layer_1" xmlns="http://www.w3.org/2000/svg" xmlns:xlink="http://www.w3.org/1999/xlink" x="0px" y="0px"
	 viewBox="0 0 23.5 24.7" style="enable-background:new 0 0 23.5 24.7;" xml:space="preserve">
<style type="text/css">
	.st0{fill:#010101;}
</style>
<g>
	<path class="st0" d="M12.2,11.2h5.9V9.7h3.2L10.7,0.2L0.1,9.7h3.1v8.4h5.3v-6.3H11C11.3,11.5,11.7,11.2,12.2,11.2z"/>
</g>
<path class="st0" d="M12.7,12.1c-0.6,0-1,0.4-1,1l0,0v5.8c0,0.6,0.4,1,1,1l0,0h5.8c0.6,0,1-0.4,1-1l0,0v-1.6h-1v1.6h-5.8v-5.8h5.8v1
	h1v-1c0-0.6-0.4-1-1-1l0,0 M15.8,15.3c-0.6,0-1,0.4-1,1l0,0V18h1v-1.6h5.8v5.8h-5.8v-1h-1v1c0,0.6,0.4,1,1,1l0,0h5.8
	c0.6,0,1-0.4,1-1l0,0v-5.8c0-0.6-0.4-1-1-1l0,0H15.8"/>
</svg>
