<?xml version="1.0" encoding="utf-8"?>
<!-- Generator: Adobe Illustrator 27.5.0, SVG Export Plug-In . SVG Version: 6.00 Build 0)  -->
<svg version="1.1" id="Layer_1" xmlns="http://www.w3.org/2000/svg" xmlns:xlink="http://www.w3.org/1999/xlink" x="0px" y="0px"
	 viewBox="0 0 23.5 24.7" style="enable-background:new 0 0 23.5 24.7;" xml:space="preserve">
<style type="text/css">
	.st0{fill:#010101;}
</style>
<g>
	<path class="st0" d="M15.5,15.1h2.5V9.9h3.2L10.6,0.3L0.1,9.9h3.1v8.4h5.3V12h4.2v6.3h1.7v-2C14.4,15.7,14.9,15.1,15.5,15.1z"/>
</g>
<path class="st0" d="M16.1,16.1c-0.4,0-0.7,0.3-0.7,0.7l0,0v3.9c0,0.4,0.3,0.7,0.7,0.7l0,0H20c0.4,0,0.7-0.3,0.7-0.7l0,0v-1.1H20
	v1.1h-3.9v-3.9H20v0.7h0.7v-0.7c0-0.4-0.3-0.7-0.7-0.7l0,0 M18.2,18.3c-0.4,0-0.7,0.3-0.7,0.7l0,0v1.1h0.7V19h3.9v3.9h-3.9v-0.7
	h-0.7v0.7c0,0.4,0.3,0.7,0.7,0.7l0,0h3.9c0.4,0,0.7-0.3,0.7-0.7l0,0V19c0-0.4-0.3-0.7-0.7-0.7l0,0H18.2"/>
</svg>
