<?xml version="1.0" encoding="utf-8"?>
<!-- Generator: Adobe Illustrator 27.2.0, SVG Export Plug-In . SVG Version: 6.00 Build 0)  -->
<svg version="1.1" id="Layer_1" xmlns="http://www.w3.org/2000/svg" xmlns:xlink="http://www.w3.org/1999/xlink" x="0px" y="0px"
	 viewBox="0 0 337.2 111.9" style="enable-background:new 0 0 337.2 111.9;" xml:space="preserve">
<style type="text/css">
	.st0{fill:#367BA0;}
	.st1{fill:#2A607E;}
</style>
<path class="st0" d="M218,32.5h13.1c1,0,1.9,0.7,2,1.7l3,23.2c0,1.1,0.9,2,2,2s2-0.9,2-2l2.8-23.2c0.1-1,1-1.8,2-1.8H258
	c1.1,0,2,0.9,2,2c0,0.1,0,0.3,0,0.4l-12.4,60.1c-0.2,0.9-1,1.6-2,1.6H230c-1,0-1.8-0.7-2-1.6l-12-60.2c-0.2-1.1,0.5-2.1,1.6-2.4
	C217.7,32.5,217.9,32.5,218,32.5z"/>
<path class="st0" d="M265.3,19.7V11c0-1.1,0.9-2,2-2h14.2c1.1,0,2,0.9,2,2v8.7c0,1.1-0.9,2-2,2h-14.2
	C266.2,21.7,265.3,20.8,265.3,19.7L265.3,19.7z M265.4,94.7V34.5c0-1.1,0.9-2,2-2h14.1c1.1,0,2,0.9,2,2v60.2c0,1.1-0.9,2-2,2h-14.1
	C266.3,96.7,265.4,95.8,265.4,94.7L265.4,94.7z"/>
<path class="st0" d="M288.9,94.7v-9.4c0-0.3,0.1-0.6,0.2-0.8l16.2-35.7c0.4-1,0-2.2-1.1-2.6c-0.2-0.1-0.5-0.2-0.8-0.2h-11.2
	c-1.1,0-2-0.9-2-2v-9.5c0-1.1,0.9-2,2-2h31.1c1.1,0,2,0.9,2,2v8.8c0,0.3-0.1,0.6-0.2,0.8l-16.2,36.3c-0.5,1,0,2.2,1,2.6
	c0.3,0.1,0.5,0.2,0.8,0.2h12.8c1.1,0,2,0.9,2,2v9.4c0,1.1-0.9,2-2,2h-32.7C289.7,96.7,288.9,95.8,288.9,94.7z"/>
<path class="st1" d="M110.1,94.3v-81c0-1.8,1.6-3.3,3.4-3.3h12.6c1.9,0,3.4,1.5,3.4,3.4v81c0,1.9-1.5,3.4-3.4,3.4h-12.6
	C111.6,97.8,110.1,96.3,110.1,94.3C110.1,94.4,110.1,94.3,110.1,94.3z"/>
<g>
	<path class="st1" d="M57.4,8.3C31.8,8.3,11,29.1,11,54.7s20.8,46.4,46.4,46.4s46.4-20.8,46.4-46.4S83.1,8.3,57.4,8.3z M66.5,32.9
		v-1.7h1.7H70v1.7h1.6v1.7l0,0v1.7H70h-0.1h-1.6v-1.7h-1.7v-1.7H66.5z M54.5,13.7h1.7v1.7h-1.7V13.7z M54.5,21.4h1.7v1.7h-1.7V21.4z
		 M54.5,25.7h1.7v1.7h-1.7V25.7z M37.6,27.4h1.7v-1.6v-1.7H41l0,0h1.7v-1.7h1.7v1.7h-1.7v1.7v1.7H41l0,0h-1.7v1.6h-1.7V27.4z
		 M41.6,41.7v1.7h-1.7v-1.7H41.6z M33.3,38.3H35V40h-1.7V38.3z M27.6,40.8h1.7v1.7h-1.7V40.8z M20.1,56.4h-1.7v-1.7h1.7V56.4z
		 M25.7,56.4H24v-1.7h1.7V56.4z M33.7,82.4H32v-1.7h1.7V82.4z M34.5,69.7L34.5,69.7v1.7h-1.7v-1.7h-1.7V68h1.7h1.7V69.7z M39.4,81.1
		h-1.7v-1.7h1.7V81.1z M56.2,93.8h-1.7v-1.7h1.7V93.8z M56.2,86.1h-1.7v-1.7h1.7V86.1z M56.2,81.9h-1.7v-1.7h1.7V81.9z M69.4,82.4
		h-1.7v1.7H66v-1.7h-1.7v-1.7H66V79h1.7v1.7h1.7C69.4,80.7,69.4,82.4,69.4,82.4z M77,66.3h-1.7v-1.7H77V66.3z M81.4,56.4H65.6v2.2
		h-3.4V62h-3.4v3.4h-2.5v13h-1.7v-13h-2.5V62h-3.4v-3.4h-3.4v-2.2H26.9v-1.7h18.2v-2.9h3.4v-3.4h3.4V45h2.5V29.2h1.7V45h2.5v3.4H62
		v3.4h3.4v2.9h15.8v1.7C81.2,56.4,81.4,56.4,81.4,56.4z M81.9,44.3h-1.7v-1.7h1.7V44.3z M84.3,56.4h-1.7v-1.7h1.7V56.4z M85.2,31.8
		h-1.7v-1.7h1.7V31.8z M89.1,56.4h-1.7v-1.7h1.7V56.4z M96.2,56.4v-1.7h1.7v1.7H96.2z"/>
	<polygon class="st1" points="32.8,69.7 34.5,69.7 34.5,69.7 	"/>
	<polygon class="st1" points="66,80.7 67.7,80.7 67.7,80.7 	"/>
	<rect x="41.1" y="24.1" class="st1" width="0" height="1.7"/>
	<rect x="41.1" y="25.8" class="st1" width="0" height="1.7"/>
	<polygon class="st1" points="70,34.6 71.6,34.6 71.6,34.6 	"/>
	<polygon class="st1" points="68.2,34.6 69.8,34.6 69.8,34.6 	"/>
	<polygon class="st1" points="69.9,34.6 70,34.6 70,34.6 	"/>
</g>
<path class="st1" d="M138.5,95.1v-61c0-0.9,0.7-1.6,1.6-1.6l0,0H155c0.9,0,1.6,0.7,1.6,1.6l0,0l0,0c0,0.9,0.7,1.6,1.6,1.6
	c0.3,0,0.7-0.1,1-0.3c3.7-2.7,8.2-4.2,12.8-4.1c2.4,0,4.8,0.6,6.8,1.9c1.4,1,2.6,2.2,3.5,3.7c0.5,0.8,1.5,1,2.2,0.5
	c0.1-0.1,0.2-0.1,0.3-0.2c4-3.9,9.4-6,14.9-5.9c3.5-0.1,6.9,1.4,9.2,4.1c2.3,2.8,3.4,6.5,3.4,11.4V95c0,0.9-0.7,1.6-1.6,1.6l0,0
	h-14.8c-0.9,0-1.6-0.7-1.6-1.6l0,0V48.6c0.1-1.4-0.2-2.7-0.9-3.9c-0.7-0.8-1.8-1.2-2.9-1.1c-2.2,0.2-4.2,1-5.9,2.4v49.1
	c0,0.9-0.7,1.6-1.6,1.6h-14.9c-0.9,0-1.6-0.7-1.6-1.6l0,0V48.6c0.1-1.3-0.2-2.7-0.9-3.8c-0.7-0.8-1.8-1.3-2.9-1.1
	c-1.9,0.2-3.7,0.9-5.3,2c-0.5,0.3-0.7,0.8-0.7,1.4v48.1c0,0.9-0.7,1.6-1.6,1.6h-14.8C139.3,96.7,138.5,96,138.5,95.1L138.5,95.1z"/>
</svg>
