<svg id="Layer_1" data-name="Layer 1" xmlns="http://www.w3.org/2000/svg" viewBox="0 0 92.76 92.76"><defs><style>.cls-1{fill:#215a6f;}.cls-2{fill:#fff;}</style></defs><circle class="cls-1" cx="46.38" cy="46.38" r="46.38"/><polygon class="cls-2" points="51.1 43.48 51.1 40.08 47.7 40.08 47.7 36.67 44.29 36.67 40.88 36.67 40.88 40.08 37.47 40.08 37.47 43.48 34.06 43.48 34.06 46.89 34.06 50.3 37.47 50.3 37.47 53.71 40.88 53.71 40.88 57.12 44.29 57.12 47.7 57.12 47.7 53.71 51.1 53.71 51.1 50.3 54.51 50.3 54.51 46.89 54.51 43.48 51.1 43.48"/><rect class="cls-2" x="15.87" y="46.38" width="54.48" height="1.73"/><rect class="cls-2" x="19.65" y="44.64" width="49.28" height="1.73" transform="translate(89.79 1.22) rotate(90)"/><rect class="cls-2" x="20.89" y="72.32" width="1.73" height="1.73"/><rect class="cls-2" x="26.58" y="71" width="1.73" height="1.73"/><rect class="cls-2" x="20.03" y="59.66" width="1.73" height="1.73"/><rect class="cls-2" x="21.75" y="59.66" width="1.73" height="1.73"/><rect class="cls-2" x="21.75" y="61.39" width="1.73" height="1.73"/><rect class="cls-2" x="69.1" y="34.25" width="1.73" height="1.73"/><rect class="cls-2" x="64.26" y="56.25" width="1.73" height="1.73"/><rect class="cls-2" x="53.16" y="72.38" width="1.73" height="1.73"/><rect class="cls-2" x="54.89" y="74.11" width="1.73" height="1.73"/><rect class="cls-2" x="54.89" y="72.38" width="1.73" height="1.73"/><rect class="cls-2" x="56.62" y="72.38" width="1.73" height="1.73"/><rect class="cls-2" x="54.89" y="70.65" width="1.73" height="1.73"/><rect class="cls-2" x="30.04" y="15.74" width="1.73" height="1.73"/><rect class="cls-2" x="28.31" y="15.74" width="1.73" height="1.73"/><rect class="cls-2" x="30.04" y="17.47" width="1.73" height="1.73"/><rect class="cls-2" x="28.31" y="17.47" width="1.73" height="1.73"/><rect class="cls-2" x="26.58" y="19.09" width="1.73" height="1.73"/><rect class="cls-2" x="31.76" y="14.01" width="1.73" height="1.73"/><rect class="cls-2" x="58.8" y="26.31" width="1.73" height="1.73"/><rect class="cls-2" x="58.8" y="24.58" width="1.73" height="1.73"/><rect class="cls-2" x="57.16" y="24.58" width="1.73" height="1.73"/><rect class="cls-2" x="55.44" y="24.58" width="1.73" height="1.73"/><rect class="cls-2" x="57.16" y="22.85" width="1.73" height="1.73"/><rect class="cls-2" x="55.44" y="22.85" width="1.73" height="1.73"/><rect class="cls-2" x="57.16" y="26.31" width="1.73" height="1.73"/><rect class="cls-2" x="22.2" y="29.96" width="1.73" height="1.73"/><rect class="cls-2" x="28.82" y="33.39" width="1.73" height="1.73"/><rect class="cls-2" x="16.5" y="32.53" width="1.73" height="1.73"/><rect class="cls-2" x="72.46" y="21.79" width="1.73" height="1.73"/><rect class="cls-2" x="43.42" y="71.87" width="1.73" height="1.73"/><rect class="cls-2" x="43.42" y="17.42" width="1.73" height="1.73"/><rect class="cls-2" x="71.48" y="46.38" width="1.73" height="1.73"/><rect class="cls-2" x="76.32" y="46.38" width="1.73" height="1.73"/><rect class="cls-2" x="12.88" y="46.38" width="1.73" height="1.73"/><rect class="cls-2" x="7.3" y="46.38" width="1.73" height="1.73"/><rect class="cls-2" x="85.14" y="46.38" width="1.73" height="1.73"/><rect class="cls-2" x="43.42" y="13.12" width="1.73" height="1.73"/><rect class="cls-2" x="43.42" y="76.11" width="1.73" height="1.73"/><rect class="cls-2" x="43.42" y="5.38" width="1.73" height="1.73"/><rect class="cls-2" x="43.42" y="83.79" width="1.73" height="1.73"/></svg>