<?xml version="1.0" encoding="UTF-8"?>
<svg id="Layer_1" data-name="Layer 1" xmlns="http://www.w3.org/2000/svg" width="77.35" height="77.35" viewBox="0 0 77.35 77.35">
  <defs>
    <style>
      .cls-1 {
        fill: #fff;
      }

      .cls-2 {
        fill: #0a6382;
      }
    </style>
  </defs>
  <circle class="cls-2" cx="38.47" cy="38.31" r="38.22"/>
  <polygon class="cls-1" points="42.36 35.92 42.36 33.12 39.56 33.12 39.56 30.31 36.75 30.31 33.94 30.31 33.94 33.12 31.13 33.12 31.13 35.92 28.32 35.92 28.32 38.73 28.32 41.54 31.13 41.54 31.13 44.35 33.94 44.35 33.94 47.16 36.75 47.16 39.56 47.16 39.56 44.35 42.36 44.35 42.36 41.54 45.17 41.54 45.17 38.73 45.17 35.92 42.36 35.92"/>
  <rect class="cls-1" x="13.33" y="38.31" width="44.9" height="1.43"/>
  <rect class="cls-1" x="36.03" y="17.29" width="1.43" height="40.61"/>
  <rect class="cls-1" x="17.46" y="59.68" width="1.43" height="1.43"/>
  <rect class="cls-1" x="22.15" y="58.6" width="1.43" height="1.43"/>
  <rect class="cls-1" x="16.75" y="49.25" width="1.43" height="1.43"/>
  <rect class="cls-1" x="18.17" y="49.25" width="1.43" height="1.43"/>
  <rect class="cls-1" x="18.17" y="50.68" width="1.43" height="1.43"/>
  <rect class="cls-1" x="57.19" y="28.31" width="1.43" height="1.43"/>
  <rect class="cls-1" x="53.2" y="46.44" width="1.43" height="1.43"/>
  <rect class="cls-1" x="44.06" y="59.73" width="1.43" height="1.43"/>
  <rect class="cls-1" x="45.48" y="61.16" width="1.43" height="1.43"/>
  <rect class="cls-1" x="45.48" y="59.73" width="1.43" height="1.43"/>
  <rect class="cls-1" x="46.91" y="59.73" width="1.43" height="1.43"/>
  <rect class="cls-1" x="45.48" y="58.31" width="1.43" height="1.43"/>
  <rect class="cls-1" x="25" y="13.06" width="1.43" height="1.43"/>
  <rect class="cls-1" x="23.58" y="13.06" width="1.43" height="1.43"/>
  <rect class="cls-1" x="25" y="14.48" width="1.43" height="1.43"/>
  <rect class="cls-1" x="23.58" y="14.48" width="1.43" height="1.43"/>
  <rect class="cls-1" x="22.15" y="15.82" width="1.43" height="1.43"/>
  <rect class="cls-1" x="26.42" y="11.63" width="1.43" height="1.43"/>
  <rect class="cls-1" x="48.7" y="21.77" width="1.43" height="1.43"/>
  <rect class="cls-1" x="48.7" y="20.34" width="1.43" height="1.43"/>
  <rect class="cls-1" x="47.35" y="20.34" width="1.43" height="1.43"/>
  <rect class="cls-1" x="45.93" y="20.34" width="1.43" height="1.43"/>
  <rect class="cls-1" x="47.35" y="18.92" width="1.43" height="1.43"/>
  <rect class="cls-1" x="45.93" y="18.92" width="1.43" height="1.43"/>
  <rect class="cls-1" x="47.35" y="21.77" width="1.43" height="1.43"/>
  <rect class="cls-1" x="18.54" y="24.78" width="1.43" height="1.43"/>
  <rect class="cls-1" x="24" y="27.6" width="1.43" height="1.43"/>
  <rect class="cls-1" x="13.84" y="26.9" width="1.43" height="1.43"/>
  <rect class="cls-1" x="59.96" y="18.04" width="1.43" height="1.43"/>
  <rect class="cls-1" x="36.03" y="59.31" width="1.43" height="1.43"/>
  <rect class="cls-1" x="36.03" y="14.44" width="1.43" height="1.43"/>
  <rect class="cls-1" x="59.15" y="38.31" width="1.43" height="1.43"/>
  <rect class="cls-1" x="63.14" y="38.31" width="1.43" height="1.43"/>
  <rect class="cls-1" x="10.86" y="38.31" width="1.43" height="1.43"/>
  <rect class="cls-1" x="6.26" y="38.31" width="1.43" height="1.43"/>
  <rect class="cls-1" x="70.41" y="38.31" width="1.43" height="1.43"/>
  <rect class="cls-1" x="36.03" y="10.9" width="1.43" height="1.43"/>
  <rect class="cls-1" x="36.03" y="62.81" width="1.43" height="1.43"/>
  <rect class="cls-1" x="36.03" y="4.52" width="1.43" height="1.43"/>
  <rect class="cls-1" x="36.03" y="69.14" width="1.43" height="1.43"/>
</svg>