<?xml version="1.0" encoding="UTF-8"?>
<svg xmlns="http://www.w3.org/2000/svg" version="1.1" viewBox="0 0 42.8 44.9">
  <defs>
    <style>
      .cls-1 {
        fill: #0d6483;
      }
    </style>
  </defs>
  <!-- Generator: Adobe Illustrator 28.7.10, SVG Export Plug-In . SVG Version: 1.2.0 Build 236)  -->
  <g>
    <g id="Layer_1">
      <path class="cls-1" d="M4.5,5.7l-2.8,4.3v29.7c0,1.6,1.1,2.9,2.8,2.9h30.8l3-2.9H6.8s-1.3,0-1.8-.6-.5-2.1-.5-2.1V5.7Z"/>
      <path class="cls-1" d="M37.5,1.6H10.6c-1.9,0-3.5,1.4-3.5,3.6v27.9c0,1.9,1.4,3.6,3.6,3.6h26.7c1.9,0,3.6-1.4,3.6-3.6V5.2c0-2.2-1.7-3.6-3.6-3.6ZM22.7,6.5l1.4,1.2,1.2-1.4-.3,1.8,1.8.4-1.8.7.6,1.8-1.4-1.2-1.2,1.4.3-1.8-1.8-.4,1.8-.7-.6-1.8ZM14.1,12.4l.8.7.7-.8-.2,1,1,.2-1,.4.3,1-.8-.7-.7.8.2-1-1-.2,1-.4-.3-1ZM31,28.6l-1-.8-.8.9.2-1.2-1.2-.2,1.2-.4-.4-1.2,1,.8.8-.9-.2,1.2,1.2.2-1.2.4.4,1.2ZM37,18.2c-1.6,0-2.7,2.6-3,3.7l-.5,1.7-2.6-8.9c-1.2,2.7-3,6.1-4.2,6.1s-1.7-1.3-2.1-2.6c-.5,2-1.5,4.6-3.1,4.9-1,.2-1.9-.5-2.8-2.1-.8.7-2.2,5.1-3.2,8.9l-.5,2.1-.4-2.2c-.6-2.9-2-7.6-3.2-8.2-.1,0-.2,0-.3,0-.2.1-.5,0-.7-.2-.1-.2,0-.5.2-.7.4-.2.8-.2,1.2,0,1.5.7,2.7,4.4,3.3,6.9,1-3.4,2.4-7.6,3.6-7.8.2,0,.6,0,.9.5.7,1.2,1.3,1.7,1.8,1.7,1.2-.2,2.3-3.6,2.7-6l.4-2.5.5,2.5c.4,1.9,1.2,3.8,1.7,3.8.6-.2,2.5-3.6,3.9-6.7l.5-1.3,2.5,8.3c.6-1.3,1.7-3.1,3.5-3,.3,0,.5.3.5.5,0,.3-.3.5-.5.5Z"/>
    </g>
  </g>
</svg>