<?xml version="1.0" encoding="UTF-8"?>
<svg id="Layer_1" xmlns="http://www.w3.org/2000/svg" width=".29in" height=".29in" viewBox="0 0 21.09 21.09">
  <defs>
    <style>
      .cls-1 {
        fill: #231f20;
        stroke: #231f20;
        stroke-miterlimit: 10;
      }
    </style>
  </defs>
  <g>
    <polygon class="cls-1" points="4.48 7.58 4.99 6.7 4.48 5.83 3.47 5.83 2.97 6.7 3.47 7.58 4.48 7.58"/>
    <polygon class="cls-1" points="4.48 11.54 4.99 10.67 4.48 9.79 3.47 9.79 2.97 10.67 3.47 11.54 4.48 11.54"/>
    <polygon class="cls-1" points="4.48 15.51 4.99 14.63 4.48 13.75 3.47 13.75 2.97 14.63 3.47 15.51 4.48 15.51"/>
  </g>
  <g>
    <polygon class="cls-1" points="18.24 7.58 18.75 6.7 18.24 5.83 17.23 5.83 16.73 6.7 17.23 7.58 18.24 7.58"/>
    <polygon class="cls-1" points="18.24 11.54 18.75 10.67 18.24 9.79 17.23 9.79 16.73 10.67 17.23 11.54 18.24 11.54"/>
    <polygon class="cls-1" points="18.24 15.51 18.75 14.63 18.24 13.75 17.23 13.75 16.73 14.63 17.23 15.51 18.24 15.51"/>
  </g>
  <g>
    <polygon class="cls-1" points="7.86 9.58 8.37 8.7 7.86 7.82 6.85 7.82 6.35 8.7 6.85 9.58 7.86 9.58"/>
    <polygon class="cls-1" points="7.86 5.58 8.37 4.7 7.86 3.83 6.85 3.83 6.35 4.7 6.85 5.58 7.86 5.58"/>
    <polygon class="cls-1" points="7.86 17.44 8.37 16.56 7.86 15.69 6.85 15.69 6.35 16.56 6.85 17.44 7.86 17.44"/>
    <polygon class="cls-1" points="7.86 13.44 8.37 12.57 7.86 11.69 6.85 11.69 6.35 12.57 6.85 13.44 7.86 13.44"/>
  </g>
  <g>
    <polygon class="cls-1" points="14.79 9.58 15.3 8.7 14.79 7.82 13.78 7.82 13.28 8.7 13.78 9.58 14.79 9.58"/>
    <polygon class="cls-1" points="14.79 5.58 15.3 4.7 14.79 3.83 13.78 3.83 13.28 4.7 13.78 5.58 14.79 5.58"/>
    <polygon class="cls-1" points="14.79 17.44 15.3 16.56 14.79 15.69 13.78 15.69 13.28 16.56 13.78 17.44 14.79 17.44"/>
    <polygon class="cls-1" points="14.79 13.44 15.3 12.57 14.79 11.69 13.78 11.69 13.28 12.57 13.78 13.44 14.79 13.44"/>
  </g>
  <g>
    <polygon class="cls-1" points="11.28 7.58 11.79 6.7 11.28 5.83 10.27 5.83 9.77 6.7 10.27 7.58 11.28 7.58"/>
    <polygon class="cls-1" points="11.28 3.65 11.79 2.77 11.28 1.89 10.27 1.89 9.77 2.77 10.27 3.65 11.28 3.65"/>
    <polygon class="cls-1" points="11.28 15.47 11.79 14.6 11.28 13.72 10.27 13.72 9.77 14.6 10.27 15.47 11.28 15.47"/>
    <polygon class="cls-1" points="11.28 19.4 11.79 18.53 11.28 17.65 10.27 17.65 9.77 18.53 10.27 19.4 11.28 19.4"/>
  </g>
</svg>