<?xml version="1.0" encoding="UTF-8"?>
<svg id="Layer_1" xmlns="http://www.w3.org/2000/svg" width=".29in" height=".29in" viewBox="0 0 21.09 21.09">
  <defs>
    <style>
      .cls-1 {
        fill: #231f20;
      }
    </style>
  </defs>
  <path class="cls-1" d="M18.41,12.46l-.04-.36,1.05-1.82-1.05-1.82v-.32l1.05-1.82-1.05-1.82h-2.42s-1.08-1.92-1.08-1.92h-2.37s-1.04-1.77-1.04-1.77h-2.1l-1.04,1.81h-2.37s-1.17,2.01-1.17,2.01h-2.25s-1.05,1.81-1.05,1.81l1.04,1.81v.36l-1.04,1.8,1.04,1.8v.36l-1.04,1.8,1.04,1.83,2.38.1,1.05,1.82,2.4.06,1.05,1.82h2.1l1.05-1.82,2.37-.06,1.05-1.91,2.44-.1,1.05-1.82-1.05-1.82ZM11.86,12.82h-2.7l-1.34-2.33,1.36-2.36h2.69l1.35,2.34-1.35,2.34Z"/>
</svg>