<svg id="Layer_1" data-name="Layer 1" xmlns="http://www.w3.org/2000/svg" viewBox="0 0 30.26 27.8"><defs><style>.cls-1{fill:#231f20;}</style></defs><rect class="cls-1" x="16.47" y="21.87" width="2.96" height="2.96" rx="1.48"/><rect class="cls-1" x="7.85" y="19.27" width="2.96" height="2.96" rx="1.37"/><path class="cls-1" d="M26.8,13.28c-2-4.9-7.83,1-13-6.89-1.53-2.34-7.43-.11-7,4s6.9,9.21,13.8,10.13C24.67,21,28.83,18.37,26.8,13.28Zm-15.47-.93h0a1.48,1.48,0,0,1-1.48-1.48h0a1.48,1.48,0,0,1,1.48-1.48h0a1.48,1.48,0,0,1,1.48,1.48h0A1.48,1.48,0,0,1,11.33,12.35Zm10.59,5.48h0a1.48,1.48,0,0,1-1.48-1.48h0a1.48,1.48,0,0,1,1.48-1.48h0a1.48,1.48,0,0,1,1.48,1.48h0A1.48,1.48,0,0,1,21.92,17.83Z"/><rect class="cls-1" x="16.84" y="4.88" width="2.96" height="2.96" rx="1.48"/></svg>