<?xml version="1.0" encoding="UTF-8"?>
<svg id="Layer_1" xmlns="http://www.w3.org/2000/svg" version="1.1" viewBox="0 0 31.5 24.4">
  <!-- Generator: Adobe Illustrator 30.6.0, SVG Export Plug-In . SVG Version: 2.1.4 Build 109)  -->
  <defs>
    <style>
      .st0 {
        fill: #231f20;
      }

      .st1 {
        isolation: isolate;
      }
    </style>
  </defs>
  <g class="st1">
    <g class="st1">
      <path class="st0" d="M4.6,24.4H0V0h4.6v24.4Z"/>
      <path class="st0" d="M13.1,3.4h-4.6V0h4.6v3.4ZM13.1,24.4h-4.6V7.5h4.6v16.9Z"/>
      <path class="st0" d="M21,7.5l.2,2.4c.6-.9,1.3-1.5,2.1-2,.8-.5,1.7-.7,2.8-.7,1.7,0,3,.5,4,1.6,1,1.1,1.4,2.8,1.4,5v10.6h-4.6v-10.6c0-1.1-.2-1.9-.7-2.4-.5-.5-1.2-.7-2.1-.7s-1.1.1-1.6.4c-.5.2-.9.6-1.2,1v12.3h-4.6V7.5h4.2Z"/>
    </g>
  </g>
</svg>