<?xml version="1.0" encoding="UTF-8"?>
<svg id="Layer_1" xmlns="http://www.w3.org/2000/svg" version="1.1" viewBox="0 0 38.4 29.3">
  <!-- Generator: Adobe Illustrator 30.6.0, SVG Export Plug-In . SVG Version: 2.1.4 Build 109)  -->
  <defs>
    <style>
      .st0 {
        fill: #231f20;
      }

      .st1 {
        isolation: isolate;
      }
    </style>
  </defs>
  <g class="st1">
    <g class="st1">
      <path class="st0" d="M4.3,22.9H0V0h4.3v22.9Z"/>
      <path class="st0" d="M7.1,14.8c0-2.4.7-4.3,2-5.8,1.3-1.5,3.1-2.3,5.5-2.3s4.2.8,5.5,2.3,2,3.4,2,5.8v.3c0,2.4-.7,4.3-2,5.8-1.3,1.5-3.2,2.2-5.5,2.2s-4.2-.7-5.5-2.2c-1.3-1.5-2-3.4-2-5.8v-.3ZM11.4,15.1c0,1.4.3,2.6.8,3.5.5.9,1.3,1.3,2.5,1.3s1.9-.4,2.4-1.3c.5-.9.8-2,.8-3.5v-.3c0-1.4-.3-2.5-.8-3.4s-1.3-1.3-2.4-1.3-1.9.4-2.4,1.3c-.5.9-.8,2-.8,3.4v.3Z"/>
      <path class="st0" d="M24.1,15.1c0-2.5.5-4.5,1.6-6,1.1-1.5,2.6-2.3,4.6-2.3s1.7.2,2.3.6,1.2,1,1.7,1.7l.3-2h3.7v15.8c0,2.1-.7,3.7-2,4.8-1.4,1.1-3.2,1.7-5.6,1.7s-1.7-.1-2.5-.3c-.9-.2-1.7-.5-2.5-.9l.8-3.2c.7.3,1.3.5,2,.7.7.2,1.4.2,2.2.2,1.2,0,2-.2,2.6-.7.6-.5.8-1.2.8-2.3v-1.4c-.5.6-1,1-1.7,1.4s-1.4.5-2.2.5c-1.9,0-3.5-.7-4.5-2.1-1.1-1.4-1.6-3.3-1.6-5.6v-.3ZM28.3,15.4c0,1.4.2,2.5.7,3.3s1.2,1.2,2.3,1.2,1.2-.1,1.7-.4c.5-.2.8-.6,1.1-1.1v-6.9c-.3-.5-.6-.9-1.1-1.1-.5-.3-1-.4-1.6-.4-1,0-1.8.5-2.3,1.4-.5.9-.7,2.2-.7,3.7v.3Z"/>
    </g>
  </g>
</svg>