<svg id="Layer_1" data-name="Layer 1" xmlns="http://www.w3.org/2000/svg" viewBox="0 0 25.46 25.46"><defs><style>.cls-1{fill:#010101;}</style></defs><polygon class="cls-1" points="21.45 8.78 20.03 10.19 21.57 11.73 15.21 11.73 13.67 11.73 13.67 3.83 15.21 5.36 16.62 3.95 12.67 0 8.72 3.95 10.13 5.36 11.67 3.83 11.67 11.73 10.13 11.73 3.77 11.73 5.31 10.19 3.89 8.78 -0.06 12.73 3.89 16.68 5.31 15.26 3.77 13.73 11.67 13.73 11.67 21.63 10.13 20.09 8.72 21.51 12.67 25.46 16.62 21.51 15.21 20.09 13.67 21.63 13.67 13.73 21.57 13.73 20.03 15.26 21.45 16.68 25.4 12.73 21.45 8.78"/></svg>