<?xml version="1.0" encoding="utf-8"?>
<!-- Generator: Adobe Illustrator 27.5.0, SVG Export Plug-In . SVG Version: 6.00 Build 0)  -->
<svg version="1.1" id="Layer_1" xmlns="http://www.w3.org/2000/svg" xmlns:xlink="http://www.w3.org/1999/xlink" x="0px" y="0px"
	 viewBox="0 0 25.5 25.5" style="enable-background:new 0 0 25.5 25.5;" xml:space="preserve">
<style type="text/css">
	.st0{fill:#010101;}
</style>
<polyline class="st0" points="9.2,13.7 9.2,21.6 7.6,20.1 6.2,21.5 10.2,25.5 14.1,21.5 12.7,20.1 11.2,21.6 11.2,13.7 "/>
<polyline class="st0" points="11.2,13.7 11.2,3.8 12.7,5.4 14.1,4 10.2,0 6.2,4 7.6,5.4 9.2,3.8 9.2,13.7 "/>
<path class="st0" d="M16.1,15.2c-0.4,0-0.8,0.3-0.8,0.7c0,0,0,0,0,0v4.3c0,0.4,0.3,0.8,0.8,0.8c0,0,0,0,0,0h4.2
	c0.4,0,0.8-0.3,0.8-0.7c0,0,0,0,0,0V19h-0.8v1.2h-4.2V16h4.2v0.8h0.8V16c0-0.4-0.3-0.8-0.7-0.8c0,0,0,0,0,0 M18.4,17.5
	c-0.4,0-0.8,0.3-0.8,0.7c0,0,0,0,0,0v1.2h0.8v-1.2h4.2v4.2h-4.2v-0.8h-0.8v0.8c0,0.4,0.3,0.8,0.7,0.8c0,0,0,0,0,0h4.2
	c0.4,0,0.8-0.3,0.8-0.7c0,0,0,0,0,0v-4.2c0-0.4-0.3-0.8-0.7-0.8c0,0,0,0,0,0L18.4,17.5"/>
</svg>
