<?xml version="1.0" encoding="utf-8"?>
<!-- Generator: Adobe Illustrator 27.5.0, SVG Export Plug-In . SVG Version: 6.00 Build 0)  -->
<svg version="1.1" id="Layer_1" xmlns="http://www.w3.org/2000/svg" xmlns:xlink="http://www.w3.org/1999/xlink" x="0px" y="0px"
	 viewBox="0 0 25.5 25.5" style="enable-background:new 0 0 25.5 25.5;" xml:space="preserve">
<style type="text/css">
	.st0{fill:#010101;}
</style>
<polyline class="st0" points="14.7,8.7 10.1,8.7 3.8,8.7 5.3,7.2 3.9,5.8 -0.1,9.7 3.9,13.7 5.3,12.2 3.8,10.7 14.7,10.7 "/>
<polyline class="st0" points="13.7,10.7 21.6,10.7 20,12.2 21.5,13.7 25.4,9.7 21.5,5.8 20,7.2 21.6,8.7 15.2,8.7 13.7,8.7 "/>
<path class="st0" d="M16.2,15.1c-0.4,0-0.8,0.3-0.8,0.7c0,0,0,0,0,0v4.2c0,0.4,0.3,0.8,0.8,0.8c0,0,0,0,0,0h4.2
	c0.4,0,0.8-0.3,0.8-0.7c0,0,0,0,0,0V19h-0.8v1.2h-4.2v-4.2h4.2v0.8h0.8v-0.8c0-0.4-0.3-0.8-0.7-0.8c0,0,0,0,0,0 M18.5,17.5
	c-0.4,0-0.8,0.3-0.8,0.7c0,0,0,0,0,0v1.2h0.8v-1.2h4.2v4.2h-4.2v-0.8h-0.8v0.8c0,0.4,0.3,0.8,0.7,0.8c0,0,0,0,0,0h4.2
	c0.4,0,0.8-0.3,0.8-0.7c0,0,0,0,0,0v-4.2c0-0.4-0.3-0.8-0.7-0.8c0,0,0,0,0,0L18.5,17.5"/>
</svg>
