<?xml version="1.0" encoding="utf-8"?>
<!-- Generator: Adobe Illustrator 27.5.0, SVG Export Plug-In . SVG Version: 6.00 Build 0)  -->
<svg version="1.1" id="Layer_1" xmlns="http://www.w3.org/2000/svg" xmlns:xlink="http://www.w3.org/1999/xlink" x="0px" y="0px"
	 viewBox="0 0 23.6 24.6" style="enable-background:new 0 0 23.6 24.6;" xml:space="preserve">
<style type="text/css">
	.st0{fill:#010101;}
</style>
<g>
	<path class="st0" d="M23.6,9.9L20,6.3l-1.4,1.3l1.5,1.4h-5.9h-0.5h-0.9H9.5H3.6L5,7.6L3.7,6.3L0,9.9l3.7,3.7L5,12.2l-1.4-1.4h9.1
		h0.9h6.4l-0.7,0.7c0.3,0.3,0.5,0.7,0.5,1.1v0.9l0.1,0.1L23.6,9.9z"/>
</g>
<path class="st0" d="M12.4,12c-0.6,0-1,0.4-1,1l0,0v5.8c0,0.6,0.4,1,1,1l0,0h5.8c0.6,0,1-0.4,1-1l0,0v-1.6h-1v1.6h-5.8V13h5.8v1h1
	v-1c0-0.6-0.4-1-1-1l0,0 M15.5,15.3c-0.6,0-1,0.4-1,1l0,0v1.6h1v-1.6h5.8v5.8h-5.8v-1h-1v1c0,0.6,0.4,1,1,1l0,0h5.8c0.6,0,1-0.4,1-1
	l0,0v-5.8c0-0.6-0.4-1-1-1l0,0H15.5"/>
</svg>
