<?xml version="1.0" encoding="utf-8"?>
<!-- Generator: Adobe Illustrator 27.5.0, SVG Export Plug-In . SVG Version: 6.00 Build 0)  -->
<svg version="1.1" id="Layer_1" xmlns="http://www.w3.org/2000/svg" xmlns:xlink="http://www.w3.org/1999/xlink" x="0px" y="0px"
	 viewBox="0 0 25.5 25.5" style="enable-background:new 0 0 25.5 25.5;" xml:space="preserve">
<style type="text/css">
	.st0{fill:#010101;}
</style>
<path class="st0" d="M16.9,16.3c-0.4,0-0.7,0.3-0.7,0.7l0,0v3.9c0,0.4,0.3,0.7,0.7,0.7l0,0h3.9c0.4,0,0.7-0.3,0.7-0.7l0,0v-1.1h-0.7
	v1.1h-3.9V17h3.9v0.7h0.7V17c0-0.4-0.3-0.7-0.7-0.7l0,0 M19,18.5c-0.4,0-0.7,0.3-0.7,0.7l0,0v1.1H19v-1.1h3.9v3.9H19v-0.7h-0.7v0.7
	c0,0.4,0.3,0.7,0.7,0.7l0,0h3.9c0.4,0,0.7-0.3,0.7-0.7l0,0v-3.9c0-0.4-0.3-0.7-0.7-0.7l0,0H19"/>
<polyline class="st0" points="14.5,11.1 10.3,11.1 4.5,11.1 5.9,9.7 4.6,8.4 0.9,12 4.6,15.7 5.9,14.3 4.5,12.9 14.5,12.9 "/>
<polyline class="st0" points="13.6,12.9 20.9,12.9 19.4,14.3 20.8,15.7 24.4,12 20.8,8.4 19.4,9.7 20.9,11.1 15,11.1 13.6,11.1 "/>
</svg>
