<svg id="Layer_1" data-name="Layer 1" xmlns="http://www.w3.org/2000/svg" viewBox="0 0 25.46 25.46"><defs><style>.cls-1{fill:#010101;}</style></defs><path class="cls-1" d="M13.73,19.27a4.49,4.49,0,0,1,0-.64l-1.19,1.19V12.58h7.24l-1.19,1.19a4.49,4.49,0,0,1,.64,0A5.43,5.43,0,0,1,21,14l2.33-2.34L19.7,8l-1.29,1.3,1.41,1.41H12.58V3.51L14,4.91l1.29-1.29L11.66,0,8,3.62l1.3,1.29,1.41-1.4v7.24H3.5L4.91,9.34,3.62,8,0,11.66l3.62,3.62L4.91,14l-1.4-1.41h7.24v7.24L9.34,18.41,8,19.7l3.62,3.62L14,21A5.43,5.43,0,0,1,13.73,19.27Z"/><path class="cls-1" d="M16,15.22a.76.76,0,0,0-.77.77v4.25A.76.76,0,0,0,16,21h4.25a.76.76,0,0,0,.77-.77V19.08h-.77v1.16H16V16h4.25v.77H21V16a.76.76,0,0,0-.77-.77m-1.93,2.32a.76.76,0,0,0-.77.77v1.16h.77V18.31h4.24v4.24H18.31v-.77h-.77v.77a.76.76,0,0,0,.77.77h4.24a.76.76,0,0,0,.77-.77V18.31a.76.76,0,0,0-.77-.77H18.31"/></svg>