<?xml version="1.0" encoding="utf-8"?>
<!-- Generator: Adobe Illustrator 27.5.0, SVG Export Plug-In . SVG Version: 6.00 Build 0)  -->
<svg version="1.1" id="Layer_1" xmlns="http://www.w3.org/2000/svg" xmlns:xlink="http://www.w3.org/1999/xlink" x="0px" y="0px"
	 viewBox="0 0 25.5 25.5" style="enable-background:new 0 0 25.5 25.5;" xml:space="preserve">
<style type="text/css">
	.st0{fill:none;}
	.st1{fill:#010101;}
	.st2{fill:#FFFFFF;}
</style>
<g>
	<polygon class="st0" points="13.7,21.6 13.6,21.6 13.6,21.7 	"/>
	<path class="st1" d="M11.5,11.9H3.8l1.5-1.5L3.9,8.9l-3.9,4l3.9,3.9l1.4-1.4l-1.5-1.5h7.4v-1.2C11.2,12.4,11.3,12.1,11.5,11.9z"/>
	<path class="st1" d="M21.5,14.5h1.8c0.1,0,0.2,0,0.3,0l1.7-1.7l-3.9-4L20,10.3l1.5,1.5h-0.3c0.2,0.2,0.3,0.5,0.3,0.9V14.5z"/>
	<path class="st1" d="M12.8,11.1h0.8V4l1.5,1.5l1.4-1.4l-3.9-3.9l-4,3.9l1.4,1.4L11.6,4v7.7C11.9,11.3,12.3,11.1,12.8,11.1z"/>
	<path class="st1" d="M14.6,21.6h-0.9l-0.1,0.1v-0.1h-0.8c-0.5,0-0.9-0.2-1.2-0.5v0.7l-1.5-1.5l-1.5,1.4l3.9,3.9l2-2
		c0,0,0-0.1,0-0.1V21.6z"/>
	<path class="st2" d="M11.6,11.7c-0.1,0.1-0.1,0.1-0.1,0.2h0.1V11.7z"/>
</g>
<path class="st1" d="M13.3,12.1c-0.6,0-1.1,0.5-1.1,1.1l0,0v6.3c0,0.6,0.5,1.1,1.1,1.1l0,0h6.3c0.6,0,1.1-0.5,1.1-1.1l0,0v-1.8h-1.1
	v1.8h-6.3v-6.3h6.3v1.1h1.1v-1.1c0-0.6-0.5-1.1-1.1-1.1l0,0 M16.7,15.6c-0.6,0-1.1,0.5-1.1,1.1l0,0v1.8h1.1v-1.8H23V23h-6.3v-1.1
	h-1.1V23c0,0.6,0.5,1.1,1.1,1.1l0,0H23c0.6,0,1.1-0.5,1.1-1.1l0,0v-6.3c0-0.6-0.5-1.1-1.1-1.1l0,0H16.7"/>
</svg>
