<?xml version="1.0" encoding="utf-8"?>
<!-- Generator: Adobe Illustrator 27.5.0, SVG Export Plug-In . SVG Version: 6.00 Build 0)  -->
<svg version="1.1" id="Layer_1" xmlns="http://www.w3.org/2000/svg" xmlns:xlink="http://www.w3.org/1999/xlink" x="0px" y="0px"
	 viewBox="0 0 25.5 25.5" style="enable-background:new 0 0 25.5 25.5;" xml:space="preserve">
<style type="text/css">
	.st0{fill:#010101;}
</style>
<path class="st0" d="M16.8,16.2c-0.4,0-0.7,0.3-0.7,0.7l0,0v3.9c0,0.4,0.3,0.7,0.7,0.7l0,0h3.9c0.4,0,0.7-0.3,0.7-0.7l0,0v-1.1h-0.7
	v1.1h-3.9v-3.9h3.9v0.7h0.7v-0.7c0-0.4-0.3-0.7-0.7-0.7l0,0 M18.9,18.4c-0.4,0-0.7,0.3-0.7,0.7l0,0v1.1h0.7v-1.1h3.9V23h-3.9v-0.7
	h-0.7V23c0,0.4,0.3,0.7,0.7,0.7l0,0h3.9c0.4,0,0.7-0.3,0.7-0.7l0,0v-3.9c0-0.4-0.3-0.7-0.7-0.7l0,0H18.9"/>
<path class="st0" d="M14.7,20.5c0-0.2,0-0.4,0-0.6l-1.2,1.2v-7.2h7.2L19.5,15c0.2,0,0.4,0,0.6,0c0.6,0,1.2,0.1,1.8,0.2l2.3-2.3
	l-3.6-3.7l-1.3,1.3l1.4,1.4h-7.2V4.8L15,6.2l1.3-1.3l-3.6-3.6L9,4.9l1.3,1.3l1.4-1.4V12H4.5l1.4-1.4L4.6,9.3L1,12.9l3.6,3.6l1.3-1.3
	l-1.4-1.4h7.2v7.2l-1.4-1.4L9,21l3.6,3.6l2.4-2.3C14.8,21.7,14.7,21.1,14.7,20.5z"/>
</svg>
