<svg id="Layer_1" data-name="Layer 1" xmlns="http://www.w3.org/2000/svg" viewBox="0 0 71.17 67.9"><defs><style>.cls-1{fill:#010101;}</style></defs><path class="cls-1" d="M67.13,41a18.8,18.8,0,0,1-6.26-.05C60.42,40.8,59,39.16,58,33c-.23-1.31-1.1-1.34-1.46-1.29a1.23,1.23,0,0,0-1.06,1.39c-.84,3.82-2.4,7.62-3.25,7.87A1.54,1.54,0,0,1,51,40.61c-2.6-2-3.57-10.64-4.29-16.95l-.14-1.25c-.44-3.86-1.21-10.18-1.21-10.18A1.22,1.22,0,0,0,44,11.13a1.26,1.26,0,0,0-1.21,1.18c0,.07-.44,7.65-.7,9.71C41.5,27,40.33,36.14,39,38.34a7.66,7.66,0,0,1-4.85,3.15H33.9c-2.07,0-4.48-.36-5-3-.49-2.32-1.26-9.88-1.26-10a1.25,1.25,0,0,0-2.5.07c0,.09-.36,8.33-.67,10.31-.2,1.3-.71,1.71-2.12,1.71H17.39V34.21H2.58V49H17.39V43.15h4.94c2.81,0,4-1.5,4.42-3,1,2.56,3.39,3.86,7.17,3.86h.24a9.94,9.94,0,0,0,7-4.36c1.3-2.18,2.24-8.09,3.13-14.81.83,7.29,1.84,15.25,5.15,17.77a4,4,0,0,0,3.14.81c1.77-.27,3.1-2.71,4-5.25,1.44,4.64,3,5,3.67,5.19a20.72,20.72,0,0,0,7.29.08A1.25,1.25,0,1,0,67.13,41ZM4.58,47V36.21H15.39V41.9h0V47Z"/></svg>