<svg id="Layer_1" data-name="Layer 1" xmlns="http://www.w3.org/2000/svg" viewBox="0 0 39 20"><defs><style>.cls-1{fill:none;}.cls-2{fill:#010101;}.cls-3{fill:#231f20;}</style></defs><polygon class="cls-1" points="36.5 17.41 36.5 3.42 22.5 3.42 22.5 6.99 26.09 9.61 27.2 10.41 26.12 11.2 27.5 12.59 34.09 6 35.5 7.42 27.5 15.41 24.48 12.39 22.5 13.84 22.5 17.41 36.5 17.41"/><path class="cls-1" d="M10,15a5,5,0,1,1,4.5-7.14V7.41h2.33v-1H16.5v-1a8,8,0,1,0,0,9.24V13.41h-2v-1h-.15A5,5,0,0,1,10,15Z"/><path class="cls-2" d="M10,5a5,5,0,1,0,4.35,7.41H9.5v-4h5V7.86A5,5,0,0,0,10,5Z"/><path class="cls-2" d="M10,18A8,8,0,1,1,16.5,5.38V2.47A10.24,10.24,0,0,0,10,0a10,10,0,0,0,0,20,9.9,9.9,0,0,0,6.5-2.43v-3A8,8,0,0,1,10,18Z"/><polygon class="cls-2" points="35.5 7.42 34.09 6 27.5 12.59 26.12 11.2 26.09 11.22 24.48 12.39 27.5 15.41 35.5 7.42"/><path class="cls-2" d="M36.5,1.41h-14a2,2,0,0,0-2,2V5.54L22.5,7V3.41h14v14h-14V13.84l-2,1.45v2.12a2,2,0,0,0,2,2h14a2,2,0,0,0,2-2v-14A2,2,0,0,0,36.5,1.41Z"/><path d="M17.83,8.35v.06h0Z"/><polygon points="23.76 11.68 23.5 11.41 24.91 9.99 25.4 10.49 25.5 10.41 22.5 8.23 22.5 12.6 23.76 11.68"/><path d="M20.5,6.78,19,5.69a9.94,9.94,0,0,1-.83,10.06l2.32-1.7Z"/><path d="M19,5.69l-1.18-.86V8.41h.66v4h-.67V16l.35-.25A9.94,9.94,0,0,0,19,5.69Z"/><polygon points="23.5 11.41 23.76 11.68 25.4 10.49 24.91 9.99 23.5 11.41"/><polygon points="22.5 12.6 22.5 8.23 20.5 6.78 20.5 14.05 22.5 12.6"/><path class="cls-2" d="M14.72,8.41a5.25,5.25,0,0,0-.22-.55v.55Z"/><path class="cls-3" d="M14.35,12.41h.15v-.27A2.34,2.34,0,0,1,14.35,12.41Z"/><path class="cls-3" d="M9.5,8.41v4h4.85a2.34,2.34,0,0,0,.15-.27V8.41Z"/><path class="cls-3" d="M17.84,8.41H15.5v4h2.13A8,8,0,0,0,18,10,8.41,8.41,0,0,0,17.84,8.41Z"/><path class="cls-3" d="M18.5,8.41h-.66A8.41,8.41,0,0,1,18,10a8,8,0,0,1-.37,2.41h.87Z"/><path class="cls-3" d="M15,8.41h-.28A5,5,0,0,1,15,10Z"/><path class="cls-3" d="M14.5,12.14v.27H15V10A5,5,0,0,1,14.5,12.14Z"/><path class="cls-3" d="M14.5,12.14a4.75,4.75,0,0,0,.22-3.73H14.5Z"/><polygon class="cls-3" points="15 8.41 15 10 15 12.41 15.5 12.41 15.5 8.41 15 8.41"/></svg>