<svg id="Layer_1" data-name="Layer 1" xmlns="http://www.w3.org/2000/svg" viewBox="0 0 23.53 24.66"><defs><style>.cls-1{fill:#231f20;}</style></defs><path class="cls-1" d="M14.44,7.27a7,7,0,1,0,7,7A7,7,0,0,0,14.44,7.27Zm-1,11h0A1.48,1.48,0,0,1,12,16.76h0a1.48,1.48,0,0,1,1.48-1.48h0a1.48,1.48,0,0,1,1.48,1.48h0A1.48,1.48,0,0,1,13.44,18.24Zm2.11-4.5h0a1.48,1.48,0,0,1-1.48-1.48h0a1.48,1.48,0,0,1,1.48-1.48h0A1.48,1.48,0,0,1,17,12.26h0A1.48,1.48,0,0,1,15.55,13.74Z"/><rect class="cls-1" x="2.48" y="16.18" width="2.96" height="2.96" rx="1.48"/><rect class="cls-1" x="4.48" y="3.3" width="2.96" height="2.96" rx="1.48"/><rect class="cls-1" x="9.47" y="1.78" width="2.96" height="2.96" rx="1.48"/></svg>