<svg xmlns="http://www.w3.org/2000/svg" xmlns:xlink="http://www.w3.org/1999/xlink" version="1.1" width="1000" height="1000" viewBox="0 0 1000 1000" xml:space="preserve">
<desc>Created with Fabric.js 3.5.0</desc>
<defs>
</defs>
<rect x="0" y="0" width="100%" height="100%" fill="#ffffff"/>
<g transform="matrix(36.865 0 0 36.865 500 500)" id="35402">
<g style="" vector-effect="non-scaling-stroke">
		<g transform="matrix(1 0 0 1 2.675 1.94)" id="Layer_1">
<path style="stroke: none; stroke-width: 1; stroke-dasharray: none; stroke-linecap: butt; stroke-dashoffset: 0; stroke-linejoin: miter; stroke-miterlimit: 4; is-custom-font: none; font-file-url: none; fill: rgb(35,31,32); fill-rule: nonzero; opacity: 1;" transform=" translate(-14.44, -14.27)" d="M 14.44 7.27 a 7 7 0 1 0 7 7 A 7 7 0 0 0 14.44 7.27 Z m -1 11 h 0 A 1.48 1.48 0 0 1 12 16.76 h 0 a 1.48 1.48 0 0 1 1.48 -1.48 h 0 a 1.48 1.48 0 0 1 1.48 1.48 h 0 A 1.48 1.48 0 0 1 13.44 18.24 Z m 2.11 -4.5 h 0 a 1.48 1.48 0 0 1 -1.48 -1.48 h 0 a 1.48 1.48 0 0 1 1.48 -1.48 h 0 A 1.48 1.48 0 0 1 17 12.26 h 0 A 1.48 1.48 0 0 1 15.55 13.74 Z" stroke-linecap="round"/>
</g>
		<g transform="matrix(1 0 0 1 -7.805 5.33)" id="Layer_1">
<rect style="stroke: none; stroke-width: 1; stroke-dasharray: none; stroke-linecap: butt; stroke-dashoffset: 0; stroke-linejoin: miter; stroke-miterlimit: 4; is-custom-font: none; font-file-url: none; fill: rgb(35,31,32); fill-rule: nonzero; opacity: 1;" x="-1.48" y="-1.48" rx="1.48" ry="1.48" width="2.96" height="2.96"/>
</g>
		<g transform="matrix(1 0 0 1 -5.805 -7.55)" id="Layer_1">
<rect style="stroke: none; stroke-width: 1; stroke-dasharray: none; stroke-linecap: butt; stroke-dashoffset: 0; stroke-linejoin: miter; stroke-miterlimit: 4; is-custom-font: none; font-file-url: none; fill: rgb(35,31,32); fill-rule: nonzero; opacity: 1;" x="-1.48" y="-1.48" rx="1.48" ry="1.48" width="2.96" height="2.96"/>
</g>
		<g transform="matrix(1 0 0 1 -0.815 -9.07)" id="Layer_1">
<rect style="stroke: none; stroke-width: 1; stroke-dasharray: none; stroke-linecap: butt; stroke-dashoffset: 0; stroke-linejoin: miter; stroke-miterlimit: 4; is-custom-font: none; font-file-url: none; fill: rgb(35,31,32); fill-rule: nonzero; opacity: 1;" x="-1.48" y="-1.48" rx="1.48" ry="1.48" width="2.96" height="2.96"/>
</g>
</g>
</g>
<g transform="matrix(3.3209 0 0 1.9336 598.1199 573.2876)" id="750223">
<path style="stroke: none; stroke-width: 1; stroke-dasharray: none; stroke-linecap: butt; stroke-dashoffset: 0; stroke-linejoin: miter; stroke-miterlimit: 4; is-custom-font: none; font-file-url: none; fill: rgb(255,255,255); fill-rule: nonzero; opacity: 1;" vector-effect="non-scaling-stroke" transform=" translate(-78.4998, -78.5)" d="M 78.5 0 C 52.9419 0 32.1166 35.2271 32.1166 78.5 C 32.1166 121.773 52.9419 157 78.5 157 C 104.058 157 124.883 121.773 124.883 78.5 C 124.883 35.2271 104.058 0 78.5 0 Z" stroke-linecap="round"/>
</g>
<g transform="matrix(1.1401 0 0 0.7002 541.3747 626.922)" id="643409">
<path style="stroke: none; stroke-width: 1; stroke-dasharray: none; stroke-linecap: butt; stroke-dashoffset: 0; stroke-linejoin: miter; stroke-miterlimit: 4; is-custom-font: none; font-file-url: none; fill: rgb(32,30,30); fill-rule: nonzero; opacity: 1;" vector-effect="non-scaling-stroke" transform=" translate(-78.4998, -78.5)" d="M 78.5 0 C 52.9419 0 32.1166 35.2271 32.1166 78.5 C 32.1166 121.773 52.9419 157 78.5 157 C 104.058 157 124.883 121.773 124.883 78.5 C 124.883 35.2271 104.058 0 78.5 0 Z" stroke-linecap="round"/>
</g>
<g transform="matrix(1.1401 0 0 0.7002 650.8055 520.0927)" id="100734">
<path style="stroke: none; stroke-width: 1; stroke-dasharray: none; stroke-linecap: butt; stroke-dashoffset: 0; stroke-linejoin: miter; stroke-miterlimit: 4; is-custom-font: none; font-file-url: none; fill: rgb(32,30,30); fill-rule: nonzero; opacity: 1;" vector-effect="non-scaling-stroke" transform=" translate(-78.4998, -78.5)" d="M 78.5 0 C 52.9419 0 32.1166 35.2271 32.1166 78.5 C 32.1166 121.773 52.9419 157 78.5 157 C 104.058 157 124.883 121.773 124.883 78.5 C 124.883 35.2271 104.058 0 78.5 0 Z" stroke-linecap="round"/>
</g>
</svg>