<?xml version="1.0" encoding="UTF-8"?><svg id="Layer_1" xmlns="http://www.w3.org/2000/svg" viewBox="0 0 22.92 23.02"><defs><style>.cls-1{fill:#231f20;}</style></defs><path class="cls-1" d="M7.61,1.97V7.66H1.92V1.97H7.61m.5-.5H1.42v6.69h6.69V1.47h0Z"/><path class="cls-1" d="M14.31,1.97V7.66h-5.69V1.97h5.69m.5-.5h-6.69v6.69h6.69V1.47h0Z"/><path class="cls-1" d="M21,1.97V7.66h-5.69V1.97h5.69m.5-.5h-6.69v6.69h6.69V1.47h0Z"/><rect class="cls-1" x="1.42" y="8.16" width="6.69" height="6.69"/><path class="cls-1" d="M14.31,8.66v5.69h-5.69v-5.69h5.69m.5-.5h-6.69v6.69h6.69v-6.69h0Z"/><path class="cls-1" d="M21,8.66v5.69h-5.69v-5.69h5.69m.5-.5h-6.69v6.69h6.69v-6.69h0Z"/><path class="cls-1" d="M7.61,15.36v5.69H1.92v-5.69H7.61m.5-.5H1.42v6.69h6.69v-6.69h0Z"/><path class="cls-1" d="M14.31,15.36v5.69h-5.69v-5.69h5.69m.5-.5h-6.69v6.69h6.69v-6.69h0Z"/><path class="cls-1" d="M21,15.36v5.69h-5.69v-5.69h5.69m.5-.5h-6.69v6.69h6.69v-6.69h0Z"/></svg>