<svg id="Layer_1" data-name="Layer 1" xmlns="http://www.w3.org/2000/svg" viewBox="0 0 25.46 25.46"><defs><style>.cls-1{fill:#231f20;}</style></defs><rect class="cls-1" x="2.64" y="8.23" width="2.96" height="2.96" rx="1.48"/><rect class="cls-1" x="15.27" y="20.5" width="2.96" height="2.96" rx="1.48"/><path class="cls-1" d="M8.55,3V18H21.88V3Zm3.5,8.15h0a1.48,1.48,0,0,1-1.48-1.48h0a1.48,1.48,0,0,1,1.48-1.48h0a1.48,1.48,0,0,1,1.48,1.48h0A1.48,1.48,0,0,1,12.05,11.19Zm6.16,0h0a1.48,1.48,0,0,1-1.48-1.48h0a1.48,1.48,0,0,1,1.48-1.48h0A1.49,1.49,0,0,1,19.7,9.71h0A1.49,1.49,0,0,1,18.21,11.19Z"/></svg>