<svg id="Layer_1" data-name="Layer 1" xmlns="http://www.w3.org/2000/svg" viewBox="0 0 23.53 24.66"><defs><style>.cls-1{fill:#231f20;}</style></defs><path class="cls-1" d="M13.42,7.27c-5,0-9,2.78-9,6.22s4,6.23,9,6.23,9-2.79,9-6.23S18.4,7.27,13.42,7.27Zm1,10h0A1.48,1.48,0,0,1,13,15.76h0a1.48,1.48,0,0,1,1.48-1.48h0a1.48,1.48,0,0,1,1.48,1.48h0A1.48,1.48,0,0,1,14.44,17.24Zm2.11-4.5h0a1.48,1.48,0,0,1-1.48-1.48h0a1.48,1.48,0,0,1,1.48-1.48h0A1.48,1.48,0,0,1,18,11.26h0A1.48,1.48,0,0,1,16.55,12.74Z"/><rect class="cls-1" x="3" y="18.24" width="2.96" height="2.96" rx="1.48"/><rect class="cls-1" x="4.48" y="3.3" width="2.96" height="2.96" rx="1.48"/><rect class="cls-1" x="9.47" y="1.78" width="2.96" height="2.96" rx="1.48"/></svg>