<?xml version="1.0" encoding="utf-8"?>
<!-- Generator: Adobe Illustrator 27.5.0, SVG Export Plug-In . SVG Version: 6.00 Build 0)  -->
<svg version="1.1" id="Layer_1" xmlns="http://www.w3.org/2000/svg" xmlns:xlink="http://www.w3.org/1999/xlink" x="0px" y="0px"
	 viewBox="0 0 664 700" style="enable-background:new 0 0 664 700;" xml:space="preserve">
<circle cx="55.5" cy="102.6" r="41.8"/>
<circle cx="197.6" cy="58.4" r="41.8"/>
<circle cx="389.4" cy="321.3" r="41.8"/>
<circle cx="330.5" cy="448.6" r="41.8"/>
<path d="M354.2,74.7c-169,0-306,137-306,306s137,306,306,306s306-137,306-306S523.2,74.7,354.2,74.7z M131.6,453.4
	c-23.1,0-41.8-18.7-41.8-41.8s18.7-41.8,41.8-41.8c23.1,0,41.8,18.7,41.8,41.8S154.7,453.4,131.6,453.4z M354.2,546.1
	c-82.5,0-149.3-74-149.3-165.4s66.9-165.4,149.3-165.4s149.3,74,149.3,165.4S436.6,546.1,354.2,546.1z"/>
</svg>
