<?xml version="1.0" encoding="UTF-8"?>
<svg id="Layer_1" xmlns="http://www.w3.org/2000/svg" version="1.1" viewBox="0 0 24 24">
  <!-- Generator: Adobe Illustrator 30.2.1, SVG Export Plug-In . SVG Version: 2.1.1 Build 1)  -->
  <defs>
    <style>
      .st0 {
        fill: #e2e2e2;
      }
    </style>
  </defs>
  <polygon class="st0" points="11.6 7.9 14 7.9 14 4.4 14 4.4 14 2.9 14 2.9 14 .8 11.6 .8 11.6 2.4 11.6 2.4 11.6 4 11.6 4 11.6 7.9"/>
  <path class="st0" d="M22.5,7.5l-7.5-3.2v1.7c0,0,3.5,1.7,3.5,1.7l-6,3.6-6.5-3.5,4.7-2.2v-1.7S2.2,7.5,2.2,7.5l4.2,2.5-5,2.6,11.1,6.5,10.8-6.6-5.1-2.4,4.2-2.6h.1ZM19.8,12.4l-7.2,4-7.7-4.1,2.9-1.5,4.7,2.8,4.3-2.6s3,1.4,3,1.4Z"/>
  <polygon class="st0" points="11.3 19.6 11.3 22.1 12.6 23.3 14 22.1 14 19.5 12.5 20.3 11.3 19.6"/>
</svg>