<?xml version="1.0" encoding="UTF-8"?>
<svg id="Layer_1" xmlns="http://www.w3.org/2000/svg" version="1.1" viewBox="0 0 24 24">
  <!-- Generator: Adobe Illustrator 30.2.1, SVG Export Plug-In . SVG Version: 2.1.1 Build 1)  -->
  <defs>
    <style>
      .st0 {
        fill: #e3e3e3;
      }
    </style>
  </defs>
  <polygon class="st0" points="11.2 9.7 12.4 9.7 12.4 7.7 12.4 7.7 12.4 6.8 12.4 6.8 12.4 4.5 11.2 4.5 11.2 6.6 11.2 6.6 11.2 7.5 11.2 7.5 11.2 9.7"/>
  <path class="st0" d="M18.2,9.3l-4.9-2.1v.9l3.2,1.4-4.8,3-5-3,3.7-1.6v-.9l-5.5,2.4,2.7,1.6-3.3,1.7,7.3,4.3,7.1-4.3-3.3-1.6,2.7-1.7ZM17,12.7l-5.4,3.3-5.6-3.3,2.4-1.3,3.2,1.9,2.9-1.8,2.4,1.2Z"/>
  <polygon class="st0" points="11 17.3 11 18.9 11.7 19.7 12.5 18.9 12.5 17.3 11.7 17.8 11 17.3"/>
</svg>