<svg id="Layer_1" data-name="Layer 1" xmlns="http://www.w3.org/2000/svg" viewBox="0 0 25.46 25.46"><defs><style>.cls-1{fill:#231f20;}</style></defs><polygon class="cls-1" points="8.91 10.26 8.91 3.54 1.99 12.45 8.91 21.35 8.91 15.18 7 12.72 8.91 10.26"/><polygon class="cls-1" points="16.89 3.19 15.54 4.91 9.48 12.72 15.54 20.51 16.89 22.25 24.3 12.72 16.89 3.19"/><polygon class="cls-1" points="12.69 22.95 10.58 22.95 10.58 16.98 12.69 19.7 12.69 22.95"/><polygon class="cls-1" points="12.69 3.19 10.58 3.19 10.58 9.16 12.69 6.45 12.69 3.19"/><rect class="cls-1" x="9.87" y="21.19" width="3.54" height="3.54" transform="translate(19.64 -1.5) rotate(45)"/><rect class="cls-1" x="9.87" y="0.73" width="3.54" height="3.54" transform="translate(5.18 -7.49) rotate(45)"/></svg>
