<?xml version="1.0" encoding="UTF-8"?>
<svg id="Layer_1" data-name="Layer 1" xmlns="http://www.w3.org/2000/svg" width="77.35" height="77.35" viewBox="0 0 77.35 77.35">
  <defs>
    <style>
      .cls-1, .cls-2, .cls-3, .cls-4 {
        fill: none;
        stroke: #fff;
        stroke-linecap: round;
        stroke-linejoin: round;
      }

      .cls-5 {
        fill: #fff;
      }

      .cls-6 {
        fill: #0a6382;
      }

      .cls-2 {
        stroke-width: 2px;
      }

      .cls-3 {
        stroke-width: 1.5px;
      }

      .cls-4 {
        stroke-width: 3px;
      }
    </style>
  </defs>
  <circle class="cls-6" cx="38.43" cy="38.74" r="38.49"/>
  <path class="cls-4" d="m19.97,50.23h8.55c3.75,0,6.64-1.37,8.05-3.73s2.49-10.69,3.28-16.74c.27-2.11.71-9.75.71-9.75,0,0,.76,6.29,1.2,10.13.99,8.61,2.05,20.3,7.06,19.53,2.49-.38,4.29-8.97,4.29-8.97-.2-1.95.95,8.22,3.86,8.93,2.23.41,4.51.43,6.75.06"/>
  <ellipse class="cls-5" cx="14.34" cy="49.62" rx="3.19" ry="1.02" transform="translate(-28.83 21.26) rotate(-40.58)"/>
  <ellipse class="cls-5" cx="14.34" cy="49.62" rx="1.05" ry="3.23" transform="translate(-28.83 21.26) rotate(-40.58)"/>
  <line class="cls-2" x1="27.26" y1="24.22" x2="33.23" y2="24.22"/>
  <line class="cls-1" x1="14.8" y1="32.33" x2="32.58" y2="32.33"/>
  <ellipse class="cls-5" cx="22.25" cy="23.94" rx=".62" ry="2.45" transform="translate(-9.95 18.33) rotate(-37.22)"/>
  <ellipse class="cls-5" cx="22.2" cy="23.98" rx="1.98" ry=".65" transform="translate(-9.98 18.31) rotate(-37.22)"/>
  <line class="cls-3" x1="22.2" y1="41.21" x2="30.09" y2="41.21"/>
  <ellipse class="cls-5" cx="18.06" cy="41.13" rx=".34" ry="1.08" transform="translate(-21.49 19.85) rotate(-38.01)"/>
  <ellipse class="cls-5" cx="18.06" cy="41.13" rx="1.09" ry=".36" transform="translate(-21.49 19.85) rotate(-38.01)"/>
  <ellipse class="cls-5" cx="11.2" cy="31.86" rx=".34" ry="1.08" transform="translate(-13.58 8.92) rotate(-27.84)"/>
  <ellipse class="cls-5" cx="11.2" cy="31.86" rx="1.09" ry=".36" transform="translate(-13.58 8.92) rotate(-27.84)"/>
</svg>