<?xml version="1.0" encoding="UTF-8"?>
<svg id="Layer_1" data-name="Layer 1" xmlns="http://www.w3.org/2000/svg" width="77.35" height="77.35" viewBox="0 0 77.35 77.35">
  <defs>
    <style>
      .cls-1 {
        fill: #fff;
      }

      .cls-2 {
        fill: #0a6382;
      }
    </style>
  </defs>
  <circle class="cls-2" cx="38.62" cy="38.76" r="38.56"/>
  <path class="cls-1" d="m30.68,51.51c-3.77,0-6.17-1.29-7.15-3.84-.45,1.53-1.61,2.99-4.41,2.99h-5.67c-.69,0-1.25-.56-1.25-1.25s.56-1.25,1.25-1.25h5.66c1.41,0,1.92-.41,2.12-1.71.3-1.99.65-10.2.65-10.28-.02-.69.52-1.26,1.21-1.28s1.26.52,1.28,1.21c0,.07.79,7.61,1.28,9.97.54,2.61,2.94,2.91,4.99,2.99h.33c1.95-.37,3.69-1.49,4.83-3.12,1.31-2.19,2.46-11.37,3.08-16.28.26-2.05.68-9.61.73-9.68.03-.65.56-1.16,1.21-1.18.65-.04,1.21.44,1.28,1.09,0,0,.78,6.3,1.22,10.15l.15,1.25c.72,6.29,1.72,14.96,4.3,16.89.34.24.76.34,1.17.27.84-.24,2.39-4.06,3.21-7.85-.1-.66.34-1.27,1-1.39h0c.37,0,1.23,0,1.46,1.29,1.09,6.18,2.48,7.81,2.91,7.9,2.07.36,4.19.36,6.26,0,.67-.15,1.34.27,1.5.94.15.67-.27,1.34-.94,1.5h-.13c-2.41.41-4.87.39-7.27-.06-.62-.15-2.22-.54-3.67-5.17-.93,2.52-2.24,4.99-3.99,5.24-1.11.18-2.24-.1-3.12-.8-3.2-2.46-4.2-10.4-5.11-17.66-.87,6.69-1.79,12.59-3.08,14.77-1.58,2.4-4.13,3.99-6.98,4.36h-.29Z"/>
</svg>