<svg id="Layer_1" data-name="Layer 1" xmlns="http://www.w3.org/2000/svg" viewBox="0 0 71.17 67.9"><path d="M68.64,51.24s-1.25.21-2.91.3V2.68h-10a2,2,0,0,0,0,3.92h6.11V51.43a11.91,11.91,0,0,1-1.35-.25c-.58-.14-2.39-2.28-3.8-10.38-.3-1.72-1.43-1.75-1.9-1.69a1.6,1.6,0,0,0-1.39,1.82c-1.09,5-3.14,10-4.24,10.28a2,2,0,0,1-1.61-.43c-3.39-2.59-4.66-13.88-5.59-22.13L41.74,27c-.57-5-1.58-13.29-1.58-13.29a1.6,1.6,0,0,0-1.67-1.44,1.64,1.64,0,0,0-1.58,1.54c0,.1-.58,10-.92,12.68C35.17,33,33.64,45,31.92,47.83a9.11,9.11,0,0,1-3.46,3.08V6.6h6.11a2,2,0,1,0,0-3.92h-10V51.92c-2.52-.09-5.21-.74-5.85-3.86s-1.64-12.91-1.65-13a1.63,1.63,0,0,0-3.25.09c0,.11-.48,10.87-.88,13.46-.26,1.69-.94,2.24-2.78,2.24H2.71a1.63,1.63,0,0,0,0,3.26h7.42c3.68,0,5.19-2,5.77-4,1.22,3.17,4.13,4.84,8.64,5v9.64h10a2,2,0,0,0,0-3.92H28.46V54.51a13.12,13.12,0,0,0,6.26-5c1.71-2.85,2.94-10.56,4.09-19.34,1.08,9.51,2.41,19.91,6.73,23.21a5.27,5.27,0,0,0,4.1,1c2.31-.36,4-3.54,5.24-6.85,1.88,6.06,4,6.58,4.81,6.77a16.76,16.76,0,0,0,2.12.36v6.18H55.7a2,2,0,1,0,0,3.92h10v-10a30.43,30.43,0,0,0,3.47-.35,1.63,1.63,0,0,0-.56-3.22Z"/></svg>