<svg id="Layer_1" data-name="Layer 1" xmlns="http://www.w3.org/2000/svg" viewBox="0 0 77.34 77.34"><defs><style>.cls-1{fill:#0a6382;}.cls-2{fill:#fff;}</style></defs><circle class="cls-1" cx="38.67" cy="38.67" r="38.67"/><path class="cls-2" d="M30.71,51.46c-3.78,0-6.19-1.29-7.17-3.85-.45,1.53-1.61,3-4.42,3l-5.69,0a1.25,1.25,0,0,1,0-2.5l5.68,0c1.41,0,1.93-.41,2.13-1.71.3-2,.65-10.23.65-10.31a1.25,1.25,0,0,1,2.5-.07c0,.07.79,7.63,1.28,10,.54,2.62,2.95,2.92,5,3H31a7.65,7.65,0,0,0,4.84-3.13c1.31-2.2,2.47-11.4,3.09-16.33.26-2.06.68-9.64.73-9.71a1.24,1.24,0,0,1,1.21-1.18,1.21,1.21,0,0,1,1.28,1.09s.78,6.32,1.22,10.18l.15,1.25c.72,6.31,1.72,15,4.31,16.94A1.54,1.54,0,0,0,49,48.4c.84-.24,2.4-4.07,3.22-7.87a1.23,1.23,0,0,1,1-1.39h0c.37,0,1.23,0,1.46,1.29,1.09,6.2,2.49,7.83,2.92,7.92a18.39,18.39,0,0,0,6.28,0,1.25,1.25,0,1,1,.56,2.44l-.13,0a20.53,20.53,0,0,1-7.29-.06c-.62-.15-2.23-.54-3.68-5.18-.93,2.53-2.25,5-4,5.25a4,4,0,0,1-3.13-.8C43,47.53,42,39.57,41.09,32.29,40.22,39,39.29,44.92,38,47.1a9.89,9.89,0,0,1-7,4.37h-.25Z"/></svg>