<?xml version="1.0" encoding="UTF-8"?>
<svg id="Layer_1" xmlns="http://www.w3.org/2000/svg" version="1.1" viewBox="0 0 40.2 21.2">
  <!-- Generator: Adobe Illustrator 30.6.0, SVG Export Plug-In . SVG Version: 2.1.4 Build 109)  -->
  <defs>
    <style>
      .st0 {
        fill: #231f20;
      }

      .st1 {
        isolation: isolate;
      }
    </style>
  </defs>
  <g class="st1">
    <g class="st1">
      <path class="st0" d="M6.8,13.6c0-.3-.2-.6-.5-.9s-1-.5-1.9-.7c-1.4-.3-2.4-.7-3.1-1.2-.7-.5-1-1.3-1-2.2s.4-1.9,1.3-2.6c.8-.7,2-1,3.4-1s2.7.3,3.5,1c.9.7,1.3,1.6,1.3,2.6h0c0,0-3,0-3,0,0-.5-.1-.8-.4-1.1-.3-.3-.7-.4-1.3-.4s-.9.1-1.2.4c-.3.2-.4.6-.4.9s.2.7.5.9c.3.2.9.4,1.9.6,1.4.3,2.5.7,3.2,1.3.7.6,1,1.3,1,2.3s-.4,1.9-1.3,2.6c-.9.7-2.1,1-3.5,1s-2.8-.4-3.7-1.2C.4,15,0,14.1,0,13.1h0c0,0,2.9,0,2.9,0,0,.6.2,1.1.6,1.4s.9.4,1.5.4,1-.1,1.3-.3c.3-.2.5-.5.5-.9Z"/>
      <path class="st0" d="M22.3,11.3c0,1.7-.4,3.1-1.2,4.1s-1.9,1.6-3.3,1.6-1.1-.1-1.6-.3c-.5-.2-.9-.6-1.2-1v5.6h-3.1V5.1h2.8l.2,1.4c.3-.5.8-.9,1.2-1.2.5-.3,1-.4,1.7-.4,1.4,0,2.6.6,3.4,1.7s1.2,2.6,1.2,4.4v.2ZM19.2,11c0-1.1-.2-2-.5-2.7-.4-.7-.9-1-1.7-1s-.9,0-1.2.3c-.3.2-.6.5-.8.8v5.1c.2.3.5.6.8.8.3.2.7.3,1.2.3.8,0,1.3-.3,1.7-.9.4-.6.5-1.4.5-2.4v-.2Z"/>
      <path class="st0" d="M27.6,16.8h-3.1V0h3.1v16.8Z"/>
      <path class="st0" d="M33,5.1v1.7c.5-.6,1-1.1,1.6-1.4.6-.3,1.2-.5,1.9-.5,1.2,0,2.1.4,2.8,1.1s1,1.9,1,3.5v7.3h-3.1v-7.3c0-.8-.2-1.3-.5-1.7-.3-.3-.8-.5-1.4-.5s-.8,0-1.1.3-.6.4-.8.7v8.5h-3.1V5.1h2.9Z"/>
    </g>
  </g>
</svg>