<?xml version="1.0" encoding="utf-8"?>
<!-- Generator: Adobe Illustrator 27.5.0, SVG Export Plug-In . SVG Version: 6.00 Build 0)  -->
<svg version="1.1" id="Layer_1" xmlns="http://www.w3.org/2000/svg" xmlns:xlink="http://www.w3.org/1999/xlink" x="0px" y="0px"
	 viewBox="0 0 23.5 24.7" style="enable-background:new 0 0 23.5 24.7;" xml:space="preserve">
<style type="text/css">
	.st0{fill:none;}
	.st1{fill:#010101;}
</style>
<g>
	<path class="st0" d="M17.6,10.7c0-2.6-2.1-4.7-4.7-4.7c-2.6,0-4.7,2.1-4.7,4.7c0,0,0,0,0,0c0,2.6,2.1,4.7,4.7,4.7
		C15.5,15.4,17.6,13.3,17.6,10.7z"/>
	<path class="st1" d="M15.7,15H18c1-1.2,1.6-2.7,1.6-4.4c0-3.7-3-6.7-6.8-6.7c-3.7,0-6.7,3-6.7,6.8c0,1.4,0.5,2.8,1.3,4l-0.8,0.8
		H6.2l-5.7,5.7l1.9,1.9l5.8-5.8v-0.6L8.9,16c1.2,0.9,2.6,1.3,4,1.3c0,0,0,0,0,0c0.6,0,1.1-0.1,1.6-0.2v-1C14.6,15.5,15.1,15,15.7,15
		z M12.9,15.4c-2.6,0-4.7-2.1-4.7-4.7c0,0,0,0,0,0c0-2.6,2.1-4.7,4.7-4.7c2.6,0,4.7,2.1,4.7,4.7C17.6,13.3,15.5,15.4,12.9,15.4z"/>
</g>
<path class="st1" d="M16.1,15.9c-0.4,0-0.7,0.3-0.7,0.7l0,0v3.9c0,0.4,0.3,0.7,0.7,0.7l0,0H20c0.4,0,0.7-0.3,0.7-0.7l0,0v-1.1H20
	v1.1h-3.9v-3.9H20v0.7h0.7v-0.7c0-0.4-0.3-0.7-0.7-0.7l0,0 M18.2,18.1c-0.4,0-0.7,0.3-0.7,0.7l0,0v1.1h0.7v-1.1h3.9v3.9h-3.9V22
	h-0.7v0.7c0,0.4,0.3,0.7,0.7,0.7l0,0h3.9c0.4,0,0.7-0.3,0.7-0.7l0,0v-3.9c0-0.4-0.3-0.7-0.7-0.7l0,0H18.2"/>
<polygon class="st1" points="20.5,13.3 21.5,13.3 21.5,2 10.3,2 10.3,3.4 8.4,3.4 8.4,0.1 23.4,0.1 23.4,15.2 20.5,15.2 "/>
</svg>
