<?xml version="1.0" encoding="utf-8"?>
<!-- Generator: Adobe Illustrator 27.5.0, SVG Export Plug-In . SVG Version: 6.00 Build 0)  -->
<svg version="1.1" id="Layer_1" xmlns="http://www.w3.org/2000/svg" xmlns:xlink="http://www.w3.org/1999/xlink" x="0px" y="0px"
	 viewBox="0 0 23.5 24.7" style="enable-background:new 0 0 23.5 24.7;" xml:space="preserve">
<style type="text/css">
	.st0{fill:#010101;}
</style>
<g>
	<path class="st0" d="M8.1,10.8C8.1,10.8,8.1,10.7,8.1,10.8c0-2.6,2.1-4.7,4.7-4.7c2.6,0,4.7,2.1,4.7,4.7c0,0.2,0,0.3,0,0.5h1.1
		c0.4,0,0.7,0.2,1,0.4c0-0.3,0.1-0.6,0.1-1c0-3.7-3-6.7-6.8-6.7c-3.7,0-6.7,3-6.7,6.8c0,1.4,0.5,2.8,1.3,4l-0.8,0.8H6.1l-5.7,5.7
		l1.9,1.9l5.8-5.8v-0.6l0.8-0.8c0.5,0.4,1.1,0.7,1.6,0.9v-2.2C9.1,14,8.1,12.5,8.1,10.8z"/>
	<path class="st0" d="M23.1,15.3h0.2V0.2h-15v3.3h1.9V2.1h11.1v11.2h-0.9v1.3h1.4C22.4,14.6,22.8,14.9,23.1,15.3z"/>
</g>
<path class="st0" d="M12.4,12.1c-0.6,0-1,0.4-1,1l0,0v5.8c0,0.6,0.4,1,1,1l0,0h5.8c0.6,0,1-0.4,1-1l0,0v-1.6h-1v1.6h-5.8v-5.8h5.8v1
	h1v-1c0-0.6-0.4-1-1-1l0,0 M15.5,15.4c-0.6,0-1,0.4-1,1l0,0V18h1v-1.6h5.8v5.8h-5.8v-1h-1v1c0,0.6,0.4,1,1,1l0,0h5.8
	c0.6,0,1-0.4,1-1l0,0v-5.8c0-0.6-0.4-1-1-1l0,0H15.5"/>
</svg>
