<?xml version="1.0" encoding="utf-8"?>
<!-- Generator: Adobe Illustrator 27.5.0, SVG Export Plug-In . SVG Version: 6.00 Build 0)  -->
<svg version="1.1" id="Layer_1" xmlns="http://www.w3.org/2000/svg" xmlns:xlink="http://www.w3.org/1999/xlink" x="0px" y="0px"
	 viewBox="0 0 22.9 23" style="enable-background:new 0 0 22.9 23;" xml:space="preserve">
<style type="text/css">
	.st0{fill:#010101;}
</style>
<polygon class="st0" points="20.1,13.1 21,13.1 21,1.9 9.9,1.9 9.9,3.3 7.9,3.3 7.9,0 22.9,0 22.9,15.1 20.1,15.1 "/>
<path class="st0" d="M0,21.1L1.9,23l5.8-5.7v-0.6l0.8-0.8c1.2,0.9,2.6,1.3,4,1.3c3.7,0,6.7-3,6.7-6.7s-3-6.7-6.7-6.7s-6.7,3-6.7,6.7
	c0,1.4,0.5,2.8,1.3,4l-0.8,0.8H5.8L0,21.1z M12.4,15.2c-2.6,0-4.7-2.1-4.7-4.7l0,0c0-2.6,2.1-4.7,4.7-4.7c2.6,0,4.7,2.1,4.7,4.7
	S15,15.2,12.4,15.2C12.4,15.2,12.4,15.2,12.4,15.2z"/>
</svg>
