<?xml version="1.0" encoding="utf-8"?>
<!-- Generator: Adobe Illustrator 27.5.0, SVG Export Plug-In . SVG Version: 6.00 Build 0)  -->
<svg version="1.1" id="Layer_1" xmlns="http://www.w3.org/2000/svg" xmlns:xlink="http://www.w3.org/1999/xlink" x="0px" y="0px"
	 viewBox="0 0 23.5 24.7" style="enable-background:new 0 0 23.5 24.7;" xml:space="preserve">
<style type="text/css">
	.st0{fill:#231F20;}
	.st1{fill:#010101;}
	.st2{fill:none;}
</style>
<path class="st0" d="M20.6,14.6h2.9V6.3h-3.8c1.2,1.3,1.9,2.9,1.9,4.7C21.7,12.2,21.3,13.5,20.6,14.6z"/>
<path class="st1" d="M0.1,6.3v8.3H6C4.2,12,4.6,8.4,7,6.3C7,6.3,0.1,6.3,0.1,6.3z"/>
<g>
	<path class="st2" d="M11.9,11.6h5.7c0-0.2,0-0.4,0-0.6c0-2.6-2.1-4.7-4.7-4.7c-2.6,0-4.7,2.1-4.7,4.7c0,1.6,0.9,3.1,2.2,3.9v-1.9
		C10.5,12.3,11.1,11.6,11.9,11.6z"/>
	<path class="st1" d="M8.3,11.1C8.3,11,8.3,11,8.3,11.1C8.3,11,8.3,11,8.3,11.1c0-2.6,2.1-4.7,4.7-4.7c2.6,0,4.7,2.1,4.7,4.7
		c0,0.2,0,0.4,0,0.6h0.9c0.6,0,1.1,0.4,1.4,0.9c0.2-0.6,0.3-1.2,0.2-1.9c-0.1-3.7-3.3-6.6-7-6.5c-1.4,0-2.8,0.5-4,1.3
		c-3,2.2-3.6,6.4-1.4,9.4l-0.8,0.8H6.3l-5.8,5.9l2,1.9l5.8-5.8v-0.5l0.8-0.8c0.4,0.3,0.9,0.6,1.4,0.8V15C9.1,14.1,8.3,12.7,8.3,11.1
		z"/>
</g>
<path class="st1" d="M12.4,12.5c-0.6,0-1,0.4-1,1l0,0v5.8c0,0.6,0.4,1,1,1l0,0h5.8c0.6,0,1-0.4,1-1l0,0v-1.6h-1v1.6h-5.8v-5.8h5.8v1
	h1v-1c0-0.6-0.4-1-1-1l0,0 M15.5,15.8c-0.6,0-1,0.4-1,1l0,0v1.6h1v-1.6h5.8v5.8h-5.8v-1h-1v1c0,0.6,0.4,1,1,1l0,0h5.8
	c0.6,0,1-0.4,1-1l0,0v-5.8c0-0.6-0.4-1-1-1l0,0H15.5"/>
</svg>
