<?xml version="1.0" encoding="utf-8"?>
<!-- Generator: Adobe Illustrator 27.5.0, SVG Export Plug-In . SVG Version: 6.00 Build 0)  -->
<svg version="1.1" id="Layer_1" xmlns="http://www.w3.org/2000/svg" xmlns:xlink="http://www.w3.org/1999/xlink" x="0px" y="0px"
	 viewBox="0 0 23.5 24.7" style="enable-background:new 0 0 23.5 24.7;" xml:space="preserve">
<style type="text/css">
	.st0{fill:#231F20;}
	.st1{fill:none;}
	.st2{fill:#010101;}
</style>
<path class="st0" d="M16.3,4.6V0H8v5.5c1.3-1.2,2.9-1.9,4.7-1.9C14,3.6,15.2,3.9,16.3,4.6z"/>
<g>
	<path class="st1" d="M12,11.5h5.3c-0.1-2.4-2.1-4.3-4.6-4.4C10.1,7,8,9.1,8,11.7c-0.1,1.8,1,3.4,2.5,4.2v-3
		C10.5,12.1,11.2,11.5,12,11.5z"/>
	<path class="st2" d="M8,11.7c0-2.6,2.1-4.7,4.7-4.6c2.5,0.1,4.5,1.9,4.6,4.4h1.2c0.3,0,0.6,0.1,0.9,0.3c0-3.7-3-6.7-6.7-6.7
		C9,5.1,6,8.1,6,11.8c0,1.4,0.5,2.8,1.3,4l-0.8,0.8H6l-5.8,5.7l1.9,1.9l5.8-5.7v-0.6l0.8-0.8c0.5,0.4,1.2,0.8,1.8,1v-2.2
		C9,15.1,7.9,13.6,8,11.7z"/>
	<path class="st2" d="M13.7,22.8v-1.7H12c-0.8,0-1.5-0.7-1.5-1.5v-0.1c-0.4-0.1-0.8-0.3-1.2-0.6l-1.5,1.5v4.2h8.3v-0.5h-1
		C14.3,24.3,13.7,23.6,13.7,22.8z"/>
</g>
<path class="st2" d="M12.4,12.3c-0.6,0-1,0.4-1,1l0,0v5.8c0,0.6,0.4,1,1,1l0,0h5.8c0.6,0,1-0.4,1-1l0,0v-1.6h-1v1.6h-5.8v-5.8h5.8v1
	h1v-1c0-0.6-0.4-1-1-1l0,0 M15.6,15.6c-0.6,0-1,0.4-1,1l0,0v1.6h1v-1.6h5.8v5.8h-5.8v-1h-1v1c0,0.6,0.4,1,1,1l0,0h5.8
	c0.6,0,1-0.4,1-1l0,0v-5.8c0-0.6-0.4-1-1-1l0,0H15.6"/>
</svg>
