<?xml version="1.0" encoding="utf-8"?>
<!-- Generator: Adobe Illustrator 27.5.0, SVG Export Plug-In . SVG Version: 6.00 Build 0)  -->
<svg version="1.1" id="Layer_1" xmlns="http://www.w3.org/2000/svg" xmlns:xlink="http://www.w3.org/1999/xlink" x="0px" y="0px"
	 viewBox="0 0 23.5 24.7" style="enable-background:new 0 0 23.5 24.7;" xml:space="preserve">
<style type="text/css">
	.st0{fill:#010101;}
	.st1{fill:#231F20;}
</style>
<path class="st0" d="M0.4,18.7l2,1.9l5.8-5.8v-0.5l0.8-0.8c1.2,0.9,2.6,1.3,4,1.3c0.2,0,0.3,0,0.5,0c3.7-0.1,6.6-3.3,6.5-7
	s-3.3-6.6-7-6.5c-1.4,0-2.8,0.5-4,1.3c-3,2.2-3.6,6.4-1.4,9.4l-0.8,0.8H6.2L0.4,18.7z M8.2,8.2C8.2,8.1,8.2,8.1,8.2,8.2
	c0-2.6,2.1-4.7,4.7-4.7c2.6,0,4.7,2.1,4.7,4.7c0,2.6-2.1,4.7-4.7,4.7C10.3,12.8,8.2,10.7,8.2,8.2z"/>
<path class="st1" d="M20.5,11.7h2.9V3.4h-3.8c1.2,1.3,1.9,2.9,1.9,4.7C21.6,9.3,21.2,10.6,20.5,11.7z"/>
<path class="st0" d="M0,3.4l0,8.3h5.9c-1.8-2.6-1.4-6.2,1-8.3H0z"/>
<path class="st0" d="M16,15.9c-0.4,0-0.7,0.3-0.7,0.7c0,0,0,0,0,0v3.9c0,0.4,0.3,0.7,0.7,0.7c0,0,0,0,0,0h3.9c0.4,0,0.7-0.3,0.7-0.7
	c0,0,0,0,0,0v-1.1h-0.7v1.1H16v-3.9h3.9v0.7h0.7v-0.7c0-0.4-0.3-0.7-0.7-0.7c0,0,0,0,0,0 M18.1,18.1c-0.4,0-0.7,0.3-0.7,0.7
	c0,0,0,0,0,0v1.1h0.7v-1.1h3.9v3.9h-3.9V22h-0.7v0.7c0,0.4,0.3,0.7,0.7,0.7c0,0,0,0,0,0h3.9c0.4,0,0.7-0.3,0.7-0.7c0,0,0,0,0,0v-3.9
	c0-0.4-0.3-0.7-0.7-0.7c0,0,0,0,0,0L18.1,18.1"/>
</svg>
