<?xml version="1.0" encoding="utf-8"?>
<!-- Generator: Adobe Illustrator 27.5.0, SVG Export Plug-In . SVG Version: 6.00 Build 0)  -->
<svg version="1.1" id="Layer_1" xmlns="http://www.w3.org/2000/svg" xmlns:xlink="http://www.w3.org/1999/xlink" x="0px" y="0px"
	 viewBox="0 0 23.5 24.7" style="enable-background:new 0 0 23.5 24.7;" xml:space="preserve">
<style type="text/css">
	.st0{fill:#231F20;}
	.st1{fill:none;}
	.st2{fill:#010101;}
</style>
<path class="st0" d="M16.3,4.7V0.1H8v5.5c1.3-1.2,2.9-1.9,4.7-1.9C14,3.7,15.2,4,16.3,4.7z"/>
<g>
	<path class="st1" d="M12.7,7.2C10.1,7.1,8,9.2,8,11.8c-0.1,2.6,2,4.7,4.6,4.7c0.7,0,1.3-0.1,1.9-0.3v0c0-0.6,0.5-1,1-1H16
		c0.8-0.8,1.3-2,1.3-3.2C17.4,9.3,15.3,7.3,12.7,7.2z"/>
	<path class="st2" d="M12.6,16.5c-2.6,0-4.7-2.1-4.6-4.7c0-2.6,2.1-4.7,4.7-4.6c2.6,0.1,4.7,2.1,4.6,4.7c0,1.2-0.5,2.4-1.3,3.2h2.6
		c0.5-1,0.8-2,0.8-3.2c0-3.7-3-6.7-6.7-6.7S6,8.2,6,11.9c0,1.4,0.5,2.8,1.3,4l-0.8,0.8H6l-5.8,5.7l1.9,1.9l5.8-5.7V18l0.8-0.8
		c1.1,0.9,2.6,1.4,4,1.4c0.6,0,1.2-0.1,1.8-0.2v-2.2C13.9,16.4,13.3,16.5,12.6,16.5z"/>
	<g>
		<path class="st2" d="M14.5,21.1v-1.4c-0.6,0.2-1.3,0.3-1.9,0.3c-1.2,0-2.3-0.3-3.3-0.9l-1.5,1.5v4.2h8.3v-2.6h-0.6
			C15,22.1,14.5,21.7,14.5,21.1z"/>
	</g>
</g>
<path class="st2" d="M16,16c-0.4,0-0.7,0.3-0.7,0.7l0,0v3.9c0,0.4,0.3,0.7,0.7,0.7l0,0h3.9c0.4,0,0.7-0.3,0.7-0.7l0,0v-1.1h-0.7v1.1
	H16v-3.9h3.9v0.7h0.7v-0.7c0-0.4-0.3-0.7-0.7-0.7l0,0 M18.1,18.2c-0.4,0-0.7,0.3-0.7,0.7l0,0V20h0.7v-1.1H22v3.9h-3.9v-0.7h-0.7v0.7
	c0,0.4,0.3,0.7,0.7,0.7l0,0H22c0.4,0,0.7-0.3,0.7-0.7l0,0v-3.9c0-0.4-0.3-0.7-0.7-0.7l0,0H18.1"/>
</svg>
