<svg id="Layer_1" data-name="Layer 1" xmlns="http://www.w3.org/2000/svg" viewBox="0 0 23.53 24.66"><defs><style>.cls-1{fill:#010101;}</style></defs><polygon class="cls-1" points="3 14.82 0.15 14.82 0.15 -0.25 15.12 -0.25 15.12 3.01 13.2 3.01 13.2 1.67 2.07 1.67 2.07 12.9 3 12.9 3 14.82"/><path class="cls-1" d="M17.32,15.1h-.57L16,14.32a6.59,6.59,0,0,0,1.34-4A6.72,6.72,0,1,0,10.6,17a6.59,6.59,0,0,0,4-1.34l.78.77V17l5.75,5.75,1.92-1.92ZM10.67,15a4.68,4.68,0,1,1,4.67-4.67A4.67,4.67,0,0,1,10.67,15Z"/><path class="cls-1" d="M8.27,7.41A.55.55,0,0,0,7.72,8v3a.55.55,0,0,0,.55.55h3a.55.55,0,0,0,.55-.55v-.83H11.3V11h-3V8h3v.56h.55V8a.55.55,0,0,0-.55-.55M9.92,9.07a.55.55,0,0,0-.55.55v.82h.55V9.62h3v3h-3V12.1H9.37v.55a.55.55,0,0,0,.55.55h3a.54.54,0,0,0,.55-.55v-3A.54.54,0,0,0,13,9.07h-3"/></svg>