<svg id="Layer_1" data-name="Layer 1" xmlns="http://www.w3.org/2000/svg" viewBox="0 0 23.53 24.66"><defs><style>.cls-1{fill:#010101;}.cls-2{fill:#231f20;}</style></defs><path class="cls-1" d="M16.51,16.54H16l-.77-.77a6.65,6.65,0,0,0,1.31-4A6.72,6.72,0,1,0,9.81,18.5a6.62,6.62,0,0,0,4-1.36l.78.76v.57l5.78,5.72,1.91-1.93Zm-6.65-.1a4.68,4.68,0,1,1,4.65-4.7A4.67,4.67,0,0,1,9.86,16.44Z"/><path class="cls-2" d="M9.81,3.57a6.68,6.68,0,0,1,4.7,1.92V0H6.18V4.64A6.66,6.66,0,0,1,9.81,3.57Z"/><path class="cls-1" d="M13.13,18.94a6.52,6.52,0,0,1-3.29.88,6.61,6.61,0,0,1-3.49-1v5.84h8.33V20.49Z"/></svg>