<?xml version="1.0" encoding="utf-8"?>
<!-- Generator: Adobe Illustrator 27.5.0, SVG Export Plug-In . SVG Version: 6.00 Build 0)  -->
<svg version="1.1" id="Layer_1" xmlns="http://www.w3.org/2000/svg" xmlns:xlink="http://www.w3.org/1999/xlink" x="0px" y="0px"
	 viewBox="0 0 23.5 24.7" style="enable-background:new 0 0 23.5 24.7;" xml:space="preserve">
<style type="text/css">
	.st0{fill:#010101;}
	.st1{fill:#231F20;}
</style>
<path class="st0" d="M0.5,22.3l1.9,1.9l5.8-5.7v-0.6L9,17.1c1.1,0.9,2.6,1.4,4,1.4c3.7,0,6.7-3,6.7-6.7s-3-6.7-6.7-6.7
	s-6.7,3-6.7,6.7c0,1.4,0.5,2.8,1.3,4l-0.8,0.8H6.3L0.5,22.3z M12.9,16.4c-2.6,0-4.7-2.1-4.6-4.7l0,0c0-2.6,2.1-4.7,4.7-4.6
	s4.7,2.1,4.6,4.7S15.5,16.5,12.9,16.4L12.9,16.4z"/>
<path class="st1" d="M16.6,4.6V0H8.3v5.5c1.3-1.2,2.9-1.9,4.7-1.9C14.3,3.6,15.5,3.9,16.6,4.6z"/>
<path class="st0" d="M8.1,20.5v4.2h8.3v-5.8c-1,0.7-2.3,1-3.5,1s-2.3-0.3-3.3-0.9L8.1,20.5z"/>
</svg>
