<?xml version="1.0" encoding="utf-8"?>
<!-- Generator: Adobe Illustrator 27.5.0, SVG Export Plug-In . SVG Version: 6.00 Build 0)  -->
<svg version="1.1" id="Layer_1" xmlns="http://www.w3.org/2000/svg" xmlns:xlink="http://www.w3.org/1999/xlink" x="0px" y="0px"
	 viewBox="0 0 23.5 24.7" style="enable-background:new 0 0 23.5 24.7;" xml:space="preserve">
<style type="text/css">
	.st0{fill:#010101;}
	.st1{fill:#231F20;}
</style>
<path class="st0" d="M3.1,22.3L5,24.2l5.8-5.7v-0.6l0.8-0.8c1.1,0.9,2.6,1.4,4,1.4c3.7,0,6.7-3,6.7-6.7c0-3.7-3-6.7-6.7-6.7
	c-3.7,0-6.7,3-6.7,6.7c0,1.4,0.5,2.8,1.3,4l-0.8,0.8H8.9L3.1,22.3z M15.5,16.4c-2.6,0-4.7-2.1-4.6-4.7c0,0,0,0,0,0
	c0-2.6,2.1-4.7,4.7-4.6s4.7,2.1,4.6,4.7S18.1,16.5,15.5,16.4C15.5,16.4,15.5,16.4,15.5,16.4z"/>
<path class="st1" d="M19.2,4.6V0l-8.3,0v5.5c1.3-1.2,2.9-1.9,4.7-1.9C16.9,3.6,18.1,3.9,19.2,4.6z"/>
<path class="st0" d="M10.7,20.5v4.2H19v-5.8c-1,0.7-2.3,1-3.5,1c-1.2,0-2.3-0.3-3.3-0.9L10.7,20.5z"/>
</svg>
