<?xml version="1.0" encoding="utf-8"?>
<!-- Generator: Adobe Illustrator 27.5.0, SVG Export Plug-In . SVG Version: 6.00 Build 0)  -->
<svg version="1.1" id="Layer_1" xmlns="http://www.w3.org/2000/svg" xmlns:xlink="http://www.w3.org/1999/xlink" x="0px" y="0px"
	 viewBox="0 0 23.5 24.7" style="enable-background:new 0 0 23.5 24.7;" xml:space="preserve">
<style type="text/css">
	.st0{fill:#231F20;}
	.st1{fill:#010101;}
	.st2{fill:none;}
</style>
<path class="st0" d="M20.5,14.7h2.9V6.4h-3.8c1.2,1.3,1.9,2.9,1.9,4.7C21.6,12.3,21.2,13.6,20.5,14.7z"/>
<path class="st1" d="M0,6.4v8.3h5.9c-1.8-2.6-1.4-6.2,1-8.3C6.9,6.4,0,6.4,0,6.4z"/>
<g>
	<path class="st2" d="M17.6,11.2c0-2.6-2.1-4.7-4.7-4.7c-2.6,0-4.7,2.1-4.7,4.7c0,2.5,2.1,4.6,4.7,4.7c0.6,0,1.1-0.1,1.6-0.3
		c0.2-0.3,0.5-0.4,0.9-0.4h0C16.7,14.3,17.6,12.8,17.6,11.2z"/>
	<path class="st1" d="M14.5,15.6c-0.5,0.2-1,0.3-1.6,0.3c-2.6-0.1-4.7-2.2-4.7-4.7c0,0,0-0.1,0-0.1s0,0,0,0.1c0-2.6,2.1-4.7,4.7-4.7
		c2.6,0,4.7,2.1,4.7,4.7c0,1.7-0.9,3.1-2.2,4h3.2c0.9-1.2,1.5-2.7,1.4-4.4c-0.1-3.7-3.3-6.6-7-6.5c-1.4,0-2.8,0.5-4,1.3
		C6,7.8,5.4,12,7.6,15l-0.8,0.8H6.2l-5.8,5.9l2,1.9l5.8-5.8v-0.5L9,16.5c1.2,0.9,2.6,1.3,4,1.3c0.2,0,0.3,0,0.5,0
		c0.3,0,0.5,0,0.7-0.1v-1.4C14.3,16,14.4,15.8,14.5,15.6z"/>
</g>
<path class="st1" d="M15.9,16c-0.4,0-0.7,0.3-0.7,0.7l0,0v3.9c0,0.4,0.3,0.7,0.7,0.7l0,0h3.9c0.4,0,0.7-0.3,0.7-0.7l0,0v-1.1h-0.7
	v1.1h-3.9v-3.9h3.9v0.7h0.7v-0.7c0-0.4-0.3-0.7-0.7-0.7l0,0 M18,18.2c-0.4,0-0.7,0.3-0.7,0.7l0,0V20H18v-1.1h3.9v3.9H18v-0.7h-0.7
	v0.7c0,0.4,0.3,0.7,0.7,0.7l0,0h3.9c0.4,0,0.7-0.3,0.7-0.7l0,0v-3.9c0-0.4-0.3-0.7-0.7-0.7l0,0H18"/>
</svg>
