<svg id="Layer_1" data-name="Layer 1" xmlns="http://www.w3.org/2000/svg" viewBox="0 0 23.53 24.66"><defs><style>.cls-1{fill:#010101;}.cls-2{fill:#231f20;}</style></defs><path class="cls-1" d="M17.22,15.1h-.57l-.76-.78A6.72,6.72,0,0,0,10.51,3.59a6.72,6.72,0,1,0,0,13.43,6.58,6.58,0,0,0,4-1.34l.78.77V17l5.75,5.75L23,20.85ZM10.57,15a4.68,4.68,0,1,1,4.67-4.67A4.68,4.68,0,0,1,10.57,15Z"/><path class="cls-2" d="M1.87,10.23A6.72,6.72,0,0,1,3.79,5.54H0v8.33H2.94A6.76,6.76,0,0,1,1.87,10.23Z"/><path class="cls-1" d="M16.5,5.53a6.38,6.38,0,0,1,1,8.34h5.93V5.53Z"/></svg>