<?xml version="1.0" encoding="UTF-8"?>
<svg xmlns="http://www.w3.org/2000/svg" viewBox="0 0 66.6 47">
  <defs>
    <style>
      .bracket, .letter {
        fill: #010101;
      }
    </style>
  </defs>
  <!-- Left bracket - closed polygon -->
  <polygon class="bracket" points="2.9,3.7 11.1,3.7 11.1,6.5 7,6.5 7,40.3 11.1,40.3 11.1,44.9 2.9,44.9"/>
  <!-- Right bracket - closed polygon -->
  <polygon class="bracket" points="55.8,3.7 64,3.7 64,44.9 55.8,44.9 55.8,40.1 59.9,40.1 59.9,6.3 55.8,6.3"/>
  <!-- "api" text paths -->
  <path class="letter" d="M11.6,19.5c0-.3,0-.7,0-1.1,2.1-1.1,4.3-1.7,6.6-1.7s4.1.4,5.1,1.3c1,.9,1.5,2.4,1.5,4.5v7.1c.8.2,1.4.3,1.8.6v2.9c-1.1.5-2.7.8-4.8.8-.2-.6-.4-1.3-.6-2.1-1,1.4-2.7,2.1-5.2,2.1s-2.8-.4-3.8-1.3-1.6-2-1.6-3.5.5-2.7,1.5-3.5c1-.9,2.5-1.3,4.4-1.3h3.6v-1.6c0-1.7-.9-2.6-2.8-2.6s-1.3,0-1.7.2c0,.9-.2,1.6-.4,2.2h-3.3c-.4-.8-.6-1.8-.6-3ZM17.6,30.5c1.1,0,2-.3,2.7-1v-2.7h-2.3c-1.6,0-2.4.6-2.4,1.8s.2,1,.5,1.4c.3.4.8.5,1.5.5Z"/>
  <path class="letter" d="M27.9,17c1.2-.3,2.3-.4,3.3-.4s1.8,0,2.4,0v1.6c1.5-1,3.1-1.6,4.7-1.6s3.8.6,4.8,1.9c1,1.3,1.5,3.4,1.5,6.3s-.2,3-.7,4.1c-.5,1.2-1.1,2.1-1.9,2.8-1.5,1.3-3.3,2-5.4,2s-1.8,0-2.6-.3v2.9c1.3.4,2.1.8,2.5,1.2l-.3,2.6h-8.3l-.3-2.6c.3-.4.9-.8,1.8-1.1v-15.9c-.8-.3-1.4-.6-1.8-1.1l.3-2.6ZM36.3,30.5c1.1,0,2-.5,2.6-1.5.6-1,1-2.3,1-4.1s-.2-2.9-.5-3.6c-.4-.6-1-1-1.9-1-1.4,0-2.5.3-3.4,1v8.8c.7.2,1.4.3,2.3.3Z"/>
  <path class="letter" d="M46.8,17c1.2-.3,2.4-.4,3.5-.4s2,0,2.7,0v13.2c.9.3,1.5.7,1.8,1.1l-.3,2.6h-7.6l-.3-2.6c.3-.4.9-.8,1.8-1.1v-9.2c-.8-.3-1.4-.6-1.8-1.1l.3-2.6ZM50.6,14.7c-1.8,0-2.8-.8-2.8-2.5s.9-2.5,2.8-2.5,2.8.8,2.8,2.5-.9,2.5-2.8,2.5Z"/>
</svg>
