<svg id="Layer_1" data-name="Layer 1" xmlns="http://www.w3.org/2000/svg" viewBox="0 0 72 72"><defs><style>.cls-1{fill:#3e8ede;}.cls-2{fill:#fff;}</style></defs><title>stsci_symbol_pantone279</title><circle class="cls-1" cx="36" cy="36" r="36"/><path class="cls-2" d="M36,70A34,34,0,1,1,70,36,34,34,0,0,1,36,70ZM36,3A33,33,0,1,0,69,36,33,33,0,0,0,36,3Z"/><path class="cls-2" d="M52,22.95a16,16,0,0,0-32.08,0H18.41V58.78H53.59V22.95H52ZM36,8.38a15,15,0,0,1,8.79,27.27l-1.26-13h0a7.57,7.57,0,0,0-15.06,0h0l-1.25,13A15,15,0,0,1,36,8.38ZM36,54l-1-4.61c0.34,0,.67,0,1,0s0.68,0,1,0Zm2-4.52a16.75,16.75,0,0,1,12.56,8.3H36.19Zm-2.21,8.3H21.42A16.75,16.75,0,0,1,34,49.49ZM36,48.36c-0.41,0-.83,0-1.23,0L34.46,47a9,9,0,0,0,1.51.13h0A9.07,9.07,0,0,0,37.54,47l-0.31,1.4C36.82,48.38,36.41,48.36,36,48.36Zm0-2.22h0a7.85,7.85,0,0,1-1.75-.21l-1.48-6.75a16.12,16.12,0,0,0,6.53,0l-1.48,6.74A8.11,8.11,0,0,1,36,46.14ZM29,27.06L30,31.2a9.24,9.24,0,0,0-1.47,1.69Zm1.34,1.45a7.6,7.6,0,0,0,1.53,1.3,9.08,9.08,0,0,0-1.1.68ZM33,30.4a7.53,7.53,0,0,0,6,0,8,8,0,0,1,1.94,1.17L39.5,38.08a14.56,14.56,0,0,1-7,0l-1.44-6.53A8.13,8.13,0,0,1,33,30.4Zm10.51,2.49A9.13,9.13,0,0,0,42,31.19L43,27.06Zm-2.34-2.39a9.15,9.15,0,0,0-1.1-.68,7.6,7.6,0,0,0,1.53-1.3Zm0.61,1.86a7.82,7.82,0,0,1,2,3.94,15,15,0,0,1-3.23,1.49Zm0.78-8.91A6.57,6.57,0,1,1,36,16.88,6.58,6.58,0,0,1,42.57,23.45ZM30.21,32.34l1.2,5.45a14.88,14.88,0,0,1-3.23-1.49A7.77,7.77,0,0,1,30.21,32.34Zm1.44,6.56,1.47,6.7A7.84,7.84,0,0,1,29.06,42L25.5,35.58A16,16,0,0,0,31.65,38.9Zm8.7,0a16,16,0,0,0,6.15-3.32L42.93,42a7.85,7.85,0,0,1-4.05,3.56Zm-20.94-15H20A15.94,15.94,0,0,0,22,31.35h0l6.16,11.12a8.84,8.84,0,0,0,5.2,4.28l0.39,1.75a17.75,17.75,0,0,0-13.49,9.28H19.41V23.95ZM52.59,57.78H51.72a17.75,17.75,0,0,0-13.49-9.28l0.39-1.76a8.85,8.85,0,0,0,5.19-4.25L50,31.36h0A15.94,15.94,0,0,0,52,23.95h0.55V57.78Z"/></svg>